# Source: 
# -Misc-Fixed-Medium-R-Normal--20-200-75-75-C-100-ISO10646-1 $ucs-fonts: 10x20.bdf,v 1.91 2009-04-06 19:10:19+01 mgk25 Rel $

name: terminal Medium 20
family: terminal
foundry: dylex
copyright: Public domain font.  Share and enjoy.
point-size: 20
weight: medium
dpi: 75 75
spacing: character-cell
x-height: 8
cap-height: 13
offset: 0 -4
encoding: unicode
default-char: u+0000
converter: monobit v0.12
source-name: 10x20.bdf
source-format: BDF v2.1
bdf.FONTNAME-REGISTRY: ""
bdf.-GBDFED-INFO: "Edited with gbdfed 1.6."

u+0000:
char0:
    ..........
    .@.@.@.@..
    ........@.
    .@........
    ........@.
    .@........
    ........@.
    .@........
    ........@.
    .@........
    ........@.
    .@........
    ........@.
    .@........
    ........@.
    .@........
    ........@.
    .@........
    ..@.@.@.@.
    ..........

u+0001:
uni25C6:
    ..........
    ..........
    ..........
    ..........
    ..........
    ..........
    ....@.....
    ...@@@....
    ..@@@@@...
    .@@@@@@@..
    @@@@@@@@@.
    .@@@@@@@..
    ..@@@@@...
    ...@@@....
    ....@.....
    ..........
    ..........
    ..........
    ..........
    ..........

u+0002:
shade:
    .@.@.@.@.@
    @.@.@.@.@.
    .@.@.@.@.@
    @.@.@.@.@.
    .@.@.@.@.@
    @.@.@.@.@.
    .@.@.@.@.@
    @.@.@.@.@.
    .@.@.@.@.@
    @.@.@.@.@.
    .@.@.@.@.@
    @.@.@.@.@.
    .@.@.@.@.@
    @.@.@.@.@.
    .@.@.@.@.@
    @.@.@.@.@.
    .@.@.@.@.@
    @.@.@.@.@.
    .@.@.@.@.@
    @.@.@.@.@.

u+0003:
uni2409:
    ..........
    ..........
    .@@..@@...
    .@@..@@...
    .@@..@@...
    .@@@@@@...
    .@@..@@...
    .@@..@@...
    .@@..@@...
    ..........
    ...@@@@@@.
    .....@@...
    .....@@...
    .....@@...
    .....@@...
    .....@@...
    ..........
    ..........
    ..........
    ..........

u+0004:
uni240C:
    ..........
    ..........
    .@@@@@....
    .@@.......
    .@@.......
    .@@@@.....
    .@@.......
    .@@.......
    .@@.......
    ....@@@@@.
    ....@@....
    ....@@....
    ....@@@@..
    ....@@....
    ....@@....
    ....@@....
    ..........
    ..........
    ..........
    ..........

u+0005:
uni240D:
    ..........
    ..........
    ..@@@@....
    .@@..@@...
    .@@.......
    .@@.......
    .@@..@@...
    ..@@@@....
    ..........
    ...@@@@@..
    ...@@..@@.
    ...@@..@@.
    ...@@@@@..
    ...@@@@...
    ...@@.@@..
    ...@@..@@.
    ..........
    ..........
    ..........
    ..........

u+0006:
uni240A:
    ..........
    ..........
    ..@@......
    ..@@......
    ..@@......
    ..@@......
    ..@@......
    ..@@@@@...
    ..........
    ....@@@@@.
    ....@@....
    ....@@....
    ....@@@@..
    ....@@....
    ....@@....
    ....@@....
    ..........
    ..........
    ..........
    ..........

u+0007:
degree:
    ..........
    ..........
    ..........
    ...@@.....
    ..@..@....
    ..@..@....
    ..@..@....
    ...@@.....
    ..........
    ..........
    ..........
    ..........
    ..........
    ..........
    ..........
    ..........
    ..........
    ..........
    ..........
    ..........

u+0008:
plusminus:
    ..........
    ..........
    ..........
    ..........
    ..........
    ..........
    ....@.....
    ....@.....
    ....@.....
    .@@@@@@@..
    ....@.....
    ....@.....
    ....@.....
    .@@@@@@@..
    ..........
    ..........
    ..........
    ..........
    ..........
    ..........

u+0009:
uni2424:
    ..........
    ..........
    .@@..@@...
    .@@@.@@...
    .@@@@@@...
    .@@@@@@...
    .@@.@@@...
    .@@..@@...
    ..........
    ....@@....
    ....@@....
    ....@@....
    ....@@....
    ....@@....
    ....@@....
    ....@@@@@.
    ..........
    ..........
    ..........
    ..........

u+000a:
uni240B:
    ..........
    ..........
    .@@..@@...
    .@@..@@...
    .@@..@@...
    ..@@@@....
    ..@@@@....
    ...@@.....
    ...@@.....
    ..........
    ...@@@@@@.
    .....@@...
    .....@@...
    .....@@...
    .....@@...
    .....@@...
    ..........
    ..........
    ..........
    ..........

u+000b:
char11:
    ....@.....
    ....@.....
    ....@.....
    ....@.....
    ....@.....
    ....@.....
    ....@.....
    ....@.....
    ....@.....
    @@@@@.....
    ..........
    ..........
    ..........
    ..........
    ..........
    ..........
    ..........
    ..........
    ..........
    ..........

u+000c:
char15:
    ..........
    ..........
    ..........
    ..........
    ..........
    ..........
    ..........
    ..........
    ..........
    @@@@@.....
    ....@.....
    ....@.....
    ....@.....
    ....@.....
    ....@.....
    ....@.....
    ....@.....
    ....@.....
    ....@.....
    ....@.....

u+000d:
char12:
    ..........
    ..........
    ..........
    ..........
    ..........
    ..........
    ..........
    ..........
    ..........
    ....@@@@@@
    ....@.....
    ....@.....
    ....@.....
    ....@.....
    ....@.....
    ....@.....
    ....@.....
    ....@.....
    ....@.....
    ....@.....

u+000e:
char13:
    ....@.....
    ....@.....
    ....@.....
    ....@.....
    ....@.....
    ....@.....
    ....@.....
    ....@.....
    ....@.....
    ....@@@@@@
    ..........
    ..........
    ..........
    ..........
    ..........
    ..........
    ..........
    ..........
    ..........
    ..........

u+000f:
char14:
    ....@.....
    ....@.....
    ....@.....
    ....@.....
    ....@.....
    ....@.....
    ....@.....
    ....@.....
    ....@.....
    @@@@@@@@@@
    ....@.....
    ....@.....
    ....@.....
    ....@.....
    ....@.....
    ....@.....
    ....@.....
    ....@.....
    ....@.....
    ....@.....

u+0010:
char15:
    @@@@@@@@@@
    ..........
    ..........
    ..........
    ..........
    ..........
    ..........
    ..........
    ..........
    ..........
    ..........
    ..........
    ..........
    ..........
    ..........
    ..........
    ..........
    ..........
    ..........
    ..........

u+0011:
char17:
    ..........
    ..........
    ..........
    ..........
    ..........
    @@@@@@@@@@
    ..........
    ..........
    ..........
    ..........
    ..........
    ..........
    ..........
    ..........
    ..........
    ..........
    ..........
    ..........
    ..........
    ..........

u+0012:
char18:
    ..........
    ..........
    ..........
    ..........
    ..........
    ..........
    ..........
    ..........
    ..........
    @@@@@@@@@@
    ..........
    ..........
    ..........
    ..........
    ..........
    ..........
    ..........
    ..........
    ..........
    ..........

u+0013:
char19:
    ..........
    ..........
    ..........
    ..........
    ..........
    ..........
    ..........
    ..........
    ..........
    ..........
    ..........
    ..........
    ..........
    ..........
    @@@@@@@@@@
    ..........
    ..........
    ..........
    ..........
    ..........

u+0014:
char20:
    ..........
    ..........
    ..........
    ..........
    ..........
    ..........
    ..........
    ..........
    ..........
    ..........
    ..........
    ..........
    ..........
    ..........
    ..........
    ..........
    ..........
    ..........
    ..........
    @@@@@@@@@@

u+0015:
char21:
    ....@.....
    ....@.....
    ....@.....
    ....@.....
    ....@.....
    ....@.....
    ....@.....
    ....@.....
    ....@.....
    ....@@@@@@
    ....@.....
    ....@.....
    ....@.....
    ....@.....
    ....@.....
    ....@.....
    ....@.....
    ....@.....
    ....@.....
    ....@.....

u+0016:
char22:
    ....@.....
    ....@.....
    ....@.....
    ....@.....
    ....@.....
    ....@.....
    ....@.....
    ....@.....
    ....@.....
    @@@@@.....
    ....@.....
    ....@.....
    ....@.....
    ....@.....
    ....@.....
    ....@.....
    ....@.....
    ....@.....
    ....@.....
    ....@.....

u+0017:
char23:
    ....@.....
    ....@.....
    ....@.....
    ....@.....
    ....@.....
    ....@.....
    ....@.....
    ....@.....
    ....@.....
    @@@@@@@@@@
    ..........
    ..........
    ..........
    ..........
    ..........
    ..........
    ..........
    ..........
    ..........
    ..........

u+0018:
char24:
    ..........
    ..........
    ..........
    ..........
    ..........
    ..........
    ..........
    ..........
    ..........
    @@@@@@@@@@
    ....@.....
    ....@.....
    ....@.....
    ....@.....
    ....@.....
    ....@.....
    ....@.....
    ....@.....
    ....@.....
    ....@.....

u+0019:
char25:
    ....@.....
    ....@.....
    ....@.....
    ....@.....
    ....@.....
    ....@.....
    ....@.....
    ....@.....
    ....@.....
    ....@.....
    ....@.....
    ....@.....
    ....@.....
    ....@.....
    ....@.....
    ....@.....
    ....@.....
    ....@.....
    ....@.....
    ....@.....

u+001a:
lessequal:
    ..........
    ..........
    ..........
    ..........
    ..........
    ..........
    ......@@@.
    ....@@@...
    ..@@@.....
    @@@.......
    ..@@@.....
    ....@@@...
    ......@@@.
    ..........
    ..........
    @@@@@@@@@.
    ..........
    ..........
    ..........
    ..........

u+001b:
greaterequal:
    ..........
    ..........
    ..........
    ..........
    ..........
    ..........
    @@@.......
    ..@@@.....
    ....@@@...
    ......@@@.
    ....@@@...
    ..@@@.....
    @@@.......
    ..........
    ..........
    @@@@@@@@@.
    ..........
    ..........
    ..........
    ..........

u+001c:
pi:
    ..........
    ..........
    ..........
    ..........
    ..........
    ..........
    ..........
    ..........
    .@@@@@@@@.
    ..@@..@@..
    ..@@..@@..
    ..@@..@@..
    ..@@..@@..
    ..@@..@@..
    ..@@..@@..
    ..@@..@@..
    ..........
    ..........
    ..........
    ..........

u+001d:
notequal:
    ..........
    ..........
    ..........
    ..........
    ..........
    ..........
    ......@@..
    ......@@..
    .....@@...
    .@@@@@@@@.
    ....@@....
    ....@@....
    .@@@@@@@@.
    ...@@.....
    ..@@......
    ..@@......
    ..........
    ..........
    ..........
    ..........

u+001e:
sterling:
    ..........
    ..........
    ..........
    ..........
    ....@@@@..
    ...@@..@@.
    ...@@..@@.
    ...@@.....
    ...@@.....
    .@@@@@@...
    ...@@.....
    ...@@.....
    ...@@.....
    .@@@@@....
    .@.@.@@.@@
    .@@@..@@@.
    ..........
    ..........
    ..........
    ..........

u+001f:
hyphen:
    ..........
    ..........
    ..........
    ..........
    ..........
    ..........
    ..........
    ..........
    ..........
    ...@@@@...
    ..........
    ..........
    ..........
    ..........
    ..........
    ..........
    ..........
    ..........
    ..........
    ..........

u+0020:
space:
    ..........
    ..........
    ..........
    ..........
    ..........
    ..........
    ..........
    ..........
    ..........
    ..........
    ..........
    ..........
    ..........
    ..........
    ..........
    ..........
    ..........
    ..........
    ..........
    ..........

u+0021:
exclam:
    ..........
    ..........
    ..........
    ....@@....
    ....@@....
    ....@@....
    ....@@....
    ....@@....
    ....@@....
    ....@@....
    ....@@....
    ....@@....
    ....@@....
    ..........
    ....@@....
    ....@@....
    ..........
    ..........
    ..........
    ..........

u+0022:
quotedbl:
    ..........
    ..........
    ..........
    ..@@..@@..
    ..@@..@@..
    ..@@..@@..
    ...@..@...
    ..........
    ..........
    ..........
    ..........
    ..........
    ..........
    ..........
    ..........
    ..........
    ..........
    ..........
    ..........
    ..........

u+0023:
numbersign:
    ..........
    ..........
    ..........
    ..........
    ..@@..@@..
    ..@@..@@..
    ..@@..@@..
    .@@@@@@@@.
    ..@@..@@..
    ..@@..@@..
    ..@@..@@..
    .@@@@@@@@.
    ..@@..@@..
    ..@@..@@..
    ..@@..@@..
    ..........
    ..........
    ..........
    ..........
    ..........

u+0024:
dollar:
    ..........
    ..........
    ..........
    ....@@....
    ..@@@@@@..
    .@@.@@.@@.
    .@@.@@....
    .@@.@@....
    .@@.@@....
    ..@@@@@@..
    ....@@.@@.
    ....@@.@@.
    ....@@.@@.
    .@@.@@.@@.
    ..@@@@@@..
    ....@@....
    ..........
    ..........
    ..........
    ..........

u+0025:
percent:
    ..........
    ..........
    ..........
    ..........
    ..@@@..@@.
    .@@.@@.@@.
    .@@.@@@@..
    ..@@@.@@..
    .....@@...
    .....@@...
    ....@@....
    ....@@....
    ...@@.@@@.
    ...@@@@.@@
    ..@@.@@.@@
    ..@@..@@@.
    ..........
    ..........
    ..........
    ..........

u+0026:
ampersand:
    ..........
    ..........
    ..........
    ...@@@....
    ..@@.@@...
    ..@@.@@...
    ..@@.@@...
    ..@@@@....
    ...@@.....
    ..@@@.....
    .@@.@@....
    .@@..@@.@@
    .@@...@@@.
    .@@...@@..
    .@@@.@@@@.
    ..@@@@..@@
    ..........
    ..........
    ..........
    ..........

u+0027:
quotesingle:
    ..........
    ..........
    ..........
    ....@@....
    ....@@....
    ....@@....
    ....@@....
    ....@.....
    ..........
    ..........
    ..........
    ..........
    ..........
    ..........
    ..........
    ..........
    ..........
    ..........
    ..........
    ..........

u+0028:
parenleft:
    ..........
    ..........
    ..........
    ......@@..
    .....@@...
    ....@@....
    ....@@....
    ...@@.....
    ...@@.....
    ...@@.....
    ...@@.....
    ...@@.....
    ....@@....
    ....@@....
    .....@@...
    ......@@..
    ..........
    ..........
    ..........
    ..........

u+0029:
parenright:
    ..........
    ..........
    ..........
    ..@@......
    ...@@.....
    ....@@....
    ....@@....
    .....@@...
    .....@@...
    .....@@...
    .....@@...
    .....@@...
    ....@@....
    ....@@....
    ...@@.....
    ..@@......
    ..........
    ..........
    ..........
    ..........

u+002a:
asterisk:
    ..........
    ..........
    ..........
    ..........
    ..........
    ..........
    ..@@..@@..
    ..@@..@@..
    ...@@@@...
    .@@@@@@@@.
    ...@@@@...
    ..@@..@@..
    ..@@..@@..
    ..........
    ..........
    ..........
    ..........
    ..........
    ..........
    ..........

u+002b:
plus:
    ..........
    ..........
    ..........
    ..........
    ..........
    ..........
    ....@@....
    ....@@....
    ....@@....
    .@@@@@@@@.
    ....@@....
    ....@@....
    ....@@....
    ..........
    ..........
    ..........
    ..........
    ..........
    ..........
    ..........

u+002c:
comma:
    ..........
    ..........
    ..........
    ..........
    ..........
    ..........
    ..........
    ..........
    ..........
    ..........
    ..........
    ..........
    ..........
    ..........
    ....@@@...
    ....@@@...
    ...@@@....
    ..........
    ..........
    ..........

u+002d:
hyphen:
    ..........
    ..........
    ..........
    ..........
    ..........
    ..........
    ..........
    ..........
    ..........
    .@@@@@@@@.
    ..........
    ..........
    ..........
    ..........
    ..........
    ..........
    ..........
    ..........
    ..........
    ..........

u+002e:
period:
    ..........
    ..........
    ..........
    ..........
    ..........
    ..........
    ..........
    ..........
    ..........
    ..........
    ..........
    ..........
    ..........
    ...@@@....
    ...@@@....
    ...@@@....
    ..........
    ..........
    ..........
    ..........

u+002f:
slash:
    ..........
    ..........
    ..........
    ..........
    .......@@.
    .......@@.
    ......@@..
    ......@@..
    .....@@...
    .....@@...
    ....@@....
    ....@@....
    ...@@.....
    ...@@.....
    ..@@......
    ..@@......
    ..........
    ..........
    ..........
    ..........

u+0030:
zero:
    ..........
    ..........
    ..........
    ....@@....
    ...@@@@...
    ..@@..@@..
    ..@@..@@..
    .@@....@@.
    .@@....@@.
    .@@....@@.
    .@@....@@.
    .@@....@@.
    ..@@..@@..
    ..@@..@@..
    ...@@@@...
    ....@@....
    ..........
    ..........
    ..........
    ..........

u+0031:
one:
    ..........
    ..........
    ..........
    ....@@....
    ...@@@....
    ..@@@@....
    .@@.@@....
    ....@@....
    ....@@....
    ....@@....
    ....@@....
    ....@@....
    ....@@....
    ....@@....
    ....@@....
    .@@@@@@@@.
    ..........
    ..........
    ..........
    ..........

u+0032:
two:
    ..........
    ..........
    ..........
    ...@@@@...
    ..@@..@@..
    .@@....@@.
    .@@....@@.
    .......@@.
    .......@@.
    ......@@..
    ....@@@...
    ...@@.....
    ..@@......
    .@@.......
    .@@.......
    .@@@@@@@@.
    ..........
    ..........
    ..........
    ..........

u+0033:
three:
    ..........
    ..........
    ..........
    ...@@@@...
    ..@@..@@..
    .@@....@@.
    .@@....@@.
    .......@@.
    ......@@..
    ....@@@...
    ......@@..
    .......@@.
    .@@....@@.
    .@@....@@.
    ..@@..@@..
    ...@@@@...
    ..........
    ..........
    ..........
    ..........

u+0034:
four:
    ..........
    ..........
    ..........
    .......@..
    ......@@..
    .....@@@..
    ....@@@@..
    ...@@.@@..
    ..@@..@@..
    .@@...@@..
    .@@...@@..
    .@@@@@@@@.
    ......@@..
    ......@@..
    ......@@..
    ......@@..
    ..........
    ..........
    ..........
    ..........

u+0035:
five:
    ..........
    ..........
    ..........
    .@@@@@@@@.
    .@@.......
    .@@.......
    .@@.......
    .@@.......
    .@@.@@@...
    .@@@..@@..
    .......@@.
    .......@@.
    .......@@.
    .@@....@@.
    ..@@..@@..
    ...@@@@...
    ..........
    ..........
    ..........
    ..........

u+0036:
six:
    ..........
    ..........
    ..........
    ...@@@@...
    ..@@..@@..
    .@@....@..
    .@@.......
    .@@.......
    .@@.@@@...
    .@@@..@@..
    .@@....@@.
    .@@....@@.
    .@@....@@.
    .@@....@@.
    ..@@..@@..
    ...@@@@...
    ..........
    ..........
    ..........
    ..........

u+0037:
seven:
    ..........
    ..........
    ..........
    .@@@@@@@@.
    .......@@.
    .......@@.
    ......@@..
    ......@@..
    .....@@...
    .....@@...
    ....@@....
    ....@@....
    ...@@.....
    ...@@.....
    ..@@......
    ..@@......
    ..........
    ..........
    ..........
    ..........

u+0038:
eight:
    ..........
    ..........
    ..........
    ...@@@@...
    ..@@..@@..
    .@@....@@.
    .@@....@@.
    .@@....@@.
    ..@@..@@..
    ...@@@@...
    ..@@..@@..
    .@@....@@.
    .@@....@@.
    .@@....@@.
    ..@@..@@..
    ...@@@@...
    ..........
    ..........
    ..........
    ..........

u+0039:
nine:
    ..........
    ..........
    ..........
    ...@@@@...
    ..@@..@@..
    .@@....@@.
    .@@....@@.
    .@@....@@.
    .@@....@@.
    ..@@..@@@.
    ...@@@.@@.
    .......@@.
    .......@@.
    ..@....@@.
    ..@@..@@..
    ...@@@@...
    ..........
    ..........
    ..........
    ..........

u+003a:
colon:
    ..........
    ..........
    ..........
    ..........
    ..........
    ..........
    ..........
    ..........
    ...@@.....
    ...@@.....
    ..........
    ..........
    ..........
    ..........
    ...@@.....
    ...@@.....
    ..........
    ..........
    ..........
    ..........

u+003b:
semicolon:
    ..........
    ..........
    ..........
    ..........
    ..........
    ..........
    ..........
    ..........
    ....@@....
    ....@@....
    ..........
    ..........
    ..........
    ..........
    ....@@....
    ....@@....
    ...@@.....
    ..........
    ..........
    ..........

u+003c:
less:
    ..........
    ..........
    ..........
    .......@..
    ......@@..
    .....@@...
    ....@@....
    ...@@.....
    ..@@......
    .@@.......
    ..@@......
    ...@@.....
    ....@@....
    .....@@...
    ......@@..
    .......@..
    ..........
    ..........
    ..........
    ..........

u+003d:
equal:
    ..........
    ..........
    ..........
    ..........
    ..........
    ..........
    ..........
    .@@@@@@@@.
    ..........
    ..........
    ..........
    ..........
    .@@@@@@@@.
    ..........
    ..........
    ..........
    ..........
    ..........
    ..........
    ..........

u+003e:
greater:
    ..........
    ..........
    ..........
    ..@.......
    ..@@......
    ...@@.....
    ....@@....
    .....@@...
    ......@@..
    .......@@.
    ......@@..
    .....@@...
    ....@@....
    ...@@.....
    ..@@......
    ..@.......
    ..........
    ..........
    ..........
    ..........

u+003f:
question:
    ..........
    ..........
    ..........
    ...@@@@...
    ..@@..@@..
    .@@....@@.
    .@@....@@.
    .@@....@@.
    ......@@..
    .....@@...
    ....@@....
    ....@@....
    ....@@....
    ..........
    ....@@....
    ....@@....
    ..........
    ..........
    ..........
    ..........

u+0040:
at:
    ..........
    ..........
    ..........
    ...@@@@...
    ..@@..@@..
    .@@....@@.
    .@@..@@@@.
    .@@.@@@@@.
    .@@.@@.@@.
    .@@.@@.@@.
    .@@.@@.@@.
    .@@.@@@@..
    .@@..@@...
    .@@.......
    ..@@...@@.
    ...@@@@@..
    ..........
    ..........
    ..........
    ..........

u+0041:
A:
    ..........
    ..........
    ..........
    ....@@....
    ...@@@@...
    ..@@..@@..
    ..@@..@@..
    .@@....@@.
    .@@....@@.
    .@@....@@.
    .@@@@@@@@.
    .@@....@@.
    .@@....@@.
    .@@....@@.
    .@@....@@.
    .@@....@@.
    ..........
    ..........
    ..........
    ..........

u+0042:
B:
    ..........
    ..........
    ..........
    .@@@@@....
    .@@..@@...
    .@@...@@..
    .@@...@@..
    .@@...@@..
    .@@..@@...
    .@@@@@@...
    .@@...@@..
    .@@....@@.
    .@@....@@.
    .@@....@@.
    .@@...@@..
    .@@@@@@...
    ..........
    ..........
    ..........
    ..........

u+0043:
C:
    ..........
    ..........
    ..........
    ...@@@@...
    ..@@..@@..
    .@@....@@.
    .@@.......
    .@@.......
    .@@.......
    .@@.......
    .@@.......
    .@@.......
    .@@.......
    .@@....@@.
    ..@@..@@..
    ...@@@@...
    ..........
    ..........
    ..........
    ..........

u+0044:
D:
    ..........
    ..........
    ..........
    .@@@@@@...
    .@@...@@..
    .@@....@@.
    .@@....@@.
    .@@....@@.
    .@@....@@.
    .@@....@@.
    .@@....@@.
    .@@....@@.
    .@@....@@.
    .@@....@@.
    .@@...@@..
    .@@@@@@...
    ..........
    ..........
    ..........
    ..........

u+0045:
E:
    ..........
    ..........
    ..........
    .@@@@@@@@.
    .@@.......
    .@@.......
    .@@.......
    .@@.......
    .@@.......
    .@@@@@@...
    .@@.......
    .@@.......
    .@@.......
    .@@.......
    .@@.......
    .@@@@@@@@.
    ..........
    ..........
    ..........
    ..........

u+0046:
F:
    ..........
    ..........
    ..........
    .@@@@@@@@.
    .@@.......
    .@@.......
    .@@.......
    .@@.......
    .@@.......
    .@@@@@@...
    .@@.......
    .@@.......
    .@@.......
    .@@.......
    .@@.......
    .@@.......
    ..........
    ..........
    ..........
    ..........

u+0047:
G:
    ..........
    ..........
    ..........
    ...@@@@...
    ..@@..@@..
    .@@....@@.
    .@@.......
    .@@.......
    .@@.......
    .@@..@@@@.
    .@@....@@.
    .@@....@@.
    .@@....@@.
    .@@....@@.
    ..@@..@@@.
    ...@@@@.@.
    ..........
    ..........
    ..........
    ..........

u+0048:
H:
    ..........
    ..........
    ..........
    .@@....@@.
    .@@....@@.
    .@@....@@.
    .@@....@@.
    .@@....@@.
    .@@....@@.
    .@@@@@@@@.
    .@@....@@.
    .@@....@@.
    .@@....@@.
    .@@....@@.
    .@@....@@.
    .@@....@@.
    ..........
    ..........
    ..........
    ..........

u+0049:
I:
    ..........
    ..........
    ..........
    .@@@@@@@@.
    ....@@....
    ....@@....
    ....@@....
    ....@@....
    ....@@....
    ....@@....
    ....@@....
    ....@@....
    ....@@....
    ....@@....
    ....@@....
    .@@@@@@@@.
    ..........
    ..........
    ..........
    ..........

u+004a:
J:
    ..........
    ..........
    ..........
    ....@@@@@@
    ......@@..
    ......@@..
    ......@@..
    ......@@..
    ......@@..
    ......@@..
    ......@@..
    ......@@..
    .@@...@@..
    .@@...@@..
    ..@@.@@...
    ...@@@....
    ..........
    ..........
    ..........
    ..........

u+004b:
K:
    ..........
    ..........
    ..........
    .@@....@@.
    .@@....@@.
    .@@...@@..
    .@@...@@..
    .@@..@@...
    .@@..@@...
    .@@@@@....
    .@@..@@...
    .@@..@@...
    .@@...@@..
    .@@...@@..
    .@@....@@.
    .@@....@@.
    ..........
    ..........
    ..........
    ..........

u+004c:
L:
    ..........
    ..........
    ..........
    .@@.......
    .@@.......
    .@@.......
    .@@.......
    .@@.......
    .@@.......
    .@@.......
    .@@.......
    .@@.......
    .@@.......
    .@@.......
    .@@.......
    .@@@@@@@@.
    ..........
    ..........
    ..........
    ..........

u+004d:
M:
    ..........
    ..........
    ..........
    .@@....@@.
    .@@....@@.
    .@@@..@@@.
    .@@@..@@@.
    .@@@@@@@@.
    .@@.@@.@@.
    .@@.@@.@@.
    .@@.@@.@@.
    .@@.@@.@@.
    .@@....@@.
    .@@....@@.
    .@@....@@.
    .@@....@@.
    ..........
    ..........
    ..........
    ..........

u+004e:
N:
    ..........
    ..........
    ..........
    .@@....@@.
    .@@@...@@.
    .@@@...@@.
    .@@@@..@@.
    .@@@@..@@.
    .@@.@@.@@.
    .@@.@@.@@.
    .@@..@@@@.
    .@@..@@@@.
    .@@...@@@.
    .@@...@@@.
    .@@....@@.
    .@@....@@.
    ..........
    ..........
    ..........
    ..........

u+004f:
O:
    ..........
    ..........
    ..........
    ...@@@@...
    ..@@..@@..
    .@@....@@.
    .@@....@@.
    .@@....@@.
    .@@....@@.
    .@@....@@.
    .@@....@@.
    .@@....@@.
    .@@....@@.
    .@@....@@.
    ..@@..@@..
    ...@@@@...
    ..........
    ..........
    ..........
    ..........

u+0050:
P:
    ..........
    ..........
    ..........
    .@@@@@@...
    .@@...@@..
    .@@....@@.
    .@@....@@.
    .@@....@@.
    .@@....@@.
    .@@...@@..
    .@@@@@@...
    .@@.......
    .@@.......
    .@@.......
    .@@.......
    .@@.......
    ..........
    ..........
    ..........
    ..........

u+0051:
Q:
    ..........
    ..........
    ..........
    ...@@@@...
    ..@@..@@..
    .@@....@@.
    .@@....@@.
    .@@....@@.
    .@@....@@.
    .@@....@@.
    .@@....@@.
    .@@....@@.
    .@@.@@.@@.
    .@@..@@@@.
    ..@@..@@..
    ...@@@@@..
    .......@@.
    ..........
    ..........
    ..........

u+0052:
R:
    ..........
    ..........
    ..........
    .@@@@@@...
    .@@...@@..
    .@@....@@.
    .@@....@@.
    .@@....@@.
    .@@....@@.
    .@@...@@..
    .@@@@@@...
    .@@..@@...
    .@@...@@..
    .@@...@@..
    .@@....@@.
    .@@....@@.
    ..........
    ..........
    ..........
    ..........

u+0053:
S:
    ..........
    ..........
    ..........
    ...@@@@...
    ..@@..@@..
    .@@....@@.
    .@@.......
    .@@.......
    ..@@......
    ...@@@@...
    ......@@..
    .......@@.
    .......@@.
    .@@....@@.
    ..@@..@@..
    ...@@@@...
    ..........
    ..........
    ..........
    ..........

u+0054:
T:
    ..........
    ..........
    ..........
    .@@@@@@@@.
    ....@@....
    ....@@....
    ....@@....
    ....@@....
    ....@@....
    ....@@....
    ....@@....
    ....@@....
    ....@@....
    ....@@....
    ....@@....
    ....@@....
    ..........
    ..........
    ..........
    ..........

u+0055:
U:
    ..........
    ..........
    ..........
    .@@....@@.
    .@@....@@.
    .@@....@@.
    .@@....@@.
    .@@....@@.
    .@@....@@.
    .@@....@@.
    .@@....@@.
    .@@....@@.
    .@@....@@.
    .@@....@@.
    ..@@..@@..
    ...@@@@...
    ..........
    ..........
    ..........
    ..........

u+0056:
V:
    ..........
    ..........
    ..........
    .@@....@@.
    .@@....@@.
    .@@....@@.
    .@@....@@.
    ..@@..@@..
    ..@@..@@..
    ..@@..@@..
    ...@@@@...
    ...@@@@...
    ...@@@@...
    ....@@....
    ....@@....
    ....@@....
    ..........
    ..........
    ..........
    ..........

u+0057:
W:
    ..........
    ..........
    ..........
    .@@....@@.
    .@@....@@.
    .@@....@@.
    .@@....@@.
    .@@....@@.
    .@@.@@.@@.
    .@@.@@.@@.
    .@@.@@.@@.
    .@@.@@.@@.
    .@@@..@@@.
    .@@@..@@@.
    .@@....@@.
    .@@....@@.
    ..........
    ..........
    ..........
    ..........

u+0058:
X:
    ..........
    ..........
    ..........
    .@@....@@.
    .@@....@@.
    ..@@..@@..
    ..@@..@@..
    ...@@@@...
    ...@@@@...
    ....@@....
    ...@@@@...
    ...@@@@...
    ..@@..@@..
    ..@@..@@..
    .@@....@@.
    .@@....@@.
    ..........
    ..........
    ..........
    ..........

u+0059:
Y:
    ..........
    ..........
    ..........
    .@@....@@.
    .@@....@@.
    ..@@..@@..
    ..@@..@@..
    ...@@@@...
    ...@@@@...
    ....@@....
    ....@@....
    ....@@....
    ....@@....
    ....@@....
    ....@@....
    ....@@....
    ..........
    ..........
    ..........
    ..........

u+005a:
Z:
    ..........
    ..........
    ..........
    .@@@@@@@@.
    .......@@.
    .......@@.
    ......@@..
    .....@@...
    .....@@...
    ....@@....
    ...@@.....
    ...@@.....
    ..@@......
    .@@.......
    .@@.......
    .@@@@@@@@.
    ..........
    ..........
    ..........
    ..........

u+005b:
bracketleft:
    ..........
    ..........
    ..........
    ..@@@@@@..
    ..@@......
    ..@@......
    ..@@......
    ..@@......
    ..@@......
    ..@@......
    ..@@......
    ..@@......
    ..@@......
    ..@@......
    ..@@......
    ..@@@@@@..
    ..........
    ..........
    ..........
    ..........

u+005c:
backslash:
    ..........
    ..........
    ..........
    ..........
    ..@@......
    ..@@......
    ...@@.....
    ...@@.....
    ....@@....
    ....@@....
    .....@@...
    .....@@...
    ......@@..
    ......@@..
    .......@@.
    .......@@.
    ..........
    ..........
    ..........
    ..........

u+005d:
bracketright:
    ..........
    ..........
    ..........
    ..@@@@@@..
    ......@@..
    ......@@..
    ......@@..
    ......@@..
    ......@@..
    ......@@..
    ......@@..
    ......@@..
    ......@@..
    ......@@..
    ......@@..
    ..@@@@@@..
    ..........
    ..........
    ..........
    ..........

u+005e:
asciicircum:
    ..........
    ..........
    ..........
    ....@@....
    ...@@@@...
    ..@@..@@..
    .@@....@@.
    ..........
    ..........
    ..........
    ..........
    ..........
    ..........
    ..........
    ..........
    ..........
    ..........
    ..........
    ..........
    ..........

u+005f:
underscore:
    ..........
    ..........
    ..........
    ..........
    ..........
    ..........
    ..........
    ..........
    ..........
    ..........
    ..........
    ..........
    ..........
    ..........
    ..........
    ..........
    .@@@@@@@@@
    ..........
    ..........
    ..........

u+0060:
grave:
    ..........
    ..........
    ..........
    ...@@.....
    ....@@....
    .....@@...
    ..........
    ..........
    ..........
    ..........
    ..........
    ..........
    ..........
    ..........
    ..........
    ..........
    ..........
    ..........
    ..........
    ..........

u+0061:
a:
    ..........
    ..........
    ..........
    ..........
    ..........
    ..........
    ..........
    ..........
    ...@@@@@..
    ..@@...@@.
    .......@@.
    ..@@@@@@@.
    .@@....@@.
    .@@....@@.
    .@@....@@.
    ..@@@@@.@.
    ..........
    ..........
    ..........
    ..........

u+0062:
b:
    ..........
    ..........
    ..........
    .@@.......
    .@@.......
    .@@.......
    .@@.......
    .@@.......
    .@@.@@@...
    .@@@..@@..
    .@@....@@.
    .@@....@@.
    .@@....@@.
    .@@....@@.
    .@@@..@@..
    .@@.@@@...
    ..........
    ..........
    ..........
    ..........

u+0063:
c:
    ..........
    ..........
    ..........
    ..........
    ..........
    ..........
    ..........
    ..........
    ...@@@@@..
    ..@@...@@.
    .@@.......
    .@@.......
    .@@.......
    .@@.......
    ..@@...@@.
    ...@@@@@..
    ..........
    ..........
    ..........
    ..........

u+0064:
d:
    ..........
    ..........
    ..........
    .......@@.
    .......@@.
    .......@@.
    .......@@.
    .......@@.
    ...@@@.@@.
    ..@@..@@@.
    .@@....@@.
    .@@....@@.
    .@@....@@.
    .@@....@@.
    ..@@..@@@.
    ...@@@.@@.
    ..........
    ..........
    ..........
    ..........

u+0065:
e:
    ..........
    ..........
    ..........
    ..........
    ..........
    ..........
    ..........
    ..........
    ...@@@@...
    ..@@..@@..
    .@@....@@.
    .@@@@@@@@.
    .@@.......
    .@@.......
    ..@@...@@.
    ...@@@@@..
    ..........
    ..........
    ..........
    ..........

u+0066:
f:
    ..........
    ..........
    ..........
    ....@@@@..
    ...@@..@@.
    ...@@..@@.
    ...@@.....
    ...@@.....
    .@@@@@@...
    ...@@.....
    ...@@.....
    ...@@.....
    ...@@.....
    ...@@.....
    ...@@.....
    ...@@.....
    ..........
    ..........
    ..........
    ..........

u+0067:
g:
    ..........
    ..........
    ..........
    ..........
    ..........
    ..........
    ..........
    ..........
    ..@@@@@.@.
    .@@...@@@.
    .@@...@@..
    .@@...@@..
    .@@...@@..
    ..@@@@@...
    .@@.......
    ..@@@@@@..
    .@@....@@.
    .@@....@@.
    .@@....@@.
    ..@@@@@@..

u+0068:
h:
    ..........
    ..........
    ..........
    .@@.......
    .@@.......
    .@@.......
    .@@.......
    .@@.......
    .@@.@@@...
    .@@@..@@..
    .@@....@@.
    .@@....@@.
    .@@....@@.
    .@@....@@.
    .@@....@@.
    .@@....@@.
    ..........
    ..........
    ..........
    ..........

u+0069:
i:
    ..........
    ..........
    ..........
    ..........
    ..........
    ....@@....
    ....@@....
    ..........
    ..@@@@....
    ....@@....
    ....@@....
    ....@@....
    ....@@....
    ....@@....
    ....@@....
    .@@@@@@@@.
    ..........
    ..........
    ..........
    ..........

u+006a:
j:
    ..........
    ..........
    ..........
    ..........
    ..........
    .......@@.
    .......@@.
    ..........
    .....@@@@.
    .......@@.
    .......@@.
    .......@@.
    .......@@.
    .......@@.
    .......@@.
    .......@@.
    ..@@...@@.
    ..@@...@@.
    ..@@...@@.
    ...@@@@@..

u+006b:
k:
    ..........
    ..........
    ..........
    .@@.......
    .@@.......
    .@@.......
    .@@.......
    .@@.......
    .@@...@@..
    .@@..@@...
    .@@.@@....
    .@@@@.....
    .@@@@@....
    .@@..@@...
    .@@...@@..
    .@@....@@.
    ..........
    ..........
    ..........
    ..........

u+006c:
l:
    ..........
    ..........
    ..........
    ..@@@@....
    ....@@....
    ....@@....
    ....@@....
    ....@@....
    ....@@....
    ....@@....
    ....@@....
    ....@@....
    ....@@....
    ....@@....
    ....@@....
    .@@@@@@@@.
    ..........
    ..........
    ..........
    ..........

u+006d:
m:
    ..........
    ..........
    ..........
    ..........
    ..........
    ..........
    ..........
    ..........
    .@.@@.@@..
    .@@@@@@@@.
    .@@.@@.@@.
    .@@.@@.@@.
    .@@.@@.@@.
    .@@.@@.@@.
    .@@.@@.@@.
    .@@.@@.@@.
    ..........
    ..........
    ..........
    ..........

u+006e:
n:
    ..........
    ..........
    ..........
    ..........
    ..........
    ..........
    ..........
    ..........
    .@@.@@@...
    .@@@..@@..
    .@@....@@.
    .@@....@@.
    .@@....@@.
    .@@....@@.
    .@@....@@.
    .@@....@@.
    ..........
    ..........
    ..........
    ..........

u+006f:
o:
    ..........
    ..........
    ..........
    ..........
    ..........
    ..........
    ..........
    ..........
    ...@@@@...
    ..@@..@@..
    .@@....@@.
    .@@....@@.
    .@@....@@.
    .@@....@@.
    ..@@..@@..
    ...@@@@...
    ..........
    ..........
    ..........
    ..........

u+0070:
p:
    ..........
    ..........
    ..........
    ..........
    ..........
    ..........
    ..........
    ..........
    .@@.@@@...
    .@@@..@@..
    .@@....@@.
    .@@....@@.
    .@@....@@.
    .@@....@@.
    .@@@..@@..
    .@@.@@@...
    .@@.......
    .@@.......
    .@@.......
    .@@.......

u+0071:
q:
    ..........
    ..........
    ..........
    ..........
    ..........
    ..........
    ..........
    ..........
    ...@@@.@@.
    ..@@..@@@.
    .@@....@@.
    .@@....@@.
    .@@....@@.
    .@@....@@.
    ..@@..@@@.
    ...@@@.@@.
    .......@@.
    .......@@.
    .......@@.
    .......@@.

u+0072:
r:
    ..........
    ..........
    ..........
    ..........
    ..........
    ..........
    ..........
    ..........
    .@@.@@@@..
    ..@@@..@@.
    ..@@......
    ..@@......
    ..@@......
    ..@@......
    ..@@......
    ..@@......
    ..........
    ..........
    ..........
    ..........

u+0073:
s:
    ..........
    ..........
    ..........
    ..........
    ..........
    ..........
    ..........
    ..........
    ..@@@@@@..
    .@@....@@.
    .@@.......
    ..@@@@@@..
    .......@@.
    .......@@.
    .@@....@@.
    ..@@@@@@..
    ..........
    ..........
    ..........
    ..........

u+0074:
t:
    ..........
    ..........
    ..........
    ..........
    ..........
    ...@@.....
    ...@@.....
    ...@@.....
    .@@@@@@...
    ...@@.....
    ...@@.....
    ...@@.....
    ...@@.....
    ...@@.....
    ...@@..@@.
    ....@@@@..
    ..........
    ..........
    ..........
    ..........

u+0075:
u:
    ..........
    ..........
    ..........
    ..........
    ..........
    ..........
    ..........
    ..........
    .@@....@@.
    .@@....@@.
    .@@....@@.
    .@@....@@.
    .@@....@@.
    .@@....@@.
    ..@@..@@@.
    ...@@@.@@.
    ..........
    ..........
    ..........
    ..........

u+0076:
v:
    ..........
    ..........
    ..........
    ..........
    ..........
    ..........
    ..........
    ..........
    .@@....@@.
    .@@....@@.
    ..@@..@@..
    ..@@..@@..
    ...@@@@...
    ...@@@@...
    ....@@....
    ....@@....
    ..........
    ..........
    ..........
    ..........

u+0077:
w:
    ..........
    ..........
    ..........
    ..........
    ..........
    ..........
    ..........
    ..........
    .@@....@@.
    .@@....@@.
    .@@....@@.
    .@@.@@.@@.
    .@@.@@.@@.
    .@@.@@.@@.
    .@@@@@@@@.
    ..@@..@@..
    ..........
    ..........
    ..........
    ..........

u+0078:
x:
    ..........
    ..........
    ..........
    ..........
    ..........
    ..........
    ..........
    ..........
    .@@....@@.
    ..@@..@@..
    ...@@@@...
    ....@@....
    ....@@....
    ...@@@@...
    ..@@..@@..
    .@@....@@.
    ..........
    ..........
    ..........
    ..........

u+0079:
y:
    ..........
    ..........
    ..........
    ..........
    ..........
    ..........
    ..........
    ..........
    .@@....@@.
    .@@....@@.
    .@@....@@.
    .@@....@@.
    .@@....@@.
    .@@....@@.
    ..@@..@@@.
    ...@@@.@@.
    .......@@.
    .@@....@@.
    ..@@..@@..
    ...@@@@...

u+007a:
z:
    ..........
    ..........
    ..........
    ..........
    ..........
    ..........
    ..........
    ..........
    ..@@@@@@@.
    .......@@.
    ......@@..
    .....@@...
    ....@@....
    ...@@.....
    ..@@......
    ..@@@@@@@.
    ..........
    ..........
    ..........
    ..........

u+007b:
braceleft:
    ..........
    ..........
    ..........
    .....@@@@.
    ....@@....
    ....@@....
    ....@@....
    ....@@....
    ....@@....
    .@@@@.....
    ....@@....
    ....@@....
    ....@@....
    ....@@....
    ....@@....
    .....@@@@.
    ..........
    ..........
    ..........
    ..........

u+007c:
bar:
    ..........
    ..........
    ..........
    ....@@....
    ....@@....
    ....@@....
    ....@@....
    ....@@....
    ....@@....
    ....@@....
    ....@@....
    ....@@....
    ....@@....
    ....@@....
    ....@@....
    ....@@....
    ..........
    ..........
    ..........
    ..........

u+007d:
braceright:
    ..........
    ..........
    ..........
    .@@@@.....
    ....@@....
    ....@@....
    ....@@....
    ....@@....
    ....@@....
    .....@@@@.
    ....@@....
    ....@@....
    ....@@....
    ....@@....
    ....@@....
    .@@@@.....
    ..........
    ..........
    ..........
    ..........

u+007e:
asciitilde:
    ..........
    ..........
    ..........
    ..........
    ..........
    ..........
    ..........
    ..........
    ..@@@..@@.
    .@@.@@.@@.
    .@@..@@@..
    ..........
    ..........
    ..........
    ..........
    ..........
    ..........
    ..........
    ..........
    ..........

u+0080:
Euro:
    ..........
    ..........
    ..........
    ..........
    ..........
    ....@@@@..
    ...@@..@@.
    ..@@......
    ..@@......
    .@@@@@@@..
    ..@@......
    .@@@@@@...
    ..@@......
    ..@@......
    ...@@..@@.
    ....@@@@..
    ..........
    ..........
    ..........
    ..........

u+0082:
comma:
    ..........
    ..........
    ..........
    ..........
    ..........
    ..........
    ..........
    ..........
    ..........
    ..........
    ..........
    ..........
    ..........
    ..........
    .....@@...
    .....@@...
    ....@@....
    ..........
    ..........
    ..........

u+0083:
florin:
    ..........
    ..........
    ..........
    ....@@@@..
    ...@@..@@.
    ...@@.....
    ...@@.....
    ...@@.....
    .@@@@@@...
    ...@@.....
    ...@@.....
    ...@@.....
    ...@@.....
    ...@@.....
    ...@@.....
    ...@@.....
    ...@@.....
    @@.@@.....
    .@@@......
    ..........

u+0084:
quotedblbase:
    ..........
    ..........
    ..........
    ..........
    ..........
    ..........
    ..........
    ..........
    ..........
    ..........
    ..........
    ..........
    ..........
    ..........
    ..@@..@@..
    ..@@..@@..
    ..@@..@@..
    .@@..@@...
    ..........
    ..........

u+0085:
ellipsis:
    ..........
    ..........
    ..........
    ..........
    ..........
    ..........
    ..........
    ..........
    ..........
    ..........
    ..........
    ..........
    ..........
    ..........
    .@@.@@.@@.
    .@@.@@.@@.
    ..........
    ..........
    ..........
    ..........

u+0086:
dagger:
    ..........
    ..........
    ..........
    ....@.....
    ....@.....
    ....@.....
    ....@.....
    .@@@@@@@..
    ....@.....
    ....@.....
    ....@.....
    ....@.....
    ....@.....
    ....@.....
    ....@.....
    ....@.....
    ..........
    ..........
    ..........
    ..........

u+0087:
daggerdbl:
    ..........
    ..........
    ..........
    ....@.....
    ....@.....
    ....@.....
    ....@.....
    .@@@@@@@..
    ....@.....
    ....@.....
    .@@@@@@@..
    ....@.....
    ....@.....
    ....@.....
    ....@.....
    ....@.....
    ..........
    ..........
    ..........
    ..........

u+0088:
Acircumflex:
    ..........
    ....@@....
    ...@@@@...
    ..@@..@@..
    ..........
    ..........
    ..........
    ..........
    ..........
    ..........
    ..........
    ..........
    ..........
    ..........
    ..........
    ..........
    ..........
    ..........
    ..........
    ..........

u+0089:
perthousand:
    ..........
    ..........
    ..........
    ..........
    ...@...@@.
    ..@.@..@..
    ..@.@.@@..
    ...@..@...
    .....@@...
    .....@....
    ....@@....
    ....@.....
    ...@@.@.@.
    ...@.@.@.@
    ..@@.@.@.@
    ..@...@.@.
    ..........
    ..........
    ..........
    ..........

u+008a:
Scaron:
    ..........
    ..@@..@@..
    ...@@@@...
    ....@@....
    ..........
    ...@@@@...
    ..@@..@@..
    .@@....@@.
    .@@.......
    ..@@......
    ...@@@@...
    ......@@..
    .......@@.
    .@@....@@.
    ..@@..@@..
    ...@@@@...
    ..........
    ..........
    ..........
    ..........

u+008b:
uni27E8:
    ..........
    ..........
    ..........
    ..........
    ..........
    ..........
    .....@@...
    ....@@....
    ...@@.....
    ..@@......
    ...@@.....
    ....@@....
    .....@@...
    ..........
    ..........
    ..........
    ..........
    ..........
    ..........
    ..........

u+008c:
OE:
    ..........
    ..........
    ..........
    ...@@@@@@.
    ..@@.@@...
    .@@..@@...
    .@@..@@...
    .@@..@@...
    .@@..@@...
    .@@..@@@@.
    .@@..@@...
    .@@..@@...
    .@@..@@...
    .@@..@@...
    ..@@.@@...
    ...@@@@@@.
    ..........
    ..........
    ..........
    ..........

u+008e:
Zcaron:
    ..........
    ..@@..@@..
    ...@@@@...
    ....@@....
    ..........
    .@@@@@@@@.
    .......@@.
    ......@@..
    .....@@...
    .....@@...
    ....@@....
    ...@@.....
    ...@@.....
    ..@@......
    .@@.......
    .@@@@@@@@.
    ..........
    ..........
    ..........
    ..........

u+0091:
quotereversed:
    ..........
    ..........
    ..........
    ....@@@...
    ....@@@...
    ....@@....
    .....@@...
    ..........
    ..........
    ..........
    ..........
    ..........
    ..........
    ..........
    ..........
    ..........
    ..........
    ..........
    ..........
    ..........

u+0092:
quoteright:
    ..........
    ..........
    ..........
    ....@@@...
    ....@@@...
    .....@@...
    ....@@....
    ..........
    ..........
    ..........
    ..........
    ..........
    ..........
    ..........
    ..........
    ..........
    ..........
    ..........
    ..........
    ..........

u+0093:
uni201F:
    ..........
    ..........
    ..........
    ..@@@.@@@.
    ..@@@.@@@.
    ..@@..@@..
    ...@@..@@.
    ..........
    ..........
    ..........
    ..........
    ..........
    ..........
    ..........
    ..........
    ..........
    ..........
    ..........
    ..........
    ..........

u+0094:
quotedblright:
    ..........
    ..........
    ..........
    .@@@.@@@..
    .@@@.@@@..
    ..@@..@@..
    .@@..@@...
    ..........
    ..........
    ..........
    ..........
    ..........
    ..........
    ..........
    ..........
    ..........
    ..........
    ..........
    ..........
    ..........

u+0095:
uni25C6:
    ..........
    ..........
    ..........
    ..........
    ..........
    ..........
    ..........
    ....@.....
    ...@@@....
    ..@@@@@...
    .@@@@@@@..
    ..@@@@@...
    ...@@@....
    ....@.....
    ..........
    ..........
    ..........
    ..........
    ..........
    ..........

u+0096:
endash:
    ..........
    ..........
    ..........
    ..........
    ..........
    ..........
    ..........
    ..........
    ..........
    ..@@@@@@..
    ..........
    ..........
    ..........
    ..........
    ..........
    ..........
    ..........
    ..........
    ..........
    ..........

u+0097:
emdash:
    ..........
    ..........
    ..........
    ..........
    ..........
    ..........
    ..........
    ..........
    ..........
    @@@@@@@@@.
    ..........
    ..........
    ..........
    ..........
    ..........
    ..........
    ..........
    ..........
    ..........
    ..........

u+0098:
asciitilde:
    ..........
    ..........
    ..........
    ..@@@..@@.
    .@@.@@.@@.
    .@@..@@@..
    ..........
    ..........
    ..........
    ..........
    ..........
    ..........
    ..........
    ..........
    ..........
    ..........
    ..........
    ..........
    ..........
    ..........

u+0099:
trademark:
    ..........
    ..........
    .@@@.@...@
    ..@..@@.@@
    ..@..@.@.@
    ..@..@...@
    ..@..@...@
    ..........
    ..........
    ..........
    ..........
    ..........
    ..........
    ..........
    ..........
    ..........
    ..........
    ..........
    ..........
    ..........

u+009a:
scaron:
    ..........
    ..........
    ..........
    ..........
    ..@@..@@..
    ...@@@@...
    ....@@....
    ..........
    ..@@@@@@..
    .@@....@@.
    .@@.......
    ..@@@@@@..
    .......@@.
    .......@@.
    .@@....@@.
    ..@@@@@@..
    ..........
    ..........
    ..........
    ..........

u+009b:
uni27E8:
    ..........
    ..........
    ..........
    ..........
    ..........
    ..........
    ..@@......
    ...@@.....
    ....@@....
    .....@@...
    ....@@....
    ...@@.....
    ..@@......
    ..........
    ..........
    ..........
    ..........
    ..........
    ..........
    ..........

u+009c:
oe:
    ..........
    ..........
    ..........
    ..........
    ..........
    ..........
    ..........
    ..........
    ..@@@@@@..
    .@@.@@.@@.
    .@@.@@.@@.
    .@@.@@@@@.
    .@@.@@....
    .@@.@@....
    .@@.@@.@@.
    ..@@@@@@..
    ..........
    ..........
    ..........
    ..........

u+009e:
zcaron:
    ..........
    ..........
    ..........
    ..........
    ..@@..@@..
    ...@@@@...
    ....@@....
    ..........
    ..@@@@@@@.
    .......@@.
    ......@@..
    .....@@...
    ....@@....
    ...@@.....
    ..@@......
    ..@@@@@@@.
    ..........
    ..........
    ..........
    ..........

u+009f:
Ydieresis:
    ..........
    ..@@..@@..
    ..@@..@@..
    ..........
    .@@....@@.
    .@@....@@.
    ..@@..@@..
    ..@@..@@..
    ...@@@@...
    ...@@@@...
    ....@@....
    ....@@....
    ....@@....
    ....@@....
    ....@@....
    ....@@....
    ..........
    ..........
    ..........
    ..........

u+00a0:
space:
    ..........
    ..........
    ..........
    ..........
    ..........
    ..........
    ..........
    ..........
    ..........
    ..........
    ..........
    ..........
    ..........
    ..........
    ..........
    ..........
    ..........
    ..........
    ..........
    ..........

u+00a1:
exclamdown:
    ..........
    ..........
    ..........
    ....@@....
    ....@@....
    ..........
    ....@@....
    ....@@....
    ....@@....
    ....@@....
    ....@@....
    ....@@....
    ....@@....
    ....@@....
    ....@@....
    ....@@....
    ..........
    ..........
    ..........
    ..........

u+00a2:
cent:
    ..........
    ..........
    ..........
    ..........
    ....@@....
    ....@@....
    ...@@@@...
    ..@@..@@..
    .@@....@..
    .@@.......
    .@@.......
    .@@....@..
    ..@@..@@..
    ...@@@@...
    ....@@....
    ....@@....
    ..........
    ..........
    ..........
    ..........

u+00a3:
sterling:
    ..........
    ..........
    ..........
    ..........
    ....@@@@..
    ...@@..@@.
    ...@@..@@.
    ...@@.....
    ...@@.....
    .@@@@@@...
    ...@@.....
    ...@@.....
    ...@@.....
    .@@@@@....
    .@.@.@@.@@
    .@@@..@@@.
    ..........
    ..........
    ..........
    ..........

u+00a4:
currency:
    ..........
    ..........
    ..........
    ..........
    ..........
    ..........
    @.......@.
    @@.@@@.@@.
    .@@@@@@@..
    .@@...@@..
    .@@...@@..
    .@@...@@..
    .@@@@@@@..
    @@.@@@.@@.
    @.......@.
    ..........
    ..........
    ..........
    ..........
    ..........

u+00a5:
yen:
    ..........
    ..........
    ..........
    ..........
    ..........
    .@......@.
    .@@....@@.
    ..@@..@@..
    ...@@@@...
    ..@@@@@@..
    ....@@....
    ..@@@@@@..
    ....@@....
    ....@@....
    ....@@....
    ....@@....
    ..........
    ..........
    ..........
    ..........

u+00a6:
brokenbar:
    ..........
    ..........
    ..........
    ....@@....
    ....@@....
    ....@@....
    ....@@....
    ....@@....
    ..........
    ..........
    ..........
    ....@@....
    ....@@....
    ....@@....
    ....@@....
    ....@@....
    ..........
    ..........
    ..........
    ..........

u+00a7:
section:
    ..........
    ..........
    ..........
    ...@@@@...
    ..@@..@@..
    .@@...@@..
    ..@@......
    ..@@@@....
    .@@..@@...
    ..@@..@@..
    ...@@..@@.
    ....@@@@..
    ......@@..
    ..@@...@@.
    ..@@..@@..
    ...@@@@...
    ..........
    ..........
    ..........
    ..........

u+00a8:
dieresis:
    ..........
    ..........
    ..........
    ..@@..@@..
    ..@@..@@..
    ..........
    ..........
    ..........
    ..........
    ..........
    ..........
    ..........
    ..........
    ..........
    ..........
    ..........
    ..........
    ..........
    ..........
    ..........

u+00a9:
copyright:
    ..........
    ..........
    ..........
    ..........
    ..........
    ...@@@@...
    ..@@..@@..
    .@@....@@.
    .@..@@..@.
    .@.@..@.@.
    .@.@....@.
    .@.@..@.@.
    .@..@@..@.
    .@@....@@.
    ..@@..@@..
    ...@@@@...
    ..........
    ..........
    ..........
    ..........

u+00aa:
ordfeminine:
    ..........
    ..........
    ..........
    ...@@@@@..
    ..@....@@.
    .......@@.
    ..@@@@@@@.
    .@@....@@.
    .@@....@@.
    ..@@@@@.@.
    ..........
    .@@@@@@@@.
    ..........
    ..........
    ..........
    ..........
    ..........
    ..........
    ..........
    ..........

u+00ab:
guillemotleft:
    ..........
    ..........
    ..........
    ..........
    ..........
    .....@..@.
    ....@@.@@.
    ...@@.@@..
    ..@@.@@...
    .@@.@@....
    @@.@@.....
    .@@.@@....
    ..@@.@@...
    ...@@.@@..
    ....@@.@@.
    .....@..@.
    ..........
    ..........
    ..........
    ..........

u+00ac:
logicalnot:
    ..........
    ..........
    ..........
    ..........
    ..........
    ..........
    ..........
    ..........
    .@@@@@@@@.
    .@@@@@@@@.
    .......@@.
    .......@@.
    .......@@.
    ..........
    ..........
    ..........
    ..........
    ..........
    ..........
    ..........

u+00ad:
hyphen:
    ..........
    ..........
    ..........
    ..........
    ..........
    ..........
    ..........
    ..........
    ..........
    ..@@@@@@..
    ..........
    ..........
    ..........
    ..........
    ..........
    ..........
    ..........
    ..........
    ..........
    ..........

u+00ae:
registered:
    ..........
    ..........
    ..........
    ..........
    ..........
    ...@@@@...
    ..@@..@@..
    .@@....@@.
    .@.@@@@.@.
    .@.@..@.@.
    .@.@@@@.@.
    .@.@.@..@.
    .@.@.@@.@.
    .@@....@@.
    ..@@..@@..
    ...@@@@...
    ..........
    ..........
    ..........
    ..........

u+00af:
macron:
    ..........
    ..........
    .@@@@@@@@.
    ..........
    ..........
    ..........
    ..........
    ..........
    ..........
    ..........
    ..........
    ..........
    ..........
    ..........
    ..........
    ..........
    ..........
    ..........
    ..........
    ..........

u+00b0:
degree:
    ..........
    ..........
    ..........
    ....@@....
    ...@@@@...
    ..@@..@@..
    ..@@..@@..
    ...@@@@...
    ....@@....
    ..........
    ..........
    ..........
    ..........
    ..........
    ..........
    ..........
    ..........
    ..........
    ..........
    ..........

u+00b1:
plusminus:
    ..........
    ..........
    ..........
    ..........
    ..........
    ..........
    ..........
    ....@@....
    ....@@....
    .@@@@@@@@.
    ....@@....
    ....@@....
    ..........
    .@@@@@@@@.
    ..........
    ..........
    ..........
    ..........
    ..........
    ..........

u+00b2:
twosuperior:
    ..........
    ..........
    ..........
    ...@@@....
    ..@@.@@...
    .....@@...
    ....@@....
    ...@@.....
    ..@@......
    ..@@@@@...
    ..........
    ..........
    ..........
    ..........
    ..........
    ..........
    ..........
    ..........
    ..........
    ..........

u+00b3:
threesuperior:
    ..........
    ..........
    ..........
    ...@@@....
    ..@@.@@...
    .....@@...
    ....@@....
    .....@@...
    ..@@.@@...
    ...@@@....
    ..........
    ..........
    ..........
    ..........
    ..........
    ..........
    ..........
    ..........
    ..........
    ..........

u+00b4:
acute:
    ..........
    ..........
    ..........
    .....@@...
    ....@@....
    ...@@.....
    ..........
    ..........
    ..........
    ..........
    ..........
    ..........
    ..........
    ..........
    ..........
    ..........
    ..........
    ..........
    ..........
    ..........

u+00b5:
mu:
    ..........
    ..........
    ..........
    ..........
    ..........
    ..........
    ..........
    ..........
    ..........
    .@@...@@..
    .@@...@@..
    .@@...@@..
    .@@...@@..
    .@@...@@..
    .@@@.@@@..
    .@@@@@.@..
    .@@.......
    .@@.......
    .@@.......
    ..........

u+00b6:
paragraph:
    ..........
    ..........
    ..........
    ..@@@@@@@.
    .@@@@@@@@.
    .@@@@@.@@.
    .@@@@@.@@.
    .@@@@@.@@.
    ..@@@@.@@.
    ....@@.@@.
    ....@@.@@.
    ....@@.@@.
    ....@@.@@.
    ....@@.@@.
    ....@@.@@.
    ....@@.@@.
    ..........
    ..........
    ..........
    ..........

u+00b7:
periodcentered:
    ..........
    ..........
    ..........
    ..........
    ..........
    ..........
    ..........
    ..........
    ....@@@...
    ....@@@...
    ....@@@...
    ..........
    ..........
    ..........
    ..........
    ..........
    ..........
    ..........
    ..........
    ..........

u+00b8:
cedilla:
    ..........
    ..........
    ..........
    ..........
    ..........
    ..........
    ..........
    ..........
    ..........
    ..........
    ..........
    ..........
    ..........
    ..........
    ..........
    ..........
    ....@@....
    .....@@...
    ..@@.@@...
    ...@@@....

u+00b9:
onesuperior:
    ..........
    ..........
    ..........
    ...@@.....
    ..@@@.....
    ...@@.....
    ...@@.....
    ...@@.....
    ...@@.....
    ..@@@@....
    ..........
    ..........
    ..........
    ..........
    ..........
    ..........
    ..........
    ..........
    ..........
    ..........

u+00ba:
ordmasculine:
    ..........
    ..........
    ..........
    ...@@@....
    ..@@.@@...
    .@@...@@..
    .@@...@@..
    .@@...@@..
    ..@@.@@...
    ...@@@....
    ..........
    .@@@@@@@..
    ..........
    ..........
    ..........
    ..........
    ..........
    ..........
    ..........
    ..........

u+00bb:
guillemotright:
    ..........
    ..........
    ..........
    ..........
    ..........
    .@..@.....
    .@@.@@....
    ..@@.@@...
    ...@@.@@..
    ....@@.@@.
    .....@@.@@
    ....@@.@@.
    ...@@.@@..
    ..@@.@@...
    .@@.@@....
    .@..@.....
    ..........
    ..........
    ..........
    ..........

u+00bc:
onequarter:
    ..........
    ..........
    ..........
    ..@.......
    .@@.......
    ..@.....@.
    ..@....@..
    .@@@..@...
    .....@....
    ....@..@..
    ...@..@@..
    ..@..@.@..
    .@..@@@@..
    .......@..
    .......@..
    ..........
    ..........
    ..........
    ..........
    ..........

u+00bd:
onehalf:
    ..........
    ..........
    ..........
    ..@.......
    .@@.......
    ..@.....@.
    ..@....@..
    .@@@..@...
    .....@....
    ....@.@@..
    ...@.@..@.
    ..@.....@.
    .@.....@..
    ......@...
    .....@@@@.
    ..........
    ..........
    ..........
    ..........
    ..........

u+00be:
threequarters:
    ..........
    ..........
    ..........
    .@@@......
    ....@.....
    ..@@....@.
    ....@..@..
    .@@@..@...
    .....@....
    ....@..@..
    ...@..@@..
    ..@..@.@..
    .@..@@@@@.
    .......@..
    .......@..
    ..........
    ..........
    ..........
    ..........
    ..........

u+00bf:
questiondown:
    ..........
    ..........
    ..........
    ....@@....
    ....@@....
    ..........
    ....@@....
    ....@@....
    ....@@....
    ...@@.....
    ..@@......
    .@@....@@.
    .@@....@@.
    .@@....@@.
    ..@@..@@..
    ...@@@@...
    ..........
    ..........
    ..........
    ..........

u+00c0:
Agrave:
    ..........
    ..@@......
    ...@@.....
    ....@@....
    ..........
    ....@@....
    ...@@@@...
    ..@@..@@..
    .@@....@@.
    .@@....@@.
    .@@....@@.
    .@@@@@@@@.
    .@@....@@.
    .@@....@@.
    .@@....@@.
    .@@....@@.
    ..........
    ..........
    ..........
    ..........

u+00c1:
Aacute:
    ..........
    ......@@..
    .....@@...
    ....@@....
    ..........
    ....@@....
    ...@@@@...
    ..@@..@@..
    .@@....@@.
    .@@....@@.
    .@@....@@.
    .@@@@@@@@.
    .@@....@@.
    .@@....@@.
    .@@....@@.
    .@@....@@.
    ..........
    ..........
    ..........
    ..........

u+00c2:
Acircumflex:
    ..........
    ....@@....
    ...@@@@...
    ..@@..@@..
    ..........
    ....@@....
    ...@@@@...
    ..@@..@@..
    .@@....@@.
    .@@....@@.
    .@@....@@.
    .@@@@@@@@.
    .@@....@@.
    .@@....@@.
    .@@....@@.
    .@@....@@.
    ..........
    ..........
    ..........
    ..........

u+00c3:
Atilde:
    ..........
    ...@@..@..
    ..@@@@@@..
    ..@..@@...
    ..........
    ....@@....
    ...@@@@...
    ..@@..@@..
    .@@....@@.
    .@@....@@.
    .@@....@@.
    .@@@@@@@@.
    .@@....@@.
    .@@....@@.
    .@@....@@.
    .@@....@@.
    ..........
    ..........
    ..........
    ..........

u+00c4:
Adieresis:
    ..........
    ..@@..@@..
    ..@@..@@..
    ..........
    ....@@....
    ...@@@@...
    ..@@..@@..
    ..@@..@@..
    .@@....@@.
    .@@....@@.
    .@@....@@.
    .@@@@@@@@.
    .@@....@@.
    .@@....@@.
    .@@....@@.
    .@@....@@.
    ..........
    ..........
    ..........
    ..........

u+00c5:
Aring:
    ...@@@@...
    ..@@..@@..
    ..@@..@@..
    ...@@@@...
    ..........
    ....@@....
    ...@@@@...
    ..@@..@@..
    .@@....@@.
    .@@....@@.
    .@@....@@.
    .@@@@@@@@.
    .@@....@@.
    .@@....@@.
    .@@....@@.
    .@@....@@.
    ..........
    ..........
    ..........
    ..........

u+00c6:
AE:
    ..........
    ..........
    ..........
    ....@@@@@.
    ...@@@@...
    ..@@.@@...
    ..@@.@@...
    .@@..@@...
    .@@..@@...
    .@@@@@@@@.
    .@@..@@...
    .@@..@@...
    .@@..@@...
    .@@..@@...
    .@@..@@...
    .@@..@@@@.
    ..........
    ..........
    ..........
    ..........

u+00c7:
Ccedilla:
    ..........
    ..........
    ..........
    ...@@@@...
    ..@@..@@..
    .@@....@@.
    .@@.......
    .@@.......
    .@@.......
    .@@.......
    .@@.......
    .@@.......
    .@@.......
    .@@....@@.
    ..@@..@@..
    ...@@@@...
    ....@@....
    .....@@...
    ..@@.@@...
    ...@@@....

u+00c8:
Egrave:
    ..........
    ..@@......
    ...@@.....
    ....@@....
    ..........
    .@@@@@@@@.
    .@@.......
    .@@.......
    .@@.......
    .@@.......
    .@@@@@@...
    .@@.......
    .@@.......
    .@@.......
    .@@.......
    .@@@@@@@@.
    ..........
    ..........
    ..........
    ..........

u+00c9:
Eacute:
    ..........
    .....@@...
    ....@@....
    ...@@.....
    ..........
    .@@@@@@@@.
    .@@.......
    .@@.......
    .@@.......
    .@@.......
    .@@@@@@...
    .@@.......
    .@@.......
    .@@.......
    .@@.......
    .@@@@@@@@.
    ..........
    ..........
    ..........
    ..........

u+00ca:
Ecircumflex:
    ..........
    ....@@....
    ...@@@@...
    ..@@..@@..
    ..........
    .@@@@@@@@.
    .@@.......
    .@@.......
    .@@.......
    .@@.......
    .@@@@@@...
    .@@.......
    .@@.......
    .@@.......
    .@@.......
    .@@@@@@@@.
    ..........
    ..........
    ..........
    ..........

u+00cb:
Edieresis:
    ..........
    ..@@..@@..
    ..@@..@@..
    ..........
    ..........
    .@@@@@@@@.
    .@@.......
    .@@.......
    .@@.......
    .@@.......
    .@@@@@@...
    .@@.......
    .@@.......
    .@@.......
    .@@.......
    .@@@@@@@@.
    ..........
    ..........
    ..........
    ..........

u+00cc:
Igrave:
    ..........
    ...@@.....
    ....@@....
    .....@@...
    ..........
    ..@@@@@@..
    ....@@....
    ....@@....
    ....@@....
    ....@@....
    ....@@....
    ....@@....
    ....@@....
    ....@@....
    ....@@....
    ..@@@@@@..
    ..........
    ..........
    ..........
    ..........

u+00cd:
Iacute:
    ..........
    .....@@...
    ....@@....
    ...@@.....
    ..........
    ..@@@@@@..
    ....@@....
    ....@@....
    ....@@....
    ....@@....
    ....@@....
    ....@@....
    ....@@....
    ....@@....
    ....@@....
    ..@@@@@@..
    ..........
    ..........
    ..........
    ..........

u+00ce:
Icircumflex:
    ..........
    ....@@....
    ...@@@@...
    ..@@..@@..
    ..........
    ..@@@@@@..
    ....@@....
    ....@@....
    ....@@....
    ....@@....
    ....@@....
    ....@@....
    ....@@....
    ....@@....
    ....@@....
    ..@@@@@@..
    ..........
    ..........
    ..........
    ..........

u+00cf:
Idieresis:
    ..........
    ..@@..@@..
    ..@@..@@..
    ..........
    ..@@@@@@..
    ....@@....
    ....@@....
    ....@@....
    ....@@....
    ....@@....
    ....@@....
    ....@@....
    ....@@....
    ....@@....
    ....@@....
    ..@@@@@@..
    ..........
    ..........
    ..........
    ..........

u+00d0:
Eth:
    ..........
    ..........
    ..........
    .@@@@@@...
    .@@...@@..
    .@@....@@.
    .@@....@@.
    .@@....@@.
    .@@....@@.
    @@@@@..@@.
    .@@....@@.
    .@@....@@.
    .@@....@@.
    .@@....@@.
    .@@...@@..
    .@@@@@@...
    ..........
    ..........
    ..........
    ..........

u+00d1:
Ntilde:
    ..........
    ...@@..@..
    ..@@@@@@..
    ..@..@@...
    ..........
    .@@....@@.
    .@@@...@@.
    .@@@@..@@.
    .@@@@..@@.
    .@@.@@.@@.
    .@@.@@.@@.
    .@@..@@@@.
    .@@..@@@@.
    .@@...@@@.
    .@@....@@.
    .@@....@@.
    ..........
    ..........
    ..........
    ..........

u+00d2:
Ograve:
    ..........
    ...@@.....
    ....@@....
    .....@@...
    ..........
    ...@@@@...
    ..@@..@@..
    .@@....@@.
    .@@....@@.
    .@@....@@.
    .@@....@@.
    .@@....@@.
    .@@....@@.
    .@@....@@.
    ..@@..@@..
    ...@@@@...
    ..........
    ..........
    ..........
    ..........

u+00d3:
Oacute:
    ..........
    .....@@...
    ....@@....
    ...@@.....
    ..........
    ...@@@@...
    ..@@..@@..
    .@@....@@.
    .@@....@@.
    .@@....@@.
    .@@....@@.
    .@@....@@.
    .@@....@@.
    .@@....@@.
    ..@@..@@..
    ...@@@@...
    ..........
    ..........
    ..........
    ..........

u+00d4:
Ocircumflex:
    ..........
    ....@@....
    ...@@@@...
    ..@@..@@..
    ..........
    ...@@@@...
    ..@@..@@..
    .@@....@@.
    .@@....@@.
    .@@....@@.
    .@@....@@.
    .@@....@@.
    .@@....@@.
    .@@....@@.
    ..@@..@@..
    ...@@@@...
    ..........
    ..........
    ..........
    ..........

u+00d5:
Otilde:
    ..........
    ...@@..@..
    ..@@@@@@..
    ..@..@@...
    ..........
    ...@@@@...
    ..@@..@@..
    .@@....@@.
    .@@....@@.
    .@@....@@.
    .@@....@@.
    .@@....@@.
    .@@....@@.
    .@@....@@.
    ..@@..@@..
    ...@@@@...
    ..........
    ..........
    ..........
    ..........

u+00d6:
Odieresis:
    ..........
    ..@@..@@..
    ..@@..@@..
    ..........
    ...@@@@...
    ..@@..@@..
    .@@....@@.
    .@@....@@.
    .@@....@@.
    .@@....@@.
    .@@....@@.
    .@@....@@.
    .@@....@@.
    .@@....@@.
    ..@@..@@..
    ...@@@@...
    ..........
    ..........
    ..........
    ..........

u+00d7:
multiply:
    ..........
    ..........
    ..........
    ..........
    ..........
    ..........
    ..........
    ..........
    .@.....@..
    .@@...@@..
    ..@@.@@...
    ...@@@....
    ...@@@....
    ..@@.@@...
    .@@...@@..
    .@.....@..
    ..........
    ..........
    ..........
    ..........

u+00d8:
Oslash:
    ..........
    ..........
    ........@.
    ...@@@@@..
    ..@@..@@..
    .@@...@@@.
    .@@...@@@.
    .@@..@.@@.
    .@@..@.@@.
    .@@..@.@@.
    .@@.@..@@.
    .@@.@..@@.
    .@@.@..@@.
    .@@@...@@.
    ..@@..@@..
    ..@@@@@...
    .@........
    ..........
    ..........
    ..........

u+00d9:
Ugrave:
    ..........
    ...@@.....
    ....@@....
    .....@@...
    ..........
    .@@....@@.
    .@@....@@.
    .@@....@@.
    .@@....@@.
    .@@....@@.
    .@@....@@.
    .@@....@@.
    .@@....@@.
    .@@....@@.
    ..@@..@@..
    ...@@@@...
    ..........
    ..........
    ..........
    ..........

u+00da:
Uacute:
    ..........
    .....@@...
    ....@@....
    ...@@.....
    ..........
    .@@....@@.
    .@@....@@.
    .@@....@@.
    .@@....@@.
    .@@....@@.
    .@@....@@.
    .@@....@@.
    .@@....@@.
    .@@....@@.
    ..@@..@@..
    ...@@@@...
    ..........
    ..........
    ..........
    ..........

u+00db:
Ucircumflex:
    ..........
    ....@@....
    ...@@@@...
    ..@@..@@..
    ..........
    .@@....@@.
    .@@....@@.
    .@@....@@.
    .@@....@@.
    .@@....@@.
    .@@....@@.
    .@@....@@.
    .@@....@@.
    .@@....@@.
    ..@@..@@..
    ...@@@@...
    ..........
    ..........
    ..........
    ..........

u+00dc:
Udieresis:
    ..........
    ..@@..@@..
    ..@@..@@..
    ..........
    .@@....@@.
    .@@....@@.
    .@@....@@.
    .@@....@@.
    .@@....@@.
    .@@....@@.
    .@@....@@.
    .@@....@@.
    .@@....@@.
    .@@....@@.
    ..@@..@@..
    ...@@@@...
    ..........
    ..........
    ..........
    ..........

u+00dd:
Yacute:
    ..........
    .....@@...
    ....@@....
    ...@@.....
    ..........
    .@@....@@.
    .@@....@@.
    ..@@..@@..
    ..@@..@@..
    ...@@@@...
    ...@@@@...
    ....@@....
    ....@@....
    ....@@....
    ....@@....
    ....@@....
    ..........
    ..........
    ..........
    ..........

u+00de:
Thorn:
    ..........
    ..........
    ..........
    ..@@......
    ..@@......
    ..@@......
    ..@@@@@@..
    ..@@...@@.
    ..@@...@@.
    ..@@...@@.
    ..@@...@@.
    ..@@...@@.
    ..@@@@@@..
    ..@@......
    ..@@......
    ..@@......
    ..........
    ..........
    ..........
    ..........

u+00df:
germandbls:
    ..........
    ..........
    ..........
    ....@@@...
    ...@@.@@..
    ..@@...@@.
    ..@@...@@.
    ..@@..@@..
    .@@@.@@...
    ..@@.@@...
    ..@@..@@..
    ..@@...@@.
    ..@@...@@.
    ..@@...@@.
    ..@@..@@..
    ..@@.@@...
    ..........
    ..........
    ..........
    ..........

u+00e0:
agrave:
    ..........
    ..........
    ..........
    ..........
    ...@@.....
    ....@@....
    .....@@...
    ..........
    ..@@@@@@..
    .@@....@@.
    .......@@.
    ..@@@@@@@.
    .@@....@@.
    .@@....@@.
    .@@....@@.
    ..@@@@@.@.
    ..........
    ..........
    ..........
    ..........

u+00e1:
aacute:
    ..........
    ..........
    ..........
    ..........
    .....@@...
    ....@@....
    ...@@.....
    ..........
    ..@@@@@@..
    .@@....@@.
    .......@@.
    ..@@@@@@@.
    .@@....@@.
    .@@....@@.
    .@@....@@.
    ..@@@@@.@.
    ..........
    ..........
    ..........
    ..........

u+00e2:
acircumflex:
    ..........
    ..........
    ..........
    ..........
    ....@@....
    ...@@@@...
    ..@@..@@..
    ..........
    ..@@@@@@..
    .@@....@@.
    .......@@.
    ..@@@@@@@.
    .@@....@@.
    .@@....@@.
    .@@....@@.
    ..@@@@@.@.
    ..........
    ..........
    ..........
    ..........

u+00e3:
atilde:
    ..........
    ..........
    ..........
    ..........
    ...@@..@..
    ..@@@@@@..
    ..@..@@...
    ..........
    ..@@@@@@..
    .@@....@@.
    .......@@.
    ..@@@@@@@.
    .@@....@@.
    .@@....@@.
    .@@....@@.
    ..@@@@@.@.
    ..........
    ..........
    ..........
    ..........

u+00e4:
adieresis:
    ..........
    ..........
    ..........
    ..........
    ..........
    ..@@..@@..
    ..@@..@@..
    ..........
    ..@@@@@@..
    .@@....@@.
    .......@@.
    ..@@@@@@@.
    .@@....@@.
    .@@....@@.
    .@@....@@.
    ..@@@@@.@.
    ..........
    ..........
    ..........
    ..........

u+00e5:
aring:
    ..........
    ..........
    ..........
    ...@@@@...
    ..@@..@@..
    ..@@..@@..
    ...@@@@...
    ..........
    ..@@@@@@..
    .@@....@@.
    .......@@.
    ..@@@@@@@.
    .@@....@@.
    .@@....@@.
    .@@....@@.
    ..@@@@@.@.
    ..........
    ..........
    ..........
    ..........

u+00e6:
ae:
    ..........
    ..........
    ..........
    ..........
    ..........
    ..........
    ..........
    ..........
    ..@@@.@@..
    .@..@@.@@.
    ....@@.@@.
    ....@@@@..
    ..@@@@....
    .@@.@@....
    .@@.@@..@.
    ..@@.@@@..
    ..........
    ..........
    ..........
    ..........

u+00e7:
ccedilla:
    ..........
    ..........
    ..........
    ..........
    ..........
    ..........
    ..........
    ..........
    ...@@@@@..
    ..@@...@@.
    .@@.......
    .@@.......
    .@@.......
    .@@.......
    ..@@...@@.
    ...@@@@@..
    ....@@....
    .....@@...
    ..@@.@@...
    ...@@@....

u+00e8:
egrave:
    ..........
    ..........
    ..........
    ..........
    ..@@......
    ...@@.....
    ....@@....
    ..........
    ...@@@@...
    ..@@..@@..
    .@@....@@.
    .@@@@@@@@.
    .@@.......
    .@@.......
    ..@@...@@.
    ...@@@@@..
    ..........
    ..........
    ..........
    ..........

u+00e9:
eacute:
    ..........
    ..........
    ..........
    ..........
    ......@@..
    .....@@...
    ....@@....
    ..........
    ...@@@@...
    ..@@..@@..
    .@@....@@.
    .@@@@@@@@.
    .@@.......
    .@@.......
    ..@@...@@.
    ...@@@@@..
    ..........
    ..........
    ..........
    ..........

u+00ea:
ecircumflex:
    ..........
    ..........
    ..........
    ..........
    ....@@....
    ...@@@@...
    ..@@..@@..
    ..........
    ...@@@@...
    ..@@..@@..
    .@@....@@.
    .@@@@@@@@.
    .@@.......
    .@@.......
    ..@@...@@.
    ...@@@@@..
    ..........
    ..........
    ..........
    ..........

u+00eb:
edieresis:
    ..........
    ..........
    ..........
    ..........
    ..........
    ..@@..@@..
    ..@@..@@..
    ..........
    ...@@@@...
    ..@@..@@..
    .@@....@@.
    .@@@@@@@@.
    .@@.......
    .@@.......
    ..@@...@@.
    ...@@@@@..
    ..........
    ..........
    ..........
    ..........

u+00ec:
igrave:
    ..........
    ..........
    ..........
    ..........
    ..@@......
    ...@@.....
    ....@@....
    ..........
    ..@@@@....
    ....@@....
    ....@@....
    ....@@....
    ....@@....
    ....@@....
    ....@@....
    .@@@@@@@@.
    ..........
    ..........
    ..........
    ..........

u+00ed:
iacute:
    ..........
    ..........
    ..........
    ..........
    .....@@...
    ....@@....
    ...@@.....
    ..........
    ..@@@@....
    ....@@....
    ....@@....
    ....@@....
    ....@@....
    ....@@....
    ....@@....
    .@@@@@@@@.
    ..........
    ..........
    ..........
    ..........

u+00ee:
icircumflex:
    ..........
    ..........
    ..........
    ..........
    ....@@....
    ...@@@@...
    ..@@..@@..
    ..........
    ..@@@@....
    ....@@....
    ....@@....
    ....@@....
    ....@@....
    ....@@....
    ....@@....
    .@@@@@@@@.
    ..........
    ..........
    ..........
    ..........

u+00ef:
idieresis:
    ..........
    ..........
    ..........
    ..........
    ..........
    ..@@..@@..
    ..@@..@@..
    ..........
    ..@@@@....
    ....@@....
    ....@@....
    ....@@....
    ....@@....
    ....@@....
    ....@@....
    .@@@@@@@@.
    ..........
    ..........
    ..........
    ..........

u+00f0:
eth:
    ..........
    ..........
    ..........
    .@...@....
    .@@.@@....
    ..@@@.....
    ..@@@.....
    .@@.@@....
    .@...@@...
    ...@@@@@..
    ..@@..@@@.
    .@@....@@.
    .@@....@@.
    .@@....@@.
    ..@@..@@..
    ...@@@@...
    ..........
    ..........
    ..........
    ..........

u+00f1:
ntilde:
    ..........
    ..........
    ..........
    ..........
    ...@@..@..
    ..@@@@@@..
    ..@..@@...
    ..........
    .@@.@@@...
    .@@@..@@..
    .@@....@@.
    .@@....@@.
    .@@....@@.
    .@@....@@.
    .@@....@@.
    .@@....@@.
    ..........
    ..........
    ..........
    ..........

u+00f2:
ograve:
    ..........
    ..........
    ..........
    ..........
    ..@@......
    ...@@.....
    ....@@....
    ..........
    ...@@@@...
    ..@@..@@..
    .@@....@@.
    .@@....@@.
    .@@....@@.
    .@@....@@.
    ..@@..@@..
    ...@@@@...
    ..........
    ..........
    ..........
    ..........

u+00f3:
oacute:
    ..........
    ..........
    ..........
    ..........
    ......@@..
    .....@@...
    ....@@....
    ..........
    ...@@@@...
    ..@@..@@..
    .@@....@@.
    .@@....@@.
    .@@....@@.
    .@@....@@.
    ..@@..@@..
    ...@@@@...
    ..........
    ..........
    ..........
    ..........

u+00f4:
ocircumflex:
    ..........
    ..........
    ..........
    ..........
    ....@@....
    ...@@@@...
    ..@@..@@..
    ..........
    ...@@@@...
    ..@@..@@..
    .@@....@@.
    .@@....@@.
    .@@....@@.
    .@@....@@.
    ..@@..@@..
    ...@@@@...
    ..........
    ..........
    ..........
    ..........

u+00f5:
otilde:
    ..........
    ..........
    ..........
    ..........
    ...@@..@..
    ..@@@@@@..
    ..@..@@...
    ..........
    ...@@@@...
    ..@@..@@..
    .@@....@@.
    .@@....@@.
    .@@....@@.
    .@@....@@.
    ..@@..@@..
    ...@@@@...
    ..........
    ..........
    ..........
    ..........

u+00f6:
odieresis:
    ..........
    ..........
    ..........
    ..........
    ..........
    ..@@..@@..
    ..@@..@@..
    ..........
    ...@@@@...
    ..@@..@@..
    .@@....@@.
    .@@....@@.
    .@@....@@.
    .@@....@@.
    ..@@..@@..
    ...@@@@...
    ..........
    ..........
    ..........
    ..........

u+00f7:
divide:
    ..........
    ..........
    ..........
    ..........
    ..........
    ....@@....
    ....@@....
    ..........
    ..........
    .@@@@@@@@.
    .@@@@@@@@.
    ..........
    ..........
    ....@@....
    ....@@....
    ..........
    ..........
    ..........
    ..........
    ..........

u+00f8:
oslash:
    ..........
    ..........
    ..........
    ..........
    ..........
    ..........
    ..........
    ........@.
    ...@@@@@..
    ..@@..@@..
    .@@..@.@@.
    .@@..@.@@.
    .@@.@..@@.
    .@@.@..@@.
    ..@@..@@..
    ..@@@@@...
    .@........
    ..........
    ..........
    ..........

u+00f9:
ugrave:
    ..........
    ..........
    ..........
    ..........
    ...@@.....
    ....@@....
    .....@@...
    ..........
    .@@....@@.
    .@@....@@.
    .@@....@@.
    .@@....@@.
    .@@....@@.
    .@@....@@.
    ..@@..@@@.
    ...@@@.@@.
    ..........
    ..........
    ..........
    ..........

u+00fa:
uacute:
    ..........
    ..........
    ..........
    ..........
    ......@@..
    .....@@...
    ....@@....
    ..........
    .@@....@@.
    .@@....@@.
    .@@....@@.
    .@@....@@.
    .@@....@@.
    .@@....@@.
    ..@@..@@@.
    ...@@@.@@.
    ..........
    ..........
    ..........
    ..........

u+00fb:
ucircumflex:
    ..........
    ..........
    ..........
    ..........
    ....@@....
    ...@@@@...
    ..@@..@@..
    ..........
    .@@....@@.
    .@@....@@.
    .@@....@@.
    .@@....@@.
    .@@....@@.
    .@@....@@.
    ..@@..@@@.
    ...@@@.@@.
    ..........
    ..........
    ..........
    ..........

u+00fc:
udieresis:
    ..........
    ..........
    ..........
    ..........
    ..........
    ..@@..@@..
    ..@@..@@..
    ..........
    .@@....@@.
    .@@....@@.
    .@@....@@.
    .@@....@@.
    .@@....@@.
    .@@....@@.
    ..@@..@@@.
    ...@@@.@@.
    ..........
    ..........
    ..........
    ..........

u+00fd:
yacute:
    ..........
    ..........
    ..........
    ..........
    .....@@...
    ....@@....
    ...@@.....
    ..........
    .@@....@@.
    .@@....@@.
    .@@....@@.
    .@@....@@.
    .@@....@@.
    .@@....@@.
    ..@@..@@@.
    ...@@@.@@.
    .......@@.
    .@@....@@.
    ..@@..@@..
    ...@@@@...

u+00fe:
thorn:
    ..........
    ..........
    ..........
    ..@@......
    ..@@......
    ..@@......
    ..@@......
    ..@@......
    ..@@......
    ..@@@@@...
    ..@@..@@..
    ..@@...@@.
    ..@@...@@.
    ..@@...@@.
    ..@@..@@..
    ..@@@@@...
    ..@@......
    ..@@......
    ..@@......
    ..@@......

u+00ff:
ydieresis:
    ..........
    ..........
    ..........
    ..........
    ..........
    ..@@..@@..
    ..@@..@@..
    ..........
    .@@....@@.
    .@@....@@.
    .@@....@@.
    .@@....@@.
    .@@....@@.
    .@@....@@.
    ..@@..@@@.
    ...@@@.@@.
    .......@@.
    .@@....@@.
    ..@@..@@..
    ...@@@@...

u+0100:
Amacron:
    ..........
    .@@@@@@@@.
    ..........
    ....@@....
    ...@@@@...
    ..@@..@@..
    ..@@..@@..
    .@@....@@.
    .@@....@@.
    .@@....@@.
    .@@@@@@@@.
    .@@....@@.
    .@@....@@.
    .@@....@@.
    .@@....@@.
    .@@....@@.
    ..........
    ..........
    ..........
    ..........

u+0101:
amacron:
    ..........
    ..........
    ..........
    ..........
    ..........
    ..........
    .@@@@@@@@.
    ..........
    ...@@@@@..
    ..@@...@@.
    .......@@.
    ..@@@@@@@.
    .@@....@@.
    .@@....@@.
    .@@....@@.
    ..@@@@@.@.
    ..........
    ..........
    ..........
    ..........

u+0102:
Abreve:
    ..........
    ..@....@..
    ..@@..@@..
    ...@@@@...
    ..........
    ...@@@@...
    ..@@..@@..
    ..@@..@@..
    .@@....@@.
    .@@....@@.
    .@@....@@.
    .@@@@@@@@.
    .@@....@@.
    .@@....@@.
    .@@....@@.
    .@@....@@.
    ..........
    ..........
    ..........
    ..........

u+0103:
abreve:
    ..........
    ..........
    ..........
    ..........
    ..@....@..
    ..@@..@@..
    ...@@@@...
    ..........
    ...@@@@@..
    ..@@...@@.
    .......@@.
    ..@@@@@@@.
    .@@....@@.
    .@@....@@.
    .@@....@@.
    ..@@@@@.@.
    ..........
    ..........
    ..........
    ..........

u+0104:
Aogonek:
    ..........
    ..........
    ..........
    ....@@....
    ...@@@@...
    ..@@..@@..
    ..@@..@@..
    .@@....@@.
    .@@....@@.
    .@@....@@.
    .@@@@@@@@.
    .@@....@@.
    .@@....@@.
    .@@....@@.
    .@@....@@.
    .@@....@@.
    ......@@@.
    ......@@..
    .......@@@
    ..........

u+0105:
aogonek:
    ..........
    ..........
    ..........
    ..........
    ..........
    ..........
    ..........
    ..........
    ...@@@@@..
    ..@@...@@.
    .......@@.
    ..@@@@@@@.
    .@@....@@.
    .@@....@@.
    .@@....@@.
    ..@@@@@.@.
    ........@@
    .......@@@
    .......@@.
    ........@@

u+0106:
Cacute:
    ..........
    ......@@..
    .....@@...
    ....@@....
    ..........
    ...@@@@...
    ..@@..@@..
    .@@....@@.
    .@@.......
    .@@.......
    .@@.......
    .@@.......
    .@@.......
    .@@....@@.
    ..@@..@@..
    ...@@@@...
    ..........
    ..........
    ..........
    ..........

u+0107:
cacute:
    ..........
    ..........
    ..........
    ..........
    ......@@..
    .....@@...
    ....@@....
    ..........
    ...@@@@@..
    ..@@...@@.
    .@@.......
    .@@.......
    .@@.......
    .@@.......
    ..@@...@@.
    ...@@@@@..
    ..........
    ..........
    ..........
    ..........

u+0108:
Ccircumflex:
    ..........
    ....@@....
    ...@@@@...
    ..@@..@@..
    ..........
    ...@@@@...
    ..@@..@@..
    .@@....@@.
    .@@.......
    .@@.......
    .@@.......
    .@@.......
    .@@.......
    .@@....@@.
    ..@@..@@..
    ...@@@@...
    ..........
    ..........
    ..........
    ..........

u+0109:
ccircumflex:
    ..........
    ..........
    ..........
    ..........
    ....@@....
    ...@@@@...
    ..@@..@@..
    ..........
    ...@@@@@..
    ..@@...@@.
    .@@.......
    .@@.......
    .@@.......
    .@@.......
    ..@@...@@.
    ...@@@@@..
    ..........
    ..........
    ..........
    ..........

u+010a:
Cdotaccent:
    ..........
    ....@@....
    ....@@....
    ..........
    ...@@@@...
    ..@@..@@..
    .@@....@@.
    .@@.......
    .@@.......
    .@@.......
    .@@.......
    .@@.......
    .@@.......
    .@@....@@.
    ..@@..@@..
    ...@@@@...
    ..........
    ..........
    ..........
    ..........

u+010b:
cdotaccent:
    ..........
    ..........
    ..........
    ..........
    ..........
    ....@@....
    ....@@....
    ..........
    ...@@@@@..
    ..@@...@@.
    .@@.......
    .@@.......
    .@@.......
    .@@.......
    ..@@...@@.
    ...@@@@@..
    ..........
    ..........
    ..........
    ..........

u+010c:
Ccaron:
    ..........
    ..@@..@@..
    ...@@@@...
    ....@@....
    ..........
    ...@@@@...
    ..@@..@@..
    .@@....@@.
    .@@.......
    .@@.......
    .@@.......
    .@@.......
    .@@.......
    .@@....@@.
    ..@@..@@..
    ...@@@@...
    ..........
    ..........
    ..........
    ..........

u+010d:
ccaron:
    ..........
    ..........
    ..........
    ..........
    ..@@..@@..
    ...@@@@...
    ....@@....
    ..........
    ...@@@@@..
    ..@@...@@.
    .@@.......
    .@@.......
    .@@.......
    .@@.......
    ..@@...@@.
    ...@@@@@..
    ..........
    ..........
    ..........
    ..........

u+010e:
Dcaron:
    ..........
    ..@@..@@..
    ...@@@@...
    ....@@....
    ..........
    .@@@@@@...
    .@@...@@..
    .@@....@@.
    .@@....@@.
    .@@....@@.
    .@@....@@.
    .@@....@@.
    .@@....@@.
    .@@....@@.
    .@@...@@..
    .@@@@@@...
    ..........
    ..........
    ..........
    ..........

u+010f:
dcaron:
    ..........
    .@@..@@...
    ..@@@@....
    ...@@..@@.
    .......@@.
    .......@@.
    .......@@.
    .......@@.
    ...@@@.@@.
    ..@@..@@@.
    .@@....@@.
    .@@....@@.
    .@@....@@.
    .@@....@@.
    ..@@..@@@.
    ...@@@.@@.
    ..........
    ..........
    ..........
    ..........

u+0110:
Dcroat:
    ..........
    ..........
    ..........
    .@@@@@@...
    .@@...@@..
    .@@....@@.
    .@@....@@.
    .@@....@@.
    .@@....@@.
    @@@@@..@@.
    .@@....@@.
    .@@....@@.
    .@@....@@.
    .@@....@@.
    .@@...@@..
    .@@@@@@...
    ..........
    ..........
    ..........
    ..........

u+0111:
dcroat:
    ..........
    ..........
    ..........
    .......@@.
    .......@@.
    .......@@.
    .....@@@@@
    .......@@.
    ...@@@.@@.
    ..@@..@@@.
    .@@....@@.
    .@@....@@.
    .@@....@@.
    .@@....@@.
    ..@@..@@@.
    ...@@@.@@.
    ..........
    ..........
    ..........
    ..........

u+0112:
Emacron:
    ..........
    .@@@@@@@@.
    ..........
    .@@@@@@@@.
    .@@.......
    .@@.......
    .@@.......
    .@@.......
    .@@.......
    .@@@@@@...
    .@@.......
    .@@.......
    .@@.......
    .@@.......
    .@@.......
    .@@@@@@@@.
    ..........
    ..........
    ..........
    ..........

u+0113:
emacron:
    ..........
    ..........
    ..........
    ..........
    ..........
    ..........
    .@@@@@@@@.
    ..........
    ...@@@@...
    ..@@..@@..
    .@@....@@.
    .@@@@@@@@.
    .@@.......
    .@@.......
    ..@@...@@.
    ...@@@@@..
    ..........
    ..........
    ..........
    ..........

u+0114:
Ebreve:
    ..........
    ..@....@..
    ..@@..@@..
    ...@@@@...
    ..........
    .@@@@@@@@.
    .@@.......
    .@@.......
    .@@.......
    .@@.......
    .@@@@@@...
    .@@.......
    .@@.......
    .@@.......
    .@@.......
    .@@@@@@@@.
    ..........
    ..........
    ..........
    ..........

u+0115:
ebreve:
    ..........
    ..........
    ..........
    ..........
    ..@....@..
    ..@@..@@..
    ...@@@@...
    ..........
    ...@@@@...
    ..@@..@@..
    .@@....@@.
    .@@@@@@@@.
    .@@.......
    .@@.......
    ..@@...@@.
    ...@@@@@..
    ..........
    ..........
    ..........
    ..........

u+0116:
Edotaccent:
    ..........
    ....@@....
    ....@@....
    ..........
    .@@@@@@@@.
    .@@.......
    .@@.......
    .@@.......
    .@@.......
    .@@@@@@...
    .@@.......
    .@@.......
    .@@.......
    .@@.......
    .@@.......
    .@@@@@@@@.
    ..........
    ..........
    ..........
    ..........

u+0117:
edotaccent:
    ..........
    ..........
    ..........
    ..........
    ..........
    ....@@....
    ....@@....
    ..........
    ...@@@@...
    ..@@..@@..
    .@@....@@.
    .@@@@@@@@.
    .@@.......
    .@@.......
    ..@@...@@.
    ...@@@@@..
    ..........
    ..........
    ..........
    ..........

u+0118:
Eogonek:
    ..........
    ..........
    ..........
    .@@@@@@@@.
    .@@.......
    .@@.......
    .@@.......
    .@@.......
    .@@.......
    .@@@@@@...
    .@@.......
    .@@.......
    .@@.......
    .@@.......
    .@@.......
    .@@@@@@@@.
    ......@@..
    .....@@@..
    .....@@...
    ......@@@.

u+0119:
eogonek:
    ..........
    ..........
    ..........
    ..........
    ..........
    ..........
    ..........
    ..........
    ...@@@@...
    ..@@..@@..
    .@@....@@.
    .@@@@@@@@.
    .@@.......
    .@@.......
    ..@@...@@.
    ...@@@@@..
    .....@@...
    ....@@@...
    ....@@....
    .....@@@..

u+011a:
Ecaron:
    ..........
    ..@@..@@..
    ...@@@@...
    ....@@....
    ..........
    .@@@@@@@@.
    .@@.......
    .@@.......
    .@@.......
    .@@.......
    .@@@@@@...
    .@@.......
    .@@.......
    .@@.......
    .@@.......
    .@@@@@@@@.
    ..........
    ..........
    ..........
    ..........

u+011b:
ecaron:
    ..........
    ..........
    ..........
    ..........
    ..@@..@@..
    ...@@@@...
    ....@@....
    ..........
    ...@@@@...
    ..@@..@@..
    .@@....@@.
    .@@@@@@@@.
    .@@.......
    .@@.......
    ..@@...@@.
    ...@@@@@..
    ..........
    ..........
    ..........
    ..........

u+011c:
Gcircumflex:
    ..........
    ....@@....
    ...@@@@...
    ..@@..@@..
    ..........
    ...@@@@...
    ..@@..@@..
    .@@....@@.
    .@@.......
    .@@.......
    .@@..@@@@.
    .@@....@@.
    .@@....@@.
    .@@....@@.
    ..@@..@@@.
    ...@@@@.@.
    ..........
    ..........
    ..........
    ..........

u+011d:
gcircumflex:
    ..........
    ..........
    ..........
    ..........
    ....@@....
    ...@@@@...
    ..@@..@@..
    ..........
    ..@@@@@.@.
    .@@...@@@.
    .@@...@@..
    .@@...@@..
    .@@...@@..
    ..@@@@@...
    .@@.......
    ..@@@@@@..
    .@@....@@.
    .@@....@@.
    .@@....@@.
    ..@@@@@@..

u+011e:
Gbreve:
    ..........
    ..@....@..
    ..@@..@@..
    ...@@@@...
    ..........
    ...@@@@...
    ..@@..@@..
    .@@....@@.
    .@@.......
    .@@.......
    .@@..@@@@.
    .@@....@@.
    .@@....@@.
    .@@....@@.
    ..@@..@@@.
    ...@@@@.@.
    ..........
    ..........
    ..........
    ..........

u+011f:
gbreve:
    ..........
    ..........
    ..........
    ..........
    ..@....@..
    ..@@..@@..
    ...@@@@...
    ..........
    ..@@@@@.@.
    .@@...@@@.
    .@@...@@..
    .@@...@@..
    .@@...@@..
    ..@@@@@...
    .@@.......
    ..@@@@@@..
    .@@....@@.
    .@@....@@.
    .@@....@@.
    ..@@@@@@..

u+0120:
Gdotaccent:
    ..........
    ....@@....
    ....@@....
    ..........
    ...@@@@...
    ..@@..@@..
    .@@....@@.
    .@@.......
    .@@.......
    .@@..@@@@.
    .@@....@@.
    .@@....@@.
    .@@....@@.
    .@@....@@.
    ..@@..@@@.
    ...@@@@.@.
    ..........
    ..........
    ..........
    ..........

u+0121:
gdotaccent:
    ..........
    ..........
    ..........
    ..........
    ..........
    ....@@....
    ....@@....
    ..........
    ..@@@@@.@.
    .@@...@@@.
    .@@...@@..
    .@@...@@..
    .@@...@@..
    ..@@@@@...
    .@@.......
    ..@@@@@@..
    .@@....@@.
    .@@....@@.
    .@@....@@.
    ..@@@@@@..

u+0122:
Gcommaaccent:
    ..........
    ..........
    ..........
    ...@@@@...
    ..@@..@@..
    .@@....@@.
    .@@.......
    .@@.......
    .@@.......
    .@@..@@@@.
    .@@....@@.
    .@@....@@.
    .@@....@@.
    .@@....@@.
    ..@@..@@@.
    ...@@@@.@.
    ....@@....
    .....@@...
    ...@@@....
    ..........

u+0123:
gcommaaccent:
    ..........
    ..........
    ..........
    ....@.....
    ...@......
    ...@@.....
    ...@@.....
    ..........
    ..@@@@@.@.
    .@@...@@@.
    .@@...@@..
    .@@...@@..
    .@@...@@..
    ..@@@@@...
    .@@.......
    ..@@@@@@..
    .@@....@@.
    .@@....@@.
    .@@....@@.
    ..@@@@@@..

u+0124:
Hcircumflex:
    ..........
    ....@@....
    ...@@@@...
    ..@@..@@..
    ..........
    .@@....@@.
    .@@....@@.
    .@@....@@.
    .@@....@@.
    .@@@@@@@@.
    .@@....@@.
    .@@....@@.
    .@@....@@.
    .@@....@@.
    .@@....@@.
    .@@....@@.
    ..........
    ..........
    ..........
    ..........

u+0125:
hcircumflex:
    ....@@....
    ...@@@@...
    ..@@..@@..
    ..........
    .@@.......
    .@@.......
    .@@.......
    .@@.......
    .@@.@@@...
    .@@@..@@..
    .@@....@@.
    .@@....@@.
    .@@....@@.
    .@@....@@.
    .@@....@@.
    .@@....@@.
    ..........
    ..........
    ..........
    ..........

u+0126:
Hbar:
    ..........
    ..........
    ..........
    .@@....@@.
    .@@....@@.
    @@@@@@@@@@
    .@@....@@.
    .@@....@@.
    .@@....@@.
    .@@@@@@@@.
    .@@....@@.
    .@@....@@.
    .@@....@@.
    .@@....@@.
    .@@....@@.
    .@@....@@.
    ..........
    ..........
    ..........
    ..........

u+0127:
hbar:
    ..........
    ..........
    ..........
    .@@.......
    .@@.......
    .@@.......
    @@@@@.....
    .@@.......
    .@@.@@@...
    .@@@..@@..
    .@@....@@.
    .@@....@@.
    .@@....@@.
    .@@....@@.
    .@@....@@.
    .@@....@@.
    ..........
    ..........
    ..........
    ..........

u+0128:
Itilde:
    ..........
    ...@@..@..
    ..@@@@@@..
    ..@..@@...
    ..........
    .@@@@@@@@.
    ....@@....
    ....@@....
    ....@@....
    ....@@....
    ....@@....
    ....@@....
    ....@@....
    ....@@....
    ....@@....
    .@@@@@@@@.
    ..........
    ..........
    ..........
    ..........

u+0129:
itilde:
    ..........
    ..........
    ..........
    ..........
    ...@@..@..
    ..@@@@@@..
    ..@..@@...
    ..........
    ..@@@@....
    ....@@....
    ....@@....
    ....@@....
    ....@@....
    ....@@....
    ....@@....
    .@@@@@@@@.
    ..........
    ..........
    ..........
    ..........

u+012a:
Imacron:
    ..........
    .@@@@@@@@.
    ..........
    .@@@@@@@@.
    ....@@....
    ....@@....
    ....@@....
    ....@@....
    ....@@....
    ....@@....
    ....@@....
    ....@@....
    ....@@....
    ....@@....
    ....@@....
    .@@@@@@@@.
    ..........
    ..........
    ..........
    ..........

u+012b:
imacron:
    ..........
    ..........
    ..........
    ..........
    ..........
    ..........
    .@@@@@@@..
    ..........
    ..@@@@....
    ....@@....
    ....@@....
    ....@@....
    ....@@....
    ....@@....
    ....@@....
    .@@@@@@@@.
    ..........
    ..........
    ..........
    ..........

u+012c:
Ibreve:
    ..........
    ..@....@..
    ..@@..@@..
    ...@@@@...
    ..........
    .@@@@@@@@.
    ....@@....
    ....@@....
    ....@@....
    ....@@....
    ....@@....
    ....@@....
    ....@@....
    ....@@....
    ....@@....
    .@@@@@@@@.
    ..........
    ..........
    ..........
    ..........

u+012d:
ibreve:
    ..........
    ..........
    ..........
    ..........
    ..@....@..
    ..@@..@@..
    ...@@@@...
    ..........
    ..@@@@....
    ....@@....
    ....@@....
    ....@@....
    ....@@....
    ....@@....
    ....@@....
    .@@@@@@@@.
    ..........
    ..........
    ..........
    ..........

u+012e:
Iogonek:
    ..........
    ..........
    ..........
    .@@@@@@@@.
    ....@@....
    ....@@....
    ....@@....
    ....@@....
    ....@@....
    ....@@....
    ....@@....
    ....@@....
    ....@@....
    ....@@....
    ....@@....
    .@@@@@@@@.
    ......@@..
    .....@@@..
    .....@@...
    ......@@@.

u+012f:
iogonek:
    ..........
    ..........
    ..........
    ..........
    ..........
    ....@@....
    ....@@....
    ..........
    ..@@@@....
    ....@@....
    ....@@....
    ....@@....
    ....@@....
    ....@@....
    ....@@....
    .@@@@@@@@.
    .......@@.
    ......@@@.
    ......@@..
    .......@@.

u+0130:
Idotaccent:
    ..........
    ....@@....
    ....@@....
    ..........
    .@@@@@@@@.
    ....@@....
    ....@@....
    ....@@....
    ....@@....
    ....@@....
    ....@@....
    ....@@....
    ....@@....
    ....@@....
    ....@@....
    .@@@@@@@@.
    ..........
    ..........
    ..........
    ..........

u+0131:
dotlessi:
    ..........
    ..........
    ..........
    ..........
    ..........
    ..........
    ..........
    ..........
    ..@@@@....
    ....@@....
    ....@@....
    ....@@....
    ....@@....
    ....@@....
    ....@@....
    .@@@@@@@@.
    ..........
    ..........
    ..........
    ..........

u+0132:
IJ:
    ..........
    ..........
    ..........
    @@@@@@@@@.
    ..@@...@@.
    ..@@...@@.
    ..@@...@@.
    ..@@...@@.
    ..@@...@@.
    ..@@...@@.
    ..@@...@@.
    ..@@...@@.
    ..@@...@@.
    ..@@...@@.
    ..@@...@@.
    @@@@@@.@@.
    .......@@.
    ..@@...@@.
    ...@@@@@..
    ..........

u+0133:
ij:
    ..........
    ..........
    ..........
    ..........
    ..........
    ..@@...@@.
    ..@@...@@.
    ..........
    @@@@.@@@@.
    ..@@...@@.
    ..@@...@@.
    ..@@...@@.
    ..@@...@@.
    ..@@...@@.
    ..@@...@@.
    @@@@@@.@@.
    .......@@.
    ..@@...@@.
    ..@@...@@.
    ...@@@@@..

u+0134:
Jcircumflex:
    ..........
    .....@@...
    ....@@@@..
    ...@@..@@.
    ..........
    ...@@@@@..
    ......@@..
    ......@@..
    ......@@..
    ......@@..
    ......@@..
    ......@@..
    @@....@@..
    @@....@@..
    .@@..@@...
    ..@@@@....
    ..........
    ..........
    ..........
    ..........

u+0135:
jcircumflex:
    ..........
    ..........
    ..........
    ..........
    .....@@...
    ....@@@@..
    ...@@..@@.
    ..........
    ....@@@@..
    ......@@..
    ......@@..
    ......@@..
    ......@@..
    ......@@..
    ......@@..
    ......@@..
    .@@...@@..
    .@@...@@..
    .@@...@@..
    ..@@@@@...

u+0136:
Kcommaaccent:
    ..........
    ..........
    ..........
    .@@....@@.
    .@@....@@.
    .@@...@@..
    .@@...@@..
    .@@..@@...
    .@@..@@...
    .@@@@@....
    .@@..@@...
    .@@..@@...
    .@@...@@..
    .@@...@@..
    .@@....@@.
    .@@....@@.
    .@@@......
    ...@@.....
    ...@@.....
    .@@@......

u+0137:
kcommaaccent:
    ..........
    ..........
    ..........
    .@@.......
    .@@.......
    .@@.......
    .@@.......
    .@@.......
    .@@...@@..
    .@@..@@...
    .@@.@@....
    .@@@@.....
    .@@@@@....
    .@@..@@...
    .@@...@@..
    .@@....@@.
    .@@@......
    ...@@.....
    ...@@.....
    .@@@......

u+0138:
kgreenlandic:
    ..........
    ..........
    ..........
    ..........
    ..........
    ..........
    ..........
    ..........
    .@@..@@...
    .@@.@@....
    .@@@@.....
    .@@@......
    .@@@@.....
    .@@.@@....
    .@@..@@...
    .@@...@@..
    ..........
    ..........
    ..........
    ..........

u+0139:
Lacute:
    ..........
    ...@@.....
    ..@@......
    .@@.......
    ..........
    .@@.......
    .@@.......
    .@@.......
    .@@.......
    .@@.......
    .@@.......
    .@@.......
    .@@.......
    .@@.......
    .@@.......
    .@@@@@@@@.
    ..........
    ..........
    ..........
    ..........

u+013a:
lacute:
    ..........
    .....@@...
    ....@@....
    ...@@.....
    ..........
    ..@@@@....
    ....@@....
    ....@@....
    ....@@....
    ....@@....
    ....@@....
    ....@@....
    ....@@....
    ....@@....
    ....@@....
    .@@@@@@@@.
    ..........
    ..........
    ..........
    ..........

u+013b:
Lcommaaccent:
    ..........
    ..........
    ..........
    .@@.......
    .@@.......
    .@@.......
    .@@.......
    .@@.......
    .@@.......
    .@@.......
    .@@.......
    .@@.......
    .@@.......
    .@@.......
    .@@.......
    .@@@@@@@@.
    ..@@......
    ...@@.....
    ...@@.....
    .@@@......

u+013c:
lcommaaccent:
    ..........
    ..........
    ..........
    ..@@@@....
    ....@@....
    ....@@....
    ....@@....
    ....@@....
    ....@@....
    ....@@....
    ....@@....
    ....@@....
    ....@@....
    ....@@....
    ....@@....
    .@@@@@@@@.
    ....@@....
    .....@@...
    .....@@...
    ...@@@....

u+013d:
Lcaron:
    ..........
    @@..@@....
    .@@@@.....
    ..@@......
    ..........
    .@@.......
    .@@.......
    .@@.......
    .@@.......
    .@@.......
    .@@.......
    .@@.......
    .@@.......
    .@@.......
    .@@.......
    .@@@@@@@@.
    ..........
    ..........
    ..........
    ..........

u+013e:
lcaron:
    ..........
    ..@@..@@..
    ...@@@@...
    ....@@....
    ..........
    ..@@@@....
    ....@@....
    ....@@....
    ....@@....
    ....@@....
    ....@@....
    ....@@....
    ....@@....
    ....@@....
    ....@@....
    .@@@@@@@@.
    ..........
    ..........
    ..........
    ..........

u+013f:
Ldot:
    ..........
    ..........
    ..........
    .@@.......
    .@@.......
    .@@.......
    .@@.......
    .@@.......
    .@@..@@...
    .@@..@@...
    .@@.......
    .@@.......
    .@@.......
    .@@.......
    .@@.......
    .@@@@@@@@.
    ..........
    ..........
    ..........
    ..........

u+0140:
ldot:
    ..........
    ..........
    ..........
    .@@@@.....
    ...@@.....
    ...@@.....
    ...@@.....
    ...@@.....
    ...@@.....
    ...@@..@@.
    ...@@..@@.
    ...@@.....
    ...@@.....
    ...@@.....
    ...@@.....
    @@@@@@@@..
    ..........
    ..........
    ..........
    ..........

u+0141:
Lslash:
    ..........
    ..........
    ..........
    .@@.......
    .@@.......
    .@@.......
    .@@.......
    .@@.......
    .@@.@@....
    .@@@......
    @@@.......
    .@@.......
    .@@.......
    .@@.......
    .@@.......
    .@@@@@@@@.
    ..........
    ..........
    ..........
    ..........

u+0142:
lslash:
    ..........
    ..........
    ..........
    ..@@@@....
    ....@@....
    ....@@....
    ....@@....
    ....@@....
    ....@@....
    ....@@@@..
    ..@@@@....
    ....@@....
    ....@@....
    ....@@....
    ....@@....
    .@@@@@@@@.
    ..........
    ..........
    ..........
    ..........

u+0143:
Nacute:
    ..........
    ......@@..
    .....@@...
    ....@@....
    .@@....@@.
    .@@@...@@.
    .@@@...@@.
    .@@@@..@@.
    .@@@@..@@.
    .@@.@@.@@.
    .@@.@@.@@.
    .@@..@@@@.
    .@@..@@@@.
    .@@...@@@.
    .@@...@@@.
    .@@....@@.
    ..........
    ..........
    ..........
    ..........

u+0144:
nacute:
    ..........
    ..........
    ..........
    ..........
    ......@@..
    .....@@...
    ....@@....
    ..........
    .@@.@@@...
    .@@@..@@..
    .@@....@@.
    .@@....@@.
    .@@....@@.
    .@@....@@.
    .@@....@@.
    .@@....@@.
    ..........
    ..........
    ..........
    ..........

u+0145:
Ncommaaccent:
    ..........
    ..........
    ..........
    .@@....@@.
    .@@@...@@.
    .@@@...@@.
    .@@@@..@@.
    .@@@@..@@.
    .@@.@@.@@.
    .@@.@@.@@.
    .@@..@@@@.
    .@@..@@@@.
    .@@...@@@.
    .@@...@@@.
    .@@....@@.
    .@@....@@.
    .@@@......
    ...@@.....
    ...@@.....
    .@@@......

u+0146:
ncommaaccent:
    ..........
    ..........
    ..........
    ..........
    ..........
    ..........
    ..........
    ..........
    .@@.@@@...
    .@@@..@@..
    .@@....@@.
    .@@....@@.
    .@@....@@.
    .@@....@@.
    .@@....@@.
    .@@....@@.
    .@@@......
    ...@@.....
    ...@@.....
    .@@@......

u+0147:
Ncaron:
    ..........
    ..@@..@@..
    ...@@@@...
    ....@@....
    .@@....@@.
    .@@@...@@.
    .@@@...@@.
    .@@@@..@@.
    .@@@@..@@.
    .@@.@@.@@.
    .@@.@@.@@.
    .@@..@@@@.
    .@@..@@@@.
    .@@...@@@.
    .@@...@@@.
    .@@....@@.
    ..........
    ..........
    ..........
    ..........

u+0148:
ncaron:
    ..........
    ..........
    ..........
    ..........
    ..@@..@@..
    ...@@@@...
    ....@@....
    ..........
    .@@.@@@...
    .@@@..@@..
    .@@....@@.
    .@@....@@.
    .@@....@@.
    .@@....@@.
    .@@....@@.
    .@@....@@.
    ..........
    ..........
    ..........
    ..........

u+0149:
napostrophe:
    ..........
    ..........
    ..........
    @@........
    @@........
    .@........
    @.........
    ..........
    .@@.@@@...
    .@@@..@@..
    .@@....@@.
    .@@....@@.
    .@@....@@.
    .@@....@@.
    .@@....@@.
    .@@....@@.
    ..........
    ..........
    ..........
    ..........

u+014a:
Eng:
    ..........
    ..........
    ..........
    .@@....@@.
    .@@@...@@.
    .@@@...@@.
    .@@@@..@@.
    .@@@@..@@.
    .@@.@@.@@.
    .@@.@@.@@.
    .@@..@@@@.
    .@@..@@@@.
    .@@...@@@.
    .@@...@@@.
    .@@....@@.
    .@@....@@.
    .......@@.
    .......@@.
    .......@@.
    ......@@..

u+014b:
eng:
    ..........
    ..........
    ..........
    ..........
    ..........
    ..........
    ..........
    ..........
    .@@.@@@...
    .@@@..@@..
    .@@....@@.
    .@@....@@.
    .@@....@@.
    .@@....@@.
    .@@....@@.
    .@@....@@.
    .......@@.
    .......@@.
    .......@@.
    ......@@..

u+014c:
Omacron:
    ..........
    .@@@@@@@@.
    ..........
    ...@@@@...
    ..@@..@@..
    .@@....@@.
    .@@....@@.
    .@@....@@.
    .@@....@@.
    .@@....@@.
    .@@....@@.
    .@@....@@.
    .@@....@@.
    .@@....@@.
    ..@@..@@..
    ...@@@@...
    ..........
    ..........
    ..........
    ..........

u+014d:
omacron:
    ..........
    ..........
    ..........
    ..........
    ..........
    ..........
    .@@@@@@@@.
    ..........
    ...@@@@...
    ..@@..@@..
    .@@....@@.
    .@@....@@.
    .@@....@@.
    .@@....@@.
    ..@@..@@..
    ...@@@@...
    ..........
    ..........
    ..........
    ..........

u+014e:
Obreve:
    ..........
    ..@....@..
    ..@@..@@..
    ...@@@@...
    ..........
    ...@@@@...
    ..@@..@@..
    .@@....@@.
    .@@....@@.
    .@@....@@.
    .@@....@@.
    .@@....@@.
    .@@....@@.
    .@@....@@.
    ..@@..@@..
    ...@@@@...
    ..........
    ..........
    ..........
    ..........

u+014f:
obreve:
    ..........
    ..........
    ..........
    ..........
    ..@....@..
    ..@@..@@..
    ...@@@@...
    ..........
    ...@@@@...
    ..@@..@@..
    .@@....@@.
    .@@....@@.
    .@@....@@.
    .@@....@@.
    ..@@..@@..
    ...@@@@...
    ..........
    ..........
    ..........
    ..........

u+0150:
Ohungarumlaut:
    ..........
    ...@@..@@.
    ..@@..@@..
    ..........
    ...@@@@...
    ..@@..@@..
    .@@....@@.
    .@@....@@.
    .@@....@@.
    .@@....@@.
    .@@....@@.
    .@@....@@.
    .@@....@@.
    .@@....@@.
    ..@@..@@..
    ...@@@@...
    ..........
    ..........
    ..........
    ..........

u+0151:
ohungarumlaut:
    ..........
    ..........
    ..........
    ..........
    ..........
    ...@@..@@.
    ..@@..@@..
    ..........
    ...@@@@...
    ..@@..@@..
    .@@....@@.
    .@@....@@.
    .@@....@@.
    .@@....@@.
    ..@@..@@..
    ...@@@@...
    ..........
    ..........
    ..........
    ..........

u+0152:
OE:
    ..........
    ..........
    ..........
    ...@@@@@@.
    ..@@.@@...
    .@@..@@...
    .@@..@@...
    .@@..@@...
    .@@..@@...
    .@@..@@@@.
    .@@..@@...
    .@@..@@...
    .@@..@@...
    .@@..@@...
    ..@@.@@...
    ...@@@@@@.
    ..........
    ..........
    ..........
    ..........

u+0153:
oe:
    ..........
    ..........
    ..........
    ..........
    ..........
    ..........
    ..........
    ..........
    ..@@@@@@..
    .@@.@@.@@.
    .@@.@@.@@.
    .@@.@@@@@.
    .@@.@@....
    .@@.@@....
    .@@.@@.@@.
    ..@@@@@@..
    ..........
    ..........
    ..........
    ..........

u+0154:
Racute:
    ..........
    .....@@...
    ....@@....
    ...@@.....
    ..........
    .@@@@@@...
    .@@...@@..
    .@@....@@.
    .@@....@@.
    .@@...@@..
    .@@@@@@...
    .@@..@@...
    .@@...@@..
    .@@...@@..
    .@@....@@.
    .@@....@@.
    ..........
    ..........
    ..........
    ..........

u+0155:
racute:
    ..........
    ..........
    ..........
    ..........
    ......@@..
    .....@@...
    ....@@....
    ..........
    .@@.@@@@..
    ..@@@..@@.
    ..@@......
    ..@@......
    ..@@......
    ..@@......
    ..@@......
    ..@@......
    ..........
    ..........
    ..........
    ..........

u+0156:
Rcommaaccent:
    ..........
    ..........
    ..........
    .@@@@@@...
    .@@...@@..
    .@@....@@.
    .@@....@@.
    .@@....@@.
    .@@....@@.
    .@@...@@..
    .@@@@@@...
    .@@..@@...
    .@@...@@..
    .@@...@@..
    .@@....@@.
    .@@....@@.
    .@@@......
    ...@@.....
    ...@@.....
    .@@@......

u+0157:
rcommaaccent:
    ..........
    ..........
    ..........
    ..........
    ..........
    ..........
    ..........
    ..........
    .@@.@@@@..
    ..@@@..@@.
    ..@@......
    ..@@......
    ..@@......
    ..@@......
    ..@@......
    ..@@......
    ..@@@.....
    ....@@....
    ....@@....
    ..@@@.....

u+0158:
Rcaron:
    ..........
    ..@@..@@..
    ...@@@@...
    ....@@....
    ..........
    .@@@@@@...
    .@@...@@..
    .@@....@@.
    .@@....@@.
    .@@...@@..
    .@@@@@@...
    .@@..@@...
    .@@...@@..
    .@@...@@..
    .@@....@@.
    .@@....@@.
    ..........
    ..........
    ..........
    ..........

u+0159:
rcaron:
    ..........
    ..........
    ..........
    ..........
    ..@@..@@..
    ...@@@@...
    ....@@....
    ..........
    .@@.@@@@..
    ..@@@..@@.
    ..@@......
    ..@@......
    ..@@......
    ..@@......
    ..@@......
    ..@@......
    ..........
    ..........
    ..........
    ..........

u+015a:
Sacute:
    ..........
    ......@@..
    .....@@...
    ....@@....
    ..........
    ...@@@@...
    ..@@..@@..
    .@@....@@.
    .@@.......
    ..@@......
    ...@@@@...
    ......@@..
    .......@@.
    .@@....@@.
    ..@@..@@..
    ...@@@@...
    ..........
    ..........
    ..........
    ..........

u+015b:
sacute:
    ..........
    ..........
    ..........
    ..........
    ......@@..
    .....@@...
    ....@@....
    ..........
    ..@@@@@@..
    .@@....@@.
    .@@.......
    ..@@@@@@..
    .......@@.
    .......@@.
    .@@....@@.
    ..@@@@@@..
    ..........
    ..........
    ..........
    ..........

u+015c:
Scircumflex:
    ..........
    ....@@....
    ...@@@@...
    ..@@..@@..
    ..........
    ...@@@@...
    ..@@..@@..
    .@@....@@.
    .@@.......
    ..@@......
    ...@@@@...
    ......@@..
    .......@@.
    .@@....@@.
    ..@@..@@..
    ...@@@@...
    ..........
    ..........
    ..........
    ..........

u+015d:
scircumflex:
    ..........
    ..........
    ..........
    ..........
    ....@@....
    ...@@@@...
    ..@@..@@..
    ..........
    ..@@@@@@..
    .@@....@@.
    .@@.......
    ..@@@@@@..
    .......@@.
    .......@@.
    .@@....@@.
    ..@@@@@@..
    ..........
    ..........
    ..........
    ..........

u+015e:
Scedilla:
    ..........
    ..........
    ..........
    ...@@@@...
    ..@@..@@..
    .@@....@@.
    .@@.......
    .@@.......
    ..@@......
    ...@@@@...
    ......@@..
    .......@@.
    .......@@.
    .@@....@@.
    ..@@..@@..
    ...@@@@...
    ....@@....
    .....@@...
    .....@@...
    ...@@@....

u+015f:
scedilla:
    ..........
    ..........
    ..........
    ..........
    ..........
    ..........
    ..........
    ..........
    ..@@@@@@..
    .@@....@@.
    .@@.......
    ..@@@@@@..
    .......@@.
    .......@@.
    .@@....@@.
    ..@@@@@@..
    ....@@....
    .....@@...
    .....@@...
    ...@@@....

u+0160:
Scaron:
    ..........
    ..@@..@@..
    ...@@@@...
    ....@@....
    ..........
    ...@@@@...
    ..@@..@@..
    .@@....@@.
    .@@.......
    ..@@......
    ...@@@@...
    ......@@..
    .......@@.
    .@@....@@.
    ..@@..@@..
    ...@@@@...
    ..........
    ..........
    ..........
    ..........

u+0161:
scaron:
    ..........
    ..........
    ..........
    ..........
    ..@@..@@..
    ...@@@@...
    ....@@....
    ..........
    ..@@@@@@..
    .@@....@@.
    .@@.......
    ..@@@@@@..
    .......@@.
    .......@@.
    .@@....@@.
    ..@@@@@@..
    ..........
    ..........
    ..........
    ..........

u+0162:
Tcommaaccent:
    ..........
    ..........
    ..........
    .@@@@@@@@.
    ....@@....
    ....@@....
    ....@@....
    ....@@....
    ....@@....
    ....@@....
    ....@@....
    ....@@....
    ....@@....
    ....@@....
    ....@@....
    ....@@....
    ....@@....
    .....@@...
    .....@@...
    ...@@@....

u+0163:
tcommaaccent:
    ..........
    ..........
    ..........
    ..........
    ..........
    ...@@.....
    ...@@.....
    ...@@.....
    .@@@@@@...
    ...@@.....
    ...@@.....
    ...@@.....
    ...@@.....
    ...@@.....
    ...@@..@@.
    ....@@@@..
    .....@@...
    ......@@..
    ......@@..
    ....@@@...

u+0164:
Tcaron:
    ..........
    ..@@..@@..
    ...@@@@...
    ....@@....
    ..........
    .@@@@@@@@.
    ....@@....
    ....@@....
    ....@@....
    ....@@....
    ....@@....
    ....@@....
    ....@@....
    ....@@....
    ....@@....
    ....@@....
    ..........
    ..........
    ..........
    ..........

u+0165:
tcaron:
    ..........
    .@@..@@...
    ..@@@@....
    ...@@.....
    ..........
    ...@@.....
    ...@@.....
    ...@@.....
    .@@@@@@...
    ...@@.....
    ...@@.....
    ...@@.....
    ...@@.....
    ...@@.....
    ...@@..@@.
    ....@@@@..
    ..........
    ..........
    ..........
    ..........

u+0166:
Tbar:
    ..........
    ..........
    ..........
    .@@@@@@@@.
    ....@@....
    ....@@....
    ....@@....
    ....@@....
    ..@@@@@@..
    ....@@....
    ....@@....
    ....@@....
    ....@@....
    ....@@....
    ....@@....
    ....@@....
    ..........
    ..........
    ..........
    ..........

u+0167:
tbar:
    ..........
    ..........
    ..........
    ..........
    ..........
    ...@@.....
    ...@@.....
    ...@@.....
    .@@@@@@...
    ...@@.....
    ..@@@@....
    ...@@.....
    ...@@.....
    ...@@.....
    ...@@..@@.
    ....@@@@..
    ..........
    ..........
    ..........
    ..........

u+0168:
Utilde:
    ..........
    ...@@..@..
    ..@@@@@@..
    ..@..@@...
    ..........
    .@@....@@.
    .@@....@@.
    .@@....@@.
    .@@....@@.
    .@@....@@.
    .@@....@@.
    .@@....@@.
    .@@....@@.
    .@@....@@.
    ..@@..@@..
    ...@@@@...
    ..........
    ..........
    ..........
    ..........

u+0169:
utilde:
    ..........
    ..........
    ..........
    ..........
    ...@@..@..
    ..@@@@@@..
    ..@..@@...
    ..........
    .@@....@@.
    .@@....@@.
    .@@....@@.
    .@@....@@.
    .@@....@@.
    .@@....@@.
    ..@@..@@@.
    ...@@@.@@.
    ..........
    ..........
    ..........
    ..........

u+016a:
Umacron:
    ..........
    .@@@@@@@@.
    ..........
    .@@....@@.
    .@@....@@.
    .@@....@@.
    .@@....@@.
    .@@....@@.
    .@@....@@.
    .@@....@@.
    .@@....@@.
    .@@....@@.
    .@@....@@.
    .@@....@@.
    ..@@..@@..
    ...@@@@...
    ..........
    ..........
    ..........
    ..........

u+016b:
umacron:
    ..........
    ..........
    ..........
    ..........
    ..........
    ..........
    .@@@@@@@@.
    ..........
    .@@....@@.
    .@@....@@.
    .@@....@@.
    .@@....@@.
    .@@....@@.
    .@@....@@.
    ..@@..@@@.
    ...@@@.@@.
    ..........
    ..........
    ..........
    ..........

u+016c:
Ubreve:
    ..........
    ..@....@..
    ..@@..@@..
    ...@@@@...
    ..........
    .@@....@@.
    .@@....@@.
    .@@....@@.
    .@@....@@.
    .@@....@@.
    .@@....@@.
    .@@....@@.
    .@@....@@.
    .@@....@@.
    ..@@..@@..
    ...@@@@...
    ..........
    ..........
    ..........
    ..........

u+016d:
ubreve:
    ..........
    ..........
    ..........
    ..........
    ..@....@..
    ..@@..@@..
    ...@@@@...
    ..........
    .@@....@@.
    .@@....@@.
    .@@....@@.
    .@@....@@.
    .@@....@@.
    .@@....@@.
    ..@@..@@@.
    ...@@@.@@.
    ..........
    ..........
    ..........
    ..........

u+016e:
Uring:
    ....@@....
    ...@..@...
    ...@..@...
    ....@@....
    ..........
    .@@....@@.
    .@@....@@.
    .@@....@@.
    .@@....@@.
    .@@....@@.
    .@@....@@.
    .@@....@@.
    .@@....@@.
    .@@....@@.
    ..@@..@@..
    ...@@@@...
    ..........
    ..........
    ..........
    ..........

u+016f:
uring:
    ..........
    ..........
    ..........
    ....@@....
    ...@..@...
    ...@..@...
    ....@@....
    ..........
    .@@....@@.
    .@@....@@.
    .@@....@@.
    .@@....@@.
    .@@....@@.
    .@@....@@.
    ..@@..@@@.
    ...@@@.@@.
    ..........
    ..........
    ..........
    ..........

u+0170:
Uhungarumlaut:
    ..........
    ...@@..@@.
    ..@@..@@..
    ..........
    .@@....@@.
    .@@....@@.
    .@@....@@.
    .@@....@@.
    .@@....@@.
    .@@....@@.
    .@@....@@.
    .@@....@@.
    .@@....@@.
    .@@....@@.
    ..@@..@@..
    ...@@@@...
    ..........
    ..........
    ..........
    ..........

u+0171:
uhungarumlaut:
    ..........
    ..........
    ..........
    ..........
    ..........
    ...@@..@@.
    ..@@..@@..
    ..........
    .@@....@@.
    .@@....@@.
    .@@....@@.
    .@@....@@.
    .@@....@@.
    .@@....@@.
    ..@@..@@@.
    ...@@@.@@.
    ..........
    ..........
    ..........
    ..........

u+0172:
Uogonek:
    ..........
    ..........
    ..........
    .@@....@@.
    .@@....@@.
    .@@....@@.
    .@@....@@.
    .@@....@@.
    .@@....@@.
    .@@....@@.
    .@@....@@.
    .@@....@@.
    .@@....@@.
    .@@....@@.
    ..@@..@@..
    ...@@@@...
    .....@@...
    ....@@@...
    ....@@....
    .....@@@..

u+0173:
uogonek:
    ..........
    ..........
    ..........
    ..........
    ..........
    ..........
    ..........
    ..........
    .@@....@@.
    .@@....@@.
    .@@....@@.
    .@@....@@.
    .@@....@@.
    .@@....@@.
    ..@@..@@@.
    ...@@@.@@.
    ......@@@.
    .....@@...
    .....@@...
    ......@@@.

u+0174:
Wcircumflex:
    ....@@....
    ...@@@@...
    ..@@..@@..
    ..........
    .@@....@@.
    .@@....@@.
    .@@....@@.
    .@@....@@.
    .@@.@@.@@.
    .@@.@@.@@.
    .@@.@@.@@.
    .@@.@@.@@.
    .@@@..@@@.
    .@@@..@@@.
    .@@....@@.
    .@@....@@.
    ..........
    ..........
    ..........
    ..........

u+0175:
wcircumflex:
    ..........
    ..........
    ..........
    ..........
    ....@@....
    ...@@@@...
    ..@@..@@..
    ..........
    .@@....@@.
    .@@....@@.
    .@@....@@.
    .@@.@@.@@.
    .@@.@@.@@.
    .@@.@@.@@.
    .@@@@@@@@.
    ..@@..@@..
    ..........
    ..........
    ..........
    ..........

u+0176:
Ycircumflex:
    ....@@....
    ...@@@@...
    ..@@..@@..
    ..........
    .@@....@@.
    ..@@..@@..
    ..@@..@@..
    ...@@@@...
    ...@@@@...
    ....@@....
    ....@@....
    ....@@....
    ....@@....
    ....@@....
    ....@@....
    ....@@....
    ..........
    ..........
    ..........
    ..........

u+0177:
ycircumflex:
    ..........
    ..........
    ..........
    ..........
    ....@@....
    ...@@@@...
    ..@@..@@..
    ..........
    .@@....@@.
    .@@....@@.
    .@@....@@.
    .@@....@@.
    .@@....@@.
    .@@....@@.
    ..@@..@@@.
    ...@@@.@@.
    .......@@.
    .@@....@@.
    ..@@..@@..
    ...@@@@...

u+0178:
Ydieresis:
    ..........
    ..@@..@@..
    ..@@..@@..
    ..........
    .@@....@@.
    .@@....@@.
    ..@@..@@..
    ..@@..@@..
    ...@@@@...
    ...@@@@...
    ....@@....
    ....@@....
    ....@@....
    ....@@....
    ....@@....
    ....@@....
    ..........
    ..........
    ..........
    ..........

u+0179:
Zacute:
    ......@@..
    .....@@...
    ....@@....
    ..........
    .@@@@@@@@.
    .......@@.
    ......@@..
    .....@@...
    .....@@...
    ....@@....
    ...@@.....
    ...@@.....
    ..@@......
    .@@.......
    .@@.......
    .@@@@@@@@.
    ..........
    ..........
    ..........
    ..........

u+017a:
zacute:
    ..........
    ..........
    ..........
    ..........
    ......@@..
    .....@@...
    ....@@....
    ..........
    ..@@@@@@@.
    .......@@.
    ......@@..
    .....@@...
    ....@@....
    ...@@.....
    ..@@......
    ..@@@@@@@.
    ..........
    ..........
    ..........
    ..........

u+017b:
Zdotaccent:
    ..........
    ....@@....
    ....@@....
    ..........
    .@@@@@@@@.
    .......@@.
    ......@@..
    .....@@...
    .....@@...
    ....@@....
    ...@@.....
    ...@@.....
    ..@@......
    .@@.......
    .@@.......
    .@@@@@@@@.
    ..........
    ..........
    ..........
    ..........

u+017c:
zdotaccent:
    ..........
    ..........
    ..........
    ..........
    ..........
    .....@@...
    .....@@...
    ..........
    ..@@@@@@@.
    .......@@.
    ......@@..
    .....@@...
    ....@@....
    ...@@.....
    ..@@......
    ..@@@@@@@.
    ..........
    ..........
    ..........
    ..........

u+017d:
Zcaron:
    ..........
    ..@@..@@..
    ...@@@@...
    ....@@....
    ..........
    .@@@@@@@@.
    .......@@.
    ......@@..
    .....@@...
    .....@@...
    ....@@....
    ...@@.....
    ...@@.....
    ..@@......
    .@@.......
    .@@@@@@@@.
    ..........
    ..........
    ..........
    ..........

u+017e:
zcaron:
    ..........
    ..........
    ..........
    ..........
    ..@@..@@..
    ...@@@@...
    ....@@....
    ..........
    ..@@@@@@@.
    .......@@.
    ......@@..
    .....@@...
    ....@@....
    ...@@.....
    ..@@......
    ..@@@@@@@.
    ..........
    ..........
    ..........
    ..........

u+017f:
longs:
    ..........
    ..........
    ..........
    ....@@@@..
    ...@@..@@.
    ...@@.....
    ...@@.....
    ...@@.....
    .@@@@.....
    ...@@.....
    ...@@.....
    ...@@.....
    ...@@.....
    ...@@.....
    ...@@.....
    ...@@.....
    ..........
    ..........
    ..........
    ..........

u+0180:
uni0180:
    ..........
    ..........
    ..........
    .@@.......
    .@@.......
    @@@@@.....
    .@@.......
    .@@.......
    .@@.@@@...
    .@@@..@@..
    .@@....@@.
    .@@....@@.
    .@@....@@.
    .@@....@@.
    .@@@..@@..
    .@@.@@@...
    ..........
    ..........
    ..........
    ..........

u+0181:
uni0181:
    ..........
    ..........
    ..........
    .@@@@@....
    @.@@.@@...
    @.@@..@@..
    ..@@..@@..
    ..@@..@@..
    ..@@.@@...
    ..@@@@@...
    ..@@..@@..
    ..@@...@@.
    ..@@...@@.
    ..@@...@@.
    ..@@..@@..
    ..@@@@@...
    ..........
    ..........
    ..........
    ..........

u+0182:
uni0182:
    ..........
    ..........
    ..........
    .@@@@@@@..
    .@@.......
    .@@.......
    .@@.......
    .@@.......
    .@@@@@@...
    .@@...@@..
    .@@....@@.
    .@@....@@.
    .@@....@@.
    .@@....@@.
    .@@...@@..
    .@@@@@@...
    ..........
    ..........
    ..........
    ..........

u+0183:
uni0183:
    ..........
    ..........
    ..........
    .@@@@@@...
    .@@.......
    .@@.......
    .@@.......
    .@@.......
    .@@.@@....
    .@@@.@@...
    .@@...@@..
    .@@...@@..
    .@@...@@..
    .@@...@@..
    .@@@.@@...
    .@@.@@....
    ..........
    ..........
    ..........
    ..........

u+0184:
uni0184:
    ..........
    ..........
    ..........
    .@@.......
    @@@.......
    @@@.......
    .@@.......
    .@@.......
    .@@@@@@...
    .@@...@@..
    .@@....@@.
    .@@....@@.
    .@@....@@.
    .@@....@@.
    .@@...@@..
    .@@@@@@...
    ..........
    ..........
    ..........
    ..........

u+0185:
uni0185:
    ..........
    ..........
    ..........
    ..........
    ..@@......
    .@@@......
    .@@@......
    ..@@......
    ..@@.@@...
    ..@@@.@@..
    ..@@...@@.
    ..@@...@@.
    ..@@...@@.
    ..@@...@@.
    ..@@@.@@..
    ..@@.@@...
    ..........
    ..........
    ..........
    ..........

u+0186:
uni0186:
    ..........
    ..........
    ..........
    ...@@@@...
    ..@@..@@..
    .@@....@@.
    .......@@.
    .......@@.
    .......@@.
    .......@@.
    .......@@.
    .......@@.
    .......@@.
    .@@....@@.
    ..@@..@@..
    ...@@@@...
    ..........
    ..........
    ..........
    ..........

u+0187:
uni0187:
    ..........
    ........@@
    .......@@.
    ...@@@@@..
    ..@@..@@..
    .@@....@..
    .@@.......
    .@@.......
    .@@.......
    .@@.......
    .@@.......
    .@@.......
    .@@.......
    .@@....@@.
    ..@@..@@..
    ...@@@@...
    ..........
    ..........
    ..........
    ..........

u+0188:
uni0188:
    ..........
    ..........
    ..........
    ..........
    ..........
    ........@@
    .......@@.
    .......@..
    ...@@@@@..
    ..@@...@..
    .@@.......
    .@@.......
    .@@.......
    .@@.......
    ..@@...@@.
    ...@@@@@..
    ..........
    ..........
    ..........
    ..........

u+0189:
uni0189:
    ..........
    ..........
    ..........
    .@@@@@@...
    .@@...@@..
    .@@....@@.
    .@@....@@.
    .@@....@@.
    .@@....@@.
    @@@@...@@.
    .@@....@@.
    .@@....@@.
    .@@....@@.
    .@@....@@.
    .@@...@@..
    .@@@@@@...
    ..........
    ..........
    ..........
    ..........

u+018a:
uni018A:
    ..........
    ..........
    ..........
    .@@@@@@...
    @.@@..@@..
    @.@@...@@.
    ..@@...@@.
    ..@@...@@.
    ..@@...@@.
    ..@@...@@.
    ..@@...@@.
    ..@@...@@.
    ..@@...@@.
    ..@@...@@.
    ..@@..@@..
    ..@@@@@...
    ..........
    ..........
    ..........
    ..........

u+018b:
uni018B:
    ..........
    ..........
    ..........
    ..@@@@@@@.
    .......@@.
    .......@@.
    .......@@.
    .......@@.
    ...@@@@@@.
    ..@@...@@.
    .@@....@@.
    .@@....@@.
    .@@....@@.
    .@@....@@.
    ..@@...@@.
    ...@@@@@@.
    ..........
    ..........
    ..........
    ..........

u+018c:
uni018C:
    ..........
    ..........
    ..........
    ..@@@@@@..
    ......@@..
    ......@@..
    ......@@..
    ......@@..
    ...@@.@@..
    ..@@.@@@..
    .@@...@@..
    .@@...@@..
    .@@...@@..
    .@@...@@..
    ..@@.@@@..
    ...@@.@@..
    ..........
    ..........
    ..........
    ..........

u+018d:
uni018D:
    ..........
    ..........
    ..........
    ..........
    ..........
    ..........
    ..........
    ..........
    ...@@@@...
    ..@@..@@..
    .@@....@@.
    .@@....@@.
    .@@....@@.
    .@@....@@.
    ..@@..@@..
    ...@@@@...
    .....@@...
    ......@@..
    ..@@...@@.
    ...@@@@@..

u+018e:
uni018E:
    ..........
    ..........
    ..........
    .@@@@@@@@.
    .......@@.
    .......@@.
    .......@@.
    .......@@.
    .......@@.
    ...@@@@@@.
    .......@@.
    .......@@.
    .......@@.
    .......@@.
    .......@@.
    .@@@@@@@@.
    ..........
    ..........
    ..........
    ..........

u+018f:
uni018F:
    ..........
    ..........
    ..........
    ...@@@@...
    ..@@..@@..
    .@@....@@.
    .......@@.
    .......@@.
    .......@@.
    .@@@@@@@@.
    .@@....@@.
    .@@....@@.
    .@@....@@.
    .@@....@@.
    ..@@..@@..
    ...@@@@...
    ..........
    ..........
    ..........
    ..........

u+0190:
uni0190:
    ..........
    ..........
    ..........
    ...@@@@@..
    ..@@...@@.
    .@@.......
    .@@.......
    .@@.......
    ..@@......
    ...@@@@@..
    ..@@......
    .@@.......
    .@@.......
    .@@.......
    ..@@...@@.
    ...@@@@@..
    ..........
    ..........
    ..........
    ..........

u+0191:
uni0191:
    ..........
    ..........
    ..........
    .@@@@@@@@.
    .@@.......
    .@@.......
    .@@.......
    .@@.......
    .@@.......
    .@@@@@@...
    .@@.......
    .@@.......
    .@@.......
    .@@.......
    .@@.......
    .@@.......
    .@@.......
    .@@.......
    @@........
    ..........

u+0192:
florin:
    ..........
    ..........
    ..........
    ....@@@@..
    ...@@..@@.
    ...@@..@@.
    ...@@.....
    ...@@.....
    .@@@@@@...
    ...@@.....
    ...@@.....
    ...@@.....
    ...@@.....
    ...@@.....
    ...@@.....
    ...@@.....
    ...@@.....
    @@.@@.....
    .@@@......
    ..........

u+0193:
uni0193:
    ..........
    ........@@
    .......@@.
    ...@@@@@..
    ..@@..@@..
    .@@.......
    .@@.......
    .@@.......
    .@@.......
    .@@..@@@@.
    .@@....@@.
    .@@....@@.
    .@@....@@.
    .@@....@@.
    ..@@..@@@.
    ...@@@@.@.
    ..........
    ..........
    ..........
    ..........

u+0194:
uni0194:
    ..........
    ..........
    ..........
    .@@....@@.
    .@@....@@.
    .@@....@@.
    ..@@..@@..
    ..@@..@@..
    ..@@..@@..
    ...@@@@...
    ...@@@@...
    ....@@....
    ...@@@@...
    ..@@..@@..
    ..@@..@@..
    ...@@@@...
    ..........
    ..........
    ..........
    ..........

u+0195:
uni0195:
    ..........
    ..........
    ..........
    .@@.......
    .@@.......
    .@@.......
    .@@.......
    .@@.......
    .@@@@..@@.
    .@@.@@.@@.
    .@@.@@.@@.
    .@@.@@.@@.
    .@@.@@.@@.
    .@@.@@.@@.
    .@@.@@.@@.
    .@@..@@@..
    ..........
    ..........
    ..........
    ..........

u+0196:
uni0196:
    ..........
    ..........
    ..........
    ..@@@@....
    ....@@....
    ....@@....
    ....@@....
    ....@@....
    ....@@....
    ....@@....
    ....@@....
    ....@@....
    ....@@....
    ....@@....
    ....@@.@@.
    .....@@@..
    ..........
    ..........
    ..........
    ..........

u+0197:
uni0197:
    ..........
    ..........
    ..........
    .@@@@@@@@.
    ....@@....
    ....@@....
    ....@@....
    ....@@....
    ..@@@@@@..
    ....@@....
    ....@@....
    ....@@....
    ....@@....
    ....@@....
    ....@@....
    .@@@@@@@@.
    ..........
    ..........
    ..........
    ..........

u+0198:
uni0198:
    ..........
    ..........
    ..........
    .@@...@@@.
    .@@..@@.@@
    .@@..@@...
    .@@.@@....
    .@@.@@....
    .@@.@@....
    .@@@@.....
    .@@.@@....
    .@@.@@....
    .@@..@@...
    .@@..@@...
    .@@...@@..
    .@@...@@..
    ..........
    ..........
    ..........
    ..........

u+0199:
uni0199:
    ..........
    ..........
    ..........
    ..@@@.....
    .@@.......
    .@@.......
    .@@.......
    .@@.......
    .@@...@@..
    .@@..@@...
    .@@.@@....
    .@@@@.....
    .@@@@@....
    .@@..@@...
    .@@...@@..
    .@@....@@.
    ..........
    ..........
    ..........
    ..........

u+019a:
uni019A:
    ..........
    ..........
    ..........
    ..@@@@....
    ....@@....
    ....@@....
    ....@@....
    ....@@....
    ..@@@@@@..
    ....@@....
    ....@@....
    ....@@....
    ....@@....
    ....@@....
    ....@@....
    .@@@@@@@@.
    ..........
    ..........
    ..........
    ..........

u+019b:
uni019B:
    ..........
    ..........
    ..........
    .@@.......
    .@@..@@...
    ..@@@@....
    ..@@@.....
    .@@@@.....
    @@..@@....
    ....@@....
    ...@@@@...
    ...@@@@...
    ..@@..@@..
    ..@@..@@..
    .@@....@@.
    .@@....@@.
    ..........
    ..........
    ..........
    ..........

u+019c:
uni019C:
    ..........
    ..........
    ..........
    .@@.@@.@@.
    .@@.@@.@@.
    .@@.@@.@@.
    .@@.@@.@@.
    .@@.@@.@@.
    .@@.@@.@@.
    .@@.@@.@@.
    .@@.@@.@@.
    .@@.@@.@@.
    .@@.@@.@@.
    .@@.@@.@@.
    .@@@@@@@@.
    ..@@.@@.@.
    ..........
    ..........
    ..........
    ..........

u+019d:
uni019D:
    ..........
    ..........
    ..........
    .@@....@@.
    .@@@...@@.
    .@@@...@@.
    .@@@@..@@.
    .@@@@..@@.
    .@@.@@.@@.
    .@@.@@.@@.
    .@@..@@@@.
    .@@..@@@@.
    .@@...@@@.
    .@@...@@@.
    .@@....@@.
    .@@....@@.
    .@@.......
    .@@.......
    .@@.......
    @@........

u+019e:
uni019E:
    ..........
    ..........
    ..........
    ..........
    ..........
    ..........
    ..........
    ..........
    .@@.@@@...
    .@@@..@@..
    .@@....@@.
    .@@....@@.
    .@@....@@.
    .@@....@@.
    .@@....@@.
    .@@....@@.
    .......@@.
    .......@@.
    .......@@.
    .......@@.

u+019f:
uni019F:
    ..........
    ..........
    ..........
    ...@@@@...
    ..@@..@@..
    .@@....@@.
    .@@....@@.
    .@@....@@.
    .@@....@@.
    .@@@@@@@@.
    .@@....@@.
    .@@....@@.
    .@@....@@.
    .@@....@@.
    ..@@..@@..
    ...@@@@...
    ..........
    ..........
    ..........
    ..........

u+01a0:
Ohorn:
    ..........
    ..........
    ..........
    ...@@@..@@
    ..@@.@@.@@
    .@@...@@@.
    .@@...@@..
    .@@...@@..
    .@@...@@..
    .@@...@@..
    .@@...@@..
    .@@...@@..
    .@@...@@..
    .@@...@@..
    ..@@.@@...
    ...@@@....
    ..........
    ..........
    ..........
    ..........

u+01a1:
ohorn:
    ..........
    ..........
    ..........
    ..........
    ..........
    ..........
    ..........
    ..........
    ...@@@..@@
    ..@@.@@.@@
    .@@...@@@.
    .@@...@@..
    .@@...@@..
    .@@...@@..
    ..@@.@@...
    ...@@@....
    ..........
    ..........
    ..........
    ..........

u+01a2:
uni01A2:
    ..........
    ..........
    ..........
    ..@@.@@@..
    .@@@@@.@@.
    @@..@@.@@.
    @@..@@.@@.
    @@..@@.@@.
    @@..@@.@@.
    @@..@@.@@.
    @@..@@.@@.
    @@..@@.@@.
    @@..@@.@@.
    @@..@@.@@.
    .@@@@..@@.
    ..@@...@@.
    .......@@.
    .......@@.
    .......@@.
    .......@@.

u+01a3:
uni01A3:
    ..........
    ..........
    ..........
    ..........
    ..........
    ..........
    ..........
    ..........
    ..@@.@@@..
    .@@@@@.@@.
    @@..@@.@@.
    @@..@@.@@.
    @@..@@.@@.
    @@..@@.@@.
    .@@@@..@@.
    ..@@...@@.
    .......@@.
    .......@@.
    .......@@.
    .......@@.

u+01a4:
uni01A4:
    ..........
    ..........
    ..........
    .@@@@@@...
    @.@@..@@..
    @.@@...@@.
    ..@@...@@.
    ..@@...@@.
    ..@@...@@.
    ..@@..@@..
    ..@@@@@...
    ..@@......
    ..@@......
    ..@@......
    ..@@......
    ..@@......
    ..........
    ..........
    ..........
    ..........

u+01a5:
uni01A5:
    ..........
    ..........
    ..........
    ..@@@.....
    .@@.@@....
    .@@.......
    .@@.......
    .@@.......
    .@@.@@@...
    .@@@..@@..
    .@@....@@.
    .@@....@@.
    .@@....@@.
    .@@....@@.
    .@@@..@@..
    .@@.@@@...
    .@@.......
    .@@.......
    .@@.......
    .@@.......

u+01a6:
uni01A6:
    ..........
    .@@.......
    .@@.......
    .@@@@@@...
    .@@...@@..
    .@@....@@.
    .@@....@@.
    .@@....@@.
    .@@....@@.
    .@@...@@..
    .@@@@@@...
    .@@..@@...
    .@@...@@..
    .@@...@@..
    .@@....@@.
    .@@....@@.
    ........@@
    ........@@
    ..........
    ..........

u+01a7:
uni01A7:
    ..........
    ..........
    ..........
    ...@@@@...
    ..@@..@@..
    .@@....@@.
    .......@@.
    .......@@.
    ......@@..
    ...@@@@...
    ..@@......
    .@@.......
    .@@.......
    .@@....@@.
    ..@@..@@..
    ...@@@@...
    ..........
    ..........
    ..........
    ..........

u+01a8:
uni01A8:
    ..........
    ..........
    ..........
    ..........
    ..........
    ..........
    ..........
    ..........
    ..@@@@@@..
    .@@....@@.
    .......@@.
    ..@@@@@@..
    .@@.......
    .@@.......
    .@@....@@.
    ..@@@@@@..
    ..........
    ..........
    ..........
    ..........

u+01a9:
uni01A9:
    ..........
    ..........
    ..........
    .@@@@@@@@.
    .@@.......
    ..@@......
    ...@@.....
    ....@@....
    .....@@...
    .....@@...
    ....@@....
    ...@@.....
    ...@@.....
    ..@@......
    .@@.......
    .@@@@@@@@.
    ..........
    ..........
    ..........
    ..........

u+01aa:
uni01AA:
    ..........
    ..........
    ..........
    ..@@@.....
    .@@.@@....
    .@...@....
    .@@.@@....
    ..@@@@....
    ....@@....
    ....@@....
    ....@@....
    ....@@....
    ....@@....
    ....@@....
    ....@@....
    ....@@....
    ....@@....
    ....@@....
    .....@@...
    ......@@@.

u+01ab:
uni01AB:
    ..........
    ..........
    ..........
    ..........
    ..........
    ...@@.....
    ...@@.....
    ...@@.....
    .@@@@@@...
    ...@@.....
    ...@@.....
    ...@@.....
    ...@@.....
    ...@@.....
    ...@@.....
    ....@@@@@.
    .......@@.
    .......@@.
    ......@@..
    ...@@@@...

u+01ac:
uni01AC:
    ..........
    ..........
    ..........
    .@@@@@@@@.
    @@..@@....
    @@..@@....
    @@..@@....
    ....@@....
    ....@@....
    ....@@....
    ....@@....
    ....@@....
    ....@@....
    ....@@....
    ....@@....
    ....@@....
    ..........
    ..........
    ..........
    ..........

u+01ad:
uni01AD:
    ..........
    ..........
    ..........
    ..........
    ....@@@@..
    ...@@..@@.
    ...@@.....
    ...@@.....
    .@@@@@@...
    ...@@.....
    ...@@.....
    ...@@.....
    ...@@.....
    ...@@.....
    ...@@..@@.
    ....@@@@..
    ..........
    ..........
    ..........
    ..........

u+01ae:
uni01AE:
    ..........
    ..........
    ..........
    .@@@@@@@@.
    ....@@....
    ....@@....
    ....@@....
    ....@@....
    ....@@....
    ....@@....
    ....@@....
    ....@@....
    ....@@....
    ....@@....
    ....@@....
    ....@@....
    ....@@....
    ....@@....
    ....@@....
    .....@@@..

u+01af:
Uhorn:
    ..........
    ..........
    ..........
    .@@..@@.@@
    .@@..@@.@@
    .@@..@@@@.
    .@@..@@...
    .@@..@@...
    .@@..@@...
    .@@..@@...
    .@@..@@...
    .@@..@@...
    .@@..@@...
    .@@..@@...
    ..@@@@....
    ...@@.....
    ..........
    ..........
    ..........
    ..........

u+01b0:
uhorn:
    ..........
    ..........
    ..........
    ..........
    ..........
    ..........
    ..........
    ..........
    .@@..@@.@@
    .@@..@@.@@
    .@@..@@@@.
    .@@..@@...
    .@@..@@...
    .@@..@@...
    ..@@@@@...
    ...@@@@...
    ..........
    ..........
    ..........
    ..........

u+01b1:
uni01B1:
    ..........
    ..........
    ..........
    .@@@..@@@.
    ...@..@...
    ..@@..@@..
    .@@....@@.
    .@@....@@.
    .@@....@@.
    .@@....@@.
    .@@....@@.
    .@@....@@.
    .@@....@@.
    .@@....@@.
    ..@@..@@..
    ...@@@@...
    ..........
    ..........
    ..........
    ..........

u+01b2:
uni01B2:
    ..........
    ..........
    ..........
    .@@..@@...
    .@@..@@...
    .@@...@@..
    .@@...@@..
    .@@....@@.
    .@@....@@.
    .@@....@@.
    .@@....@@.
    .@@....@@.
    .@@....@@.
    .@@....@@.
    ..@@..@@..
    ...@@@@...
    ..........
    ..........
    ..........
    ..........

u+01b3:
uni01B3:
    ..........
    ..........
    ..........
    .@@@@..@@.
    @@.@@..@@.
    @@.@@..@@.
    ...@@..@@.
    ....@@@@..
    ....@@@@..
    .....@@...
    .....@@...
    .....@@...
    .....@@...
    .....@@...
    .....@@...
    .....@@...
    ..........
    ..........
    ..........
    ..........

u+01b4:
uni01B4:
    ..........
    ..........
    ..........
    ..........
    ..........
    .......@@@
    ......@@..
    ......@@..
    .@@...@@..
    .@@...@@..
    .@@...@@..
    .@@...@@..
    .@@...@@..
    .@@...@@..
    ..@@.@@@..
    ...@@.@@..
    ......@@..
    .@@...@@..
    ..@@.@@...
    ...@@@....

u+01b5:
uni01B5:
    ..........
    ..........
    ..........
    .@@@@@@@@.
    .......@@.
    .......@@.
    ......@@..
    ......@@..
    .....@@...
    ..@@@@@@..
    ...@@.....
    ..@@......
    ..@@......
    .@@.......
    .@@.......
    .@@@@@@@@.
    ..........
    ..........
    ..........
    ..........

u+01b6:
uni01B6:
    ..........
    ..........
    ..........
    ..........
    ..........
    ..........
    ..........
    ..........
    ..@@@@@@@.
    .......@@.
    ......@@..
    ...@@@@@@.
    ....@@....
    ...@@.....
    ..@@......
    ..@@@@@@@.
    ..........
    ..........
    ..........
    ..........

u+01b7:
uni01B7:
    ..........
    ..........
    ..........
    .@@@@@@@@.
    .......@@.
    ......@@..
    .....@@...
    ....@@....
    ...@@@@...
    ......@@..
    .......@@.
    .......@@.
    .@@....@@.
    .@@....@@.
    ..@@..@@..
    ...@@@@...
    ..........
    ..........
    ..........
    ..........

u+01b8:
uni01B8:
    ..........
    ..........
    ..........
    .@@@@@@@@.
    .@@.......
    ..@@......
    ...@@.....
    ....@@....
    ...@@@@...
    ..@@......
    .@@.......
    .@@.......
    .@@....@@.
    .@@....@@.
    ..@@..@@..
    ...@@@@...
    ..........
    ..........
    ..........
    ..........

u+01b9:
uni01B9:
    ..........
    ..........
    ..........
    ..........
    ..........
    ..........
    ..........
    ..........
    .@@@@@@@..
    .@@.......
    ..@@......
    ...@@.....
    ....@@....
    ...@@@@...
    ..@@......
    .@@.......
    .@@....@@.
    .@@....@@.
    ..@@..@@..
    ...@@@@...

u+01ba:
uni01BA:
    ..........
    ..........
    ..........
    ..........
    ..........
    ..........
    ..........
    ..........
    ..@@@@@@@.
    .......@@.
    ......@@..
    .....@@...
    ...@@@@@..
    .......@@.
    .......@@.
    .....@@@..
    ....@@....
    ...@@.....
    ...@@.@@..
    ....@@@...

u+01bb:
uni01BB:
    ..........
    ..........
    ..........
    ...@@@@...
    ..@@..@@..
    .@@....@@.
    .@@....@@.
    .......@@.
    .......@@.
    ......@@..
    .@@@@@@@@.
    ...@@.....
    ..@@......
    .@@.......
    .@@.......
    .@@@@@@@@.
    ..........
    ..........
    ..........
    ..........

u+01bc:
uni01BC:
    ..........
    ..........
    ..........
    .@@@@@@@@.
    .@@.....@.
    .@@.......
    .@@.......
    .@@.......
    .@@.@@@...
    .@@@..@@..
    .......@@.
    .......@@.
    .......@@.
    .@@....@@.
    ..@@..@@..
    ...@@@@...
    ..........
    ..........
    ..........
    ..........

u+01bd:
uni01BD:
    ..........
    ..........
    ..........
    ..@@@@@@..
    ..@@...@..
    ..@@......
    ..@@......
    ..@@......
    ..@@@@@...
    ..@@@.@@..
    ......@@..
    ......@@..
    ......@@..
    ..@@..@@..
    ...@@@@...
    ....@@....
    ..........
    ..........
    ..........
    ..........

u+01be:
uni01BE:
    ..........
    ..........
    ..........
    ..........
    ..........
    ...@@.....
    ...@@.....
    ...@@.....
    .@@@@@@...
    ...@@.....
    ...@@.....
    ....@@....
    .....@@...
    ......@@..
    ..@@..@@..
    ...@@@@...
    ..........
    ..........
    ..........
    ..........

u+01bf:
uni01BF:
    ..........
    ..........
    ..........
    ..........
    ..........
    ..........
    ..........
    ..........
    .@@.@@@...
    .@@@..@@..
    .@@....@@.
    .@@....@@.
    .@@....@@.
    .@@....@@.
    .@@...@@..
    .@@.@@@...
    .@@@@.....
    .@@.......
    .@@.......
    .@@.......

u+01c0:
uni01C0:
    ..........
    ..........
    ..........
    ....@@....
    ....@@....
    ....@@....
    ....@@....
    ....@@....
    ....@@....
    ....@@....
    ....@@....
    ....@@....
    ....@@....
    ....@@....
    ....@@....
    ....@@....
    ....@@....
    ....@@....
    ..........
    ..........

u+01c1:
uni01C1:
    ..........
    ..........
    ..........
    ..@@..@@..
    ..@@..@@..
    ..@@..@@..
    ..@@..@@..
    ..@@..@@..
    ..@@..@@..
    ..@@..@@..
    ..@@..@@..
    ..@@..@@..
    ..@@..@@..
    ..@@..@@..
    ..@@..@@..
    ..@@..@@..
    ..@@..@@..
    ..@@..@@..
    ..........
    ..........

u+01c2:
uni01C2:
    ..........
    ..........
    ..........
    ..........
    ..........
    ..........
    ..........
    ....@@....
    ....@@....
    .@@@@@@@@.
    ....@@....
    ....@@....
    ....@@....
    .@@@@@@@@.
    ....@@....
    ....@@....
    ..........
    ..........
    ..........
    ..........

u+01c3:
uni01C3:
    ..........
    ..........
    ..........
    ....@@....
    ....@@....
    ....@@....
    ....@@....
    ....@@....
    ....@@....
    ....@@....
    ....@@....
    ....@@....
    ..........
    ..........
    ....@@....
    ....@@....
    ..........
    ..........
    ..........
    ..........

u+01c4:
uni01C4:
    ..........
    .....@@.@@
    ......@@@.
    ..........
    @@@@..@@@@
    @@.@@...@@
    @@.@@...@@
    @@.@@...@@
    @@.@@..@@.
    @@.@@..@@.
    @@.@@..@@.
    @@.@@..@@.
    @@.@@.@@..
    @@.@@.@@..
    @@.@@.@@..
    @@@@..@@@@
    ..........
    ..........
    ..........
    ..........

u+01c5:
uni01C5:
    ..........
    ..........
    ..........
    @@@@......
    @@.@@.....
    @@.@@@@.@@
    @@.@@.@@@.
    @@.@@.....
    @@.@@.@@@@
    @@.@@...@@
    @@.@@...@@
    @@.@@..@@.
    @@.@@..@@.
    @@.@@.@@..
    @@.@@.@@..
    @@@@..@@@@
    ..........
    ..........
    ..........
    ..........

u+01c6:
uni01C6:
    ..........
    ..........
    ..........
    ...@@.....
    ...@@.....
    ...@@@@.@@
    ...@@.@@@.
    ...@@.....
    .@@@@.@@@@
    @@.@@...@@
    @@.@@...@@
    @@.@@..@@.
    @@.@@..@@.
    @@.@@.@@..
    @@.@@.@@..
    .@@@@.@@@@
    ..........
    ..........
    ..........
    ..........

u+01c7:
uni01C7:
    ..........
    ..........
    ..........
    @@...@@@@.
    @@.....@@.
    @@.....@@.
    @@.....@@.
    @@.....@@.
    @@.....@@.
    @@.....@@.
    @@.....@@.
    @@.....@@.
    @@.....@@.
    @@.....@@.
    @@..@@.@@.
    @@@@.@@@..
    ..........
    ..........
    ..........
    ..........

u+01c8:
uni01C8:
    ..........
    ..........
    ..........
    @@........
    @@........
    @@.....@@.
    @@.....@@.
    @@........
    @@...@@@@.
    @@.....@@.
    @@.....@@.
    @@.....@@.
    @@.....@@.
    @@.....@@.
    @@.....@@.
    @@@@@..@@.
    .......@@.
    ..@@...@@.
    ..@@...@@.
    ...@@@@@..

u+01c9:
uni01C9:
    ..........
    ..........
    ..........
    .@@@......
    ..@@......
    ..@@...@@.
    ..@@...@@.
    ..@@......
    ..@@.@@@@.
    ..@@...@@.
    ..@@...@@.
    ..@@...@@.
    ..@@...@@.
    ..@@...@@.
    ..@@...@@.
    @@@@@@.@@.
    .......@@.
    ..@@...@@.
    ..@@...@@.
    ...@@@@@..

u+01ca:
uni01CA:
    ..........
    ..........
    ..........
    @@..@@.@@.
    @@..@@.@@.
    @@..@@.@@.
    @@@.@@.@@.
    @@@.@@.@@.
    @@@.@@.@@.
    @@@@@@.@@.
    @@.@@@.@@.
    @@.@@@.@@.
    @@.@@@.@@.
    @@..@@.@@.
    @@..@@.@@.
    @@..@@.@@.
    .......@@.
    ..@@..@@..
    ...@@@@...
    ..........

u+01cb:
uni01CB:
    ..........
    ..........
    ..........
    @@..@@....
    @@..@@....
    @@..@@.@@.
    @@@.@@.@@.
    @@@.@@....
    @@@.@@.@@.
    @@@@@@.@@.
    @@.@@@.@@.
    @@.@@@.@@.
    @@.@@@.@@.
    @@..@@.@@.
    @@..@@.@@.
    @@..@@.@@.
    .......@@.
    ..@@...@@.
    ..@@...@@.
    ...@@@@@..

u+01cc:
uni01CC:
    ..........
    ..........
    ..........
    ..........
    ..........
    .......@@.
    .......@@.
    ..........
    @@.@@..@@.
    @@@.@@.@@.
    @@..@@.@@.
    @@..@@.@@.
    @@..@@.@@.
    @@..@@.@@.
    @@..@@.@@.
    @@..@@.@@.
    .......@@.
    ..@@...@@.
    ..@@...@@.
    ...@@@@@..

u+01cd:
uni01CD:
    ..........
    ..@@..@@..
    ...@@@@...
    ....@@....
    ..........
    ....@@....
    ...@@@@...
    ..@@..@@..
    ..@@..@@..
    .@@....@@.
    .@@....@@.
    .@@@@@@@@.
    .@@....@@.
    .@@....@@.
    .@@....@@.
    .@@....@@.
    ..........
    ..........
    ..........
    ..........

u+01ce:
uni01CE:
    ..........
    ..........
    ..........
    ..........
    ..@@..@@..
    ...@@@@...
    ....@@....
    ..........
    ...@@@@@..
    ..@@...@@.
    .......@@.
    ..@@@@@@@.
    .@@....@@.
    .@@....@@.
    .@@....@@.
    ..@@@@@.@.
    ..........
    ..........
    ..........
    ..........

u+01cf:
uni01CF:
    ..........
    ..@@..@@..
    ...@@@@...
    ....@@....
    ..........
    .@@@@@@@@.
    ....@@....
    ....@@....
    ....@@....
    ....@@....
    ....@@....
    ....@@....
    ....@@....
    ....@@....
    ....@@....
    .@@@@@@@@.
    ..........
    ..........
    ..........
    ..........

u+01d0:
uni01D0:
    ..........
    ..........
    ..........
    ..........
    ..@@..@@..
    ...@@@@...
    ....@@....
    ..........
    ..@@@@....
    ....@@....
    ....@@....
    ....@@....
    ....@@....
    ....@@....
    ....@@....
    .@@@@@@@@.
    ..........
    ..........
    ..........
    ..........

u+01d1:
uni01D1:
    ..........
    ..@@..@@..
    ...@@@@...
    ....@@....
    ..........
    ...@@@@...
    ..@@..@@..
    .@@....@@.
    .@@....@@.
    .@@....@@.
    .@@....@@.
    .@@....@@.
    .@@....@@.
    .@@....@@.
    ..@@..@@..
    ...@@@@...
    ..........
    ..........
    ..........
    ..........

u+01d2:
uni01D2:
    ..........
    ..........
    ..........
    ..........
    ..@@..@@..
    ...@@@@...
    ....@@....
    ..........
    ...@@@@...
    ..@@..@@..
    .@@....@@.
    .@@....@@.
    .@@....@@.
    .@@....@@.
    ..@@..@@..
    ...@@@@...
    ..........
    ..........
    ..........
    ..........

u+01d3:
uni01D3:
    ..........
    ..@@..@@..
    ...@@@@...
    ....@@....
    .@@....@@.
    .@@....@@.
    .@@....@@.
    .@@....@@.
    .@@....@@.
    .@@....@@.
    .@@....@@.
    .@@....@@.
    .@@....@@.
    .@@....@@.
    ..@@..@@..
    ...@@@@...
    ..........
    ..........
    ..........
    ..........

u+01d4:
uni01D4:
    ..........
    ..........
    ..........
    ..........
    ..@@..@@..
    ...@@@@...
    ....@@....
    ..........
    .@@....@@.
    .@@....@@.
    .@@....@@.
    .@@....@@.
    .@@....@@.
    .@@....@@.
    ..@@..@@@.
    ...@@@.@@.
    ..........
    ..........
    ..........
    ..........

u+01d5:
uni01D5:
    ..........
    .@@@@@@@@.
    ..........
    ..@@..@@..
    ..@@..@@..
    ..........
    .@@....@@.
    .@@....@@.
    .@@....@@.
    .@@....@@.
    .@@....@@.
    .@@....@@.
    .@@....@@.
    .@@....@@.
    ..@@..@@..
    ...@@@@...
    ..........
    ..........
    ..........
    ..........

u+01d6:
uni01D6:
    ..........
    ..........
    ..........
    .@@@@@@@@.
    ..........
    ..@@..@@..
    ..@@..@@..
    ..........
    .@@....@@.
    .@@....@@.
    .@@....@@.
    .@@....@@.
    .@@....@@.
    .@@....@@.
    ..@@..@@@.
    ...@@@.@@.
    ..........
    ..........
    ..........
    ..........

u+01d7:
uni01D7:
    .....@@...
    ....@@....
    ..........
    ..@@..@@..
    ..@@..@@..
    ..........
    .@@....@@.
    .@@....@@.
    .@@....@@.
    .@@....@@.
    .@@....@@.
    .@@....@@.
    .@@....@@.
    .@@....@@.
    ..@@..@@..
    ...@@@@...
    ..........
    ..........
    ..........
    ..........

u+01d8:
uni01D8:
    ..........
    ..........
    .....@@...
    ....@@....
    ..........
    ..@@..@@..
    ..@@..@@..
    ..........
    .@@....@@.
    .@@....@@.
    .@@....@@.
    .@@....@@.
    .@@....@@.
    .@@....@@.
    ..@@..@@@.
    ...@@@.@@.
    ..........
    ..........
    ..........
    ..........

u+01d9:
uni01D9:
    ...@@.@@..
    ....@@@...
    ..........
    ..@@..@@..
    ..@@..@@..
    ..........
    .@@....@@.
    .@@....@@.
    .@@....@@.
    .@@....@@.
    .@@....@@.
    .@@....@@.
    .@@....@@.
    .@@....@@.
    ..@@..@@..
    ...@@@@...
    ..........
    ..........
    ..........
    ..........

u+01da:
uni01DA:
    ..........
    ..........
    ...@@.@@..
    ....@@@...
    ..........
    ..@@..@@..
    ..@@..@@..
    ..........
    .@@....@@.
    .@@....@@.
    .@@....@@.
    .@@....@@.
    .@@....@@.
    .@@....@@.
    ..@@..@@@.
    ...@@@.@@.
    ..........
    ..........
    ..........
    ..........

u+01db:
uni01DB:
    ...@@.....
    ....@@....
    ..........
    ..@@..@@..
    ..@@..@@..
    ..........
    .@@....@@.
    .@@....@@.
    .@@....@@.
    .@@....@@.
    .@@....@@.
    .@@....@@.
    .@@....@@.
    .@@....@@.
    ..@@..@@..
    ...@@@@...
    ..........
    ..........
    ..........
    ..........

u+01dc:
uni01DC:
    ..........
    ..........
    ...@@.....
    ....@@....
    ..........
    ..@@..@@..
    ..@@..@@..
    ..........
    .@@....@@.
    .@@....@@.
    .@@....@@.
    .@@....@@.
    .@@....@@.
    .@@....@@.
    ..@@..@@@.
    ...@@@.@@.
    ..........
    ..........
    ..........
    ..........

u+01dd:
uni01DD:
    ..........
    ..........
    ..........
    ..........
    ..........
    ..........
    ..........
    ..........
    ..@@@@@...
    .@@...@@..
    .......@@.
    .......@@.
    .@@@@@@@@.
    .@@....@@.
    ..@@..@@..
    ...@@@@...
    ..........
    ..........
    ..........
    ..........

u+01de:
uni01DE:
    .@@@@@@@@.
    ..........
    ..@@..@@..
    ..@@..@@..
    ..........
    ....@@....
    ...@@@@...
    ..@@..@@..
    .@@....@@.
    .@@....@@.
    .@@....@@.
    .@@@@@@@@.
    .@@....@@.
    .@@....@@.
    .@@....@@.
    .@@....@@.
    ..........
    ..........
    ..........
    ..........

u+01df:
uni01DF:
    ..........
    ..........
    ..........
    .@@@@@@@@.
    ..........
    ..@@..@@..
    ..@@..@@..
    ..........
    ...@@@@@..
    ..@@...@@.
    .......@@.
    ..@@@@@@@.
    .@@....@@.
    .@@....@@.
    .@@....@@.
    ..@@@@@.@.
    ..........
    ..........
    ..........
    ..........

u+01e0:
uni01E0:
    .@@@@@@@@.
    ..........
    ....@@....
    ....@@....
    ..........
    ....@@....
    ...@@@@...
    ..@@..@@..
    .@@....@@.
    .@@....@@.
    .@@....@@.
    .@@@@@@@@.
    .@@....@@.
    .@@....@@.
    .@@....@@.
    .@@....@@.
    ..........
    ..........
    ..........
    ..........

u+01e1:
uni01E1:
    ..........
    ..........
    ..........
    .@@@@@@@@.
    ..........
    ....@@....
    ....@@....
    ..........
    ...@@@@@..
    ..@@...@@.
    .......@@.
    ..@@@@@@@.
    .@@....@@.
    .@@....@@.
    .@@....@@.
    ..@@@@@.@.
    ..........
    ..........
    ..........
    ..........

u+01e2:
uni01E2:
    ..........
    .@@@@@@@@.
    ..........
    ....@@@@@.
    ...@@@@...
    ..@@.@@...
    ..@@.@@...
    .@@..@@...
    .@@..@@...
    .@@@@@@@@.
    .@@..@@...
    .@@..@@...
    .@@..@@...
    .@@..@@...
    .@@..@@...
    .@@..@@@@.
    ..........
    ..........
    ..........
    ..........

u+01e3:
uni01E3:
    ..........
    ..........
    ..........
    ..........
    ..........
    ..........
    .@@@@@@@@.
    ..........
    ..@@@.@@..
    .@..@@.@@.
    ....@@.@@.
    ....@@@@..
    ..@@@@....
    .@@.@@....
    .@@.@@..@.
    ..@@.@@@..
    ..........
    ..........
    ..........
    ..........

u+01e4:
uni01E4:
    ..........
    ..........
    ..........
    ...@@@@...
    ..@@..@@..
    .@@....@@.
    .@@.......
    .@@.......
    .@@.......
    .@@..@@@@.
    .@@....@@.
    .@@....@@.
    .@@..@@@@@
    .@@....@@.
    ..@@..@@@.
    ...@@@@.@.
    ..........
    ..........
    ..........
    ..........

u+01e5:
uni01E5:
    ..........
    ..........
    ..........
    ..........
    ..........
    ..........
    ..........
    ..........
    ..@@@@@.@.
    .@@...@@@.
    .@@...@@..
    .@@...@@..
    .@@...@@..
    ..@@@@@...
    .@@.......
    ..@@@@@@..
    .@@....@@.
    .@@..@@@@@
    .@@....@@.
    ..@@@@@@..

u+01e6:
Gcaron:
    ..........
    ..@@..@@..
    ...@@@@...
    ....@@....
    ..........
    ...@@@@...
    ..@@..@@..
    .@@.......
    .@@.......
    .@@.......
    .@@..@@@@.
    .@@....@@.
    .@@....@@.
    .@@....@@.
    ..@@..@@@.
    ...@@@@.@.
    ..........
    ..........
    ..........
    ..........

u+01e7:
gcaron:
    ..........
    ..........
    ..........
    ..........
    ..@@..@@..
    ...@@@@...
    ....@@....
    ..........
    ..@@@@@.@.
    .@@...@@@.
    .@@...@@..
    .@@...@@..
    .@@...@@..
    ..@@@@@...
    .@@.......
    ..@@@@@@..
    .@@....@@.
    .@@....@@.
    .@@....@@.
    ..@@@@@@..

u+01e8:
uni01E8:
    ..........
    ..@@..@@..
    ...@@@@...
    ....@@....
    .@@....@@.
    .@@...@@..
    .@@...@@..
    .@@..@@...
    .@@..@@...
    .@@@@@....
    .@@..@@...
    .@@..@@...
    .@@...@@..
    .@@...@@..
    .@@....@@.
    .@@....@@.
    ..........
    ..........
    ..........
    ..........

u+01e9:
uni01E9:
    ..........
    ..@@..@@..
    ...@@@@...
    ....@@....
    .@@.......
    .@@.......
    .@@.......
    .@@.......
    .@@...@@..
    .@@..@@...
    .@@.@@....
    .@@@@.....
    .@@@@@....
    .@@..@@...
    .@@...@@..
    .@@....@@.
    ..........
    ..........
    ..........
    ..........

u+01ea:
uni01EA:
    ..........
    ..........
    ..........
    ...@@@@...
    ..@@..@@..
    .@@....@@.
    .@@....@@.
    .@@....@@.
    .@@....@@.
    .@@....@@.
    .@@....@@.
    .@@....@@.
    .@@....@@.
    .@@....@@.
    ..@@..@@..
    ...@@@@...
    ....@@....
    ...@@.....
    ...@@.....
    ....@@@...

u+01eb:
uni01EB:
    ..........
    ..........
    ..........
    ..........
    ..........
    ..........
    ..........
    ..........
    ...@@@@...
    ..@@..@@..
    .@@....@@.
    .@@....@@.
    .@@....@@.
    .@@....@@.
    ..@@..@@..
    ...@@@@...
    ....@@....
    ...@@.....
    ...@@.....
    ....@@@...

u+01ec:
uni01EC:
    ..........
    .@@@@@@@@.
    ..........
    ...@@@@...
    ..@@..@@..
    .@@....@@.
    .@@....@@.
    .@@....@@.
    .@@....@@.
    .@@....@@.
    .@@....@@.
    .@@....@@.
    .@@....@@.
    .@@....@@.
    ..@@..@@..
    ...@@@@...
    ....@@....
    ...@@.....
    ...@@.....
    ....@@@...

u+01ed:
uni01ED:
    ..........
    ..........
    ..........
    ..........
    ..........
    ..........
    .@@@@@@@@.
    ..........
    ...@@@@...
    ..@@..@@..
    .@@....@@.
    .@@....@@.
    .@@....@@.
    .@@....@@.
    ..@@..@@..
    ...@@@@...
    ....@@....
    ...@@.....
    ...@@.....
    ....@@@...

u+01ee:
uni01EE:
    ..........
    ..@@..@@..
    ...@@@@...
    ....@@....
    ..........
    .@@@@@@@@.
    .......@@.
    ......@@..
    .....@@...
    ...@@@@...
    ......@@..
    .......@@.
    .@@....@@.
    .@@....@@.
    ..@@..@@..
    ...@@@@...
    ..........
    ..........
    ..........
    ..........

u+01ef:
uni01EF:
    ..........
    ..........
    ..........
    ..........
    ..@@..@@..
    ...@@@@...
    ....@@....
    ..........
    ..@@@@@@@.
    .......@@.
    ......@@..
    .....@@...
    ....@@....
    ...@@@@...
    ......@@..
    .......@@.
    .@@....@@.
    .@@....@@.
    ..@@..@@..
    ...@@@@...

u+01f0:
uni01F0:
    ..........
    ..........
    ..........
    ..........
    ....@@..@@
    .....@@@@.
    ......@@..
    ..........
    .....@@@@.
    .......@@.
    .......@@.
    .......@@.
    .......@@.
    .......@@.
    .......@@.
    .......@@.
    ..@@...@@.
    ..@@...@@.
    ..@@...@@.
    ...@@@@@..

u+01f1:
uni01F1:
    ..........
    ..........
    ..........
    @@@@..@@@@
    @@.@@...@@
    @@.@@...@@
    @@.@@...@@
    @@.@@..@@.
    @@.@@..@@.
    @@.@@..@@.
    @@.@@..@@.
    @@.@@..@@.
    @@.@@.@@..
    @@.@@.@@..
    @@.@@.@@..
    @@@@..@@@@
    ..........
    ..........
    ..........
    ..........

u+01f2:
uni01F2:
    ..........
    ..........
    ..........
    @@@@......
    @@.@@.....
    @@.@@.....
    @@.@@.....
    @@.@@.....
    @@.@@.@@@@
    @@.@@...@@
    @@.@@...@@
    @@.@@..@@.
    @@.@@..@@.
    @@.@@.@@..
    @@.@@.@@..
    @@@@..@@@@
    ..........
    ..........
    ..........
    ..........

u+01f3:
uni01F3:
    ..........
    ..........
    ..........
    ...@@.....
    ...@@.....
    ...@@.....
    ...@@.....
    ...@@.....
    .@@@@.@@@@
    @@.@@...@@
    @@.@@...@@
    @@.@@..@@.
    @@.@@..@@.
    @@.@@.@@..
    @@.@@.@@..
    .@@@@.@@@@
    ..........
    ..........
    ..........
    ..........

u+01f4:
uni01F4:
    ......@@..
    .....@@...
    ....@@....
    ..........
    ...@@@@...
    ..@@..@@..
    .@@....@@.
    .@@.......
    .@@.......
    .@@..@@@@.
    .@@....@@.
    .@@....@@.
    .@@....@@.
    .@@....@@.
    ..@@..@@@.
    ...@@@@.@.
    ..........
    ..........
    ..........
    ..........

u+01f5:
uni01F5:
    ..........
    ..........
    ..........
    ..........
    .....@@...
    ....@@....
    ...@@.....
    ..........
    ..@@@@@.@.
    .@@...@@@.
    .@@...@@..
    .@@...@@..
    .@@...@@..
    ..@@@@@...
    .@@.......
    ..@@@@@@..
    .@@....@@.
    .@@....@@.
    .@@....@@.
    ..@@@@@@..

u+01f6:
uni01F6:
    ..........
    ..........
    ..........
    .@@.@@....
    .@@.@@....
    .@@.@@....
    .@@.@@....
    .@@.@@....
    .@@.@@.@@.
    .@@@@@.@@.
    .@@.@@.@@.
    .@@.@@.@@.
    .@@.@@.@@.
    .@@.@@.@@.
    .@@.@@.@@.
    .@@..@@@..
    ..........
    ..........
    ..........
    ..........

u+01f7:
uni01F7:
    ..........
    ..........
    ..........
    .@@.@@@...
    .@@@@.@@..
    .@@....@@.
    .@@....@@.
    .@@....@@.
    .@@....@@.
    .@@...@@..
    .@@..@@...
    .@@.@@....
    .@@@@.....
    .@@.......
    .@@.......
    .@@.......
    .@@.......
    .@@.......
    .@........
    ..........

u+01f8:
uni01F8:
    ..........
    ...@@.....
    ....@@....
    .....@@...
    ..........
    .@@....@@.
    .@@@...@@.
    .@@@@..@@.
    .@@@@..@@.
    .@@.@@.@@.
    .@@.@@.@@.
    .@@..@@@@.
    .@@..@@@@.
    .@@...@@@.
    .@@....@@.
    .@@....@@.
    ..........
    ..........
    ..........
    ..........

u+01f9:
uni01F9:
    ..........
    ..........
    ..........
    ..........
    ...@@.....
    ....@@....
    .....@@...
    ..........
    .@@.@@@...
    .@@@..@@..
    .@@....@@.
    .@@....@@.
    .@@....@@.
    .@@....@@.
    .@@....@@.
    .@@....@@.
    ..........
    ..........
    ..........
    ..........

u+01fa:
Aringacute:
    .....@@...
    ....@@....
    ..........
    ....@@....
    ...@..@...
    ...@..@...
    ....@@....
    ....@@....
    ...@@@@...
    ..@@..@@..
    .@@....@@.
    .@@....@@.
    .@@@@@@@@.
    .@@....@@.
    .@@....@@.
    .@@....@@.
    ..........
    ..........
    ..........
    ..........

u+01fb:
aringacute:
    .....@@...
    ....@@....
    ..........
    ....@@....
    ...@..@...
    ...@..@...
    ....@@....
    ..........
    ..@@@@@@..
    .@@....@@.
    .......@@.
    ..@@@@@@@.
    .@@....@@.
    .@@....@@.
    .@@....@@.
    ..@@@@@.@.
    ..........
    ..........
    ..........
    ..........

u+01fc:
AEacute:
    ......@@..
    .....@@...
    ....@@....
    ..........
    ....@@@@@.
    ...@@@@...
    ..@@.@@...
    ..@@.@@...
    .@@..@@...
    .@@@@@@@@.
    .@@..@@...
    .@@..@@...
    .@@..@@...
    .@@..@@...
    .@@..@@...
    .@@..@@@@.
    ..........
    ..........
    ..........
    ..........

u+01fd:
aeacute:
    ..........
    ..........
    ..........
    ..........
    ......@@..
    .....@@...
    ....@@....
    ..........
    ..@@@.@@..
    .@..@@.@@.
    ....@@.@@.
    ....@@@@..
    ..@@@@....
    .@@.@@....
    .@@.@@..@.
    ..@@.@@@..
    ..........
    ..........
    ..........
    ..........

u+01fe:
Oslashacute:
    .....@@...
    ....@@....
    ...@@.....
    .......@..
    ...@@@@@..
    ..@@..@@..
    .@@...@@@.
    .@@..@.@@.
    .@@..@.@@.
    .@@..@.@@.
    .@@.@..@@.
    .@@.@..@@.
    .@@.@..@@.
    .@@@...@@.
    ..@@..@@..
    ..@@@@@...
    .@........
    ..........
    ..........
    ..........

u+01ff:
oslashacute:
    ..........
    ..........
    ..........
    ..........
    ......@@..
    .....@@...
    ....@@....
    ........@.
    ...@@@@@..
    ..@@..@@..
    .@@..@.@@.
    .@@..@.@@.
    .@@.@..@@.
    .@@.@..@@.
    ..@@..@@..
    ..@@@@@...
    .@........
    ..........
    ..........
    ..........

u+0200:
uni0200:
    ..........
    .@@..@@...
    ..@@..@@..
    ..........
    ....@@....
    ...@@@@...
    ..@@..@@..
    ..@@..@@..
    .@@....@@.
    .@@....@@.
    .@@....@@.
    .@@@@@@@@.
    .@@....@@.
    .@@....@@.
    .@@....@@.
    .@@....@@.
    ..........
    ..........
    ..........
    ..........

u+0201:
uni0201:
    ..........
    ..........
    ..........
    ..........
    ..........
    .@@..@@...
    ..@@..@@..
    ..........
    ...@@@@@..
    ..@@...@@.
    .......@@.
    ..@@@@@@@.
    .@@....@@.
    .@@....@@.
    .@@....@@.
    ..@@@@@.@.
    ..........
    ..........
    ..........
    ..........

u+0202:
uni0202:
    ..........
    ...@@@@...
    ..@@..@@..
    ..@....@..
    ..........
    ....@@....
    ...@@@@...
    ..@@..@@..
    .@@....@@.
    .@@....@@.
    .@@....@@.
    .@@@@@@@@.
    .@@....@@.
    .@@....@@.
    .@@....@@.
    .@@....@@.
    ..........
    ..........
    ..........
    ..........

u+0203:
uni0203:
    ..........
    ..........
    ..........
    ..........
    ...@@@@...
    ..@@..@@..
    ..@....@..
    ..........
    ...@@@@@..
    ..@@...@@.
    .......@@.
    ..@@@@@@@.
    .@@....@@.
    .@@....@@.
    .@@....@@.
    ..@@@@@.@.
    ..........
    ..........
    ..........
    ..........

u+0204:
uni0204:
    ..........
    .@@..@@...
    ..@@..@@..
    ..........
    .@@@@@@@@.
    .@@.......
    .@@.......
    .@@.......
    .@@.......
    .@@@@@@...
    .@@.......
    .@@.......
    .@@.......
    .@@.......
    .@@.......
    .@@@@@@@@.
    ..........
    ..........
    ..........
    ..........

u+0205:
uni0205:
    ..........
    ..........
    ..........
    ..........
    ..........
    .@@..@@...
    ..@@..@@..
    ..........
    ...@@@@...
    ..@@..@@..
    .@@....@@.
    .@@@@@@@@.
    .@@.......
    .@@.......
    ..@@...@@.
    ...@@@@@..
    ..........
    ..........
    ..........
    ..........

u+0206:
uni0206:
    ..........
    ...@@@@...
    ..@@..@@..
    ..@....@..
    ..........
    .@@@@@@@@.
    .@@.......
    .@@.......
    .@@.......
    .@@.......
    .@@@@@@...
    .@@.......
    .@@.......
    .@@.......
    .@@.......
    .@@@@@@@@.
    ..........
    ..........
    ..........
    ..........

u+0207:
uni0207:
    ..........
    ..........
    ..........
    ..........
    ...@@@@...
    ..@@..@@..
    ..@....@..
    ..........
    ...@@@@...
    ..@@..@@..
    .@@....@@.
    .@@@@@@@@.
    .@@.......
    .@@.......
    ..@@...@@.
    ...@@@@@..
    ..........
    ..........
    ..........
    ..........

u+0208:
uni0208:
    ..........
    .@@..@@...
    ..@@..@@..
    ..........
    .@@@@@@@@.
    ....@@....
    ....@@....
    ....@@....
    ....@@....
    ....@@....
    ....@@....
    ....@@....
    ....@@....
    ....@@....
    ....@@....
    .@@@@@@@@.
    ..........
    ..........
    ..........
    ..........

u+0209:
uni0209:
    ..........
    ..........
    ..........
    ..........
    ..........
    .@@..@@...
    ..@@..@@..
    ..........
    ..@@@@....
    ....@@....
    ....@@....
    ....@@....
    ....@@....
    ....@@....
    ....@@....
    .@@@@@@@@.
    ..........
    ..........
    ..........
    ..........

u+020a:
uni020A:
    ..........
    ...@@@@...
    ..@@..@@..
    ..@....@..
    ..........
    .@@@@@@@@.
    ....@@....
    ....@@....
    ....@@....
    ....@@....
    ....@@....
    ....@@....
    ....@@....
    ....@@....
    ....@@....
    .@@@@@@@@.
    ..........
    ..........
    ..........
    ..........

u+020b:
uni020B:
    ..........
    ..........
    ..........
    ..........
    ...@@@@...
    ..@@..@@..
    ..@....@..
    ..........
    ..@@@@....
    ....@@....
    ....@@....
    ....@@....
    ....@@....
    ....@@....
    ....@@....
    .@@@@@@@@.
    ..........
    ..........
    ..........
    ..........

u+020c:
uni020C:
    ..........
    .@@..@@...
    ..@@..@@..
    ..........
    ...@@@@...
    ..@@..@@..
    .@@....@@.
    .@@....@@.
    .@@....@@.
    .@@....@@.
    .@@....@@.
    .@@....@@.
    .@@....@@.
    .@@....@@.
    ..@@..@@..
    ...@@@@...
    ..........
    ..........
    ..........
    ..........

u+020d:
uni020D:
    ..........
    ..........
    ..........
    ..........
    ..........
    .@@..@@...
    ..@@..@@..
    ..........
    ...@@@@...
    ..@@..@@..
    .@@....@@.
    .@@....@@.
    .@@....@@.
    .@@....@@.
    ..@@..@@..
    ...@@@@...
    ..........
    ..........
    ..........
    ..........

u+020e:
uni020E:
    ..........
    ...@@@@...
    ..@@..@@..
    ..@....@..
    ..........
    ...@@@@...
    ..@@..@@..
    .@@....@@.
    .@@....@@.
    .@@....@@.
    .@@....@@.
    .@@....@@.
    .@@....@@.
    .@@....@@.
    ..@@..@@..
    ...@@@@...
    ..........
    ..........
    ..........
    ..........

u+020f:
uni020F:
    ..........
    ..........
    ..........
    ..........
    ...@@@@...
    ..@@..@@..
    ..@....@..
    ..........
    ...@@@@...
    ..@@..@@..
    .@@....@@.
    .@@....@@.
    .@@....@@.
    .@@....@@.
    ..@@..@@..
    ...@@@@...
    ..........
    ..........
    ..........
    ..........

u+0210:
uni0210:
    ..........
    .@@..@@...
    ..@@..@@..
    ..........
    .@@@@@@...
    .@@...@@..
    .@@....@@.
    .@@....@@.
    .@@....@@.
    .@@...@@..
    .@@@@@@...
    .@@..@@...
    .@@...@@..
    .@@...@@..
    .@@....@@.
    .@@....@@.
    ..........
    ..........
    ..........
    ..........

u+0211:
uni0211:
    ..........
    ..........
    ..........
    ..........
    ..........
    .@@..@@...
    ..@@..@@..
    ..........
    .@@.@@@@..
    ..@@@..@@.
    ..@@......
    ..@@......
    ..@@......
    ..@@......
    ..@@......
    ..@@......
    ..........
    ..........
    ..........
    ..........

u+0212:
uni0212:
    ..........
    ...@@@@...
    ..@@..@@..
    ..@....@..
    ..........
    .@@@@@@...
    .@@...@@..
    .@@....@@.
    .@@....@@.
    .@@...@@..
    .@@@@@@...
    .@@..@@...
    .@@...@@..
    .@@...@@..
    .@@....@@.
    .@@....@@.
    ..........
    ..........
    ..........
    ..........

u+0213:
uni0213:
    ..........
    ..........
    ..........
    ..........
    ...@@@@...
    ..@@..@@..
    ..@....@..
    ..........
    .@@.@@@@..
    ..@@@..@@.
    ..@@......
    ..@@......
    ..@@......
    ..@@......
    ..@@......
    ..@@......
    ..........
    ..........
    ..........
    ..........

u+0214:
uni0214:
    ..........
    .@@..@@...
    ..@@..@@..
    ..........
    .@@....@@.
    .@@....@@.
    .@@....@@.
    .@@....@@.
    .@@....@@.
    .@@....@@.
    .@@....@@.
    .@@....@@.
    .@@....@@.
    .@@....@@.
    ..@@..@@..
    ...@@@@...
    ..........
    ..........
    ..........
    ..........

u+0215:
uni0215:
    ..........
    ..........
    ..........
    ..........
    ..........
    .@@..@@...
    ..@@..@@..
    ..........
    .@@....@@.
    .@@....@@.
    .@@....@@.
    .@@....@@.
    .@@....@@.
    .@@....@@.
    ..@@..@@@.
    ...@@@.@@.
    ..........
    ..........
    ..........
    ..........

u+0216:
uni0216:
    ..........
    ...@@@@...
    ..@@..@@..
    ..@....@..
    ..........
    .@@....@@.
    .@@....@@.
    .@@....@@.
    .@@....@@.
    .@@....@@.
    .@@....@@.
    .@@....@@.
    .@@....@@.
    .@@....@@.
    ..@@..@@..
    ...@@@@...
    ..........
    ..........
    ..........
    ..........

u+0217:
uni0217:
    ..........
    ..........
    ..........
    ..........
    ...@@@@...
    ..@@..@@..
    ..@....@..
    ..........
    .@@....@@.
    .@@....@@.
    .@@....@@.
    .@@....@@.
    .@@....@@.
    .@@....@@.
    ..@@..@@@.
    ...@@@.@@.
    ..........
    ..........
    ..........
    ..........

u+0218:
Scommaaccent:
    ..........
    ..........
    ..........
    ...@@@@...
    ..@@..@@..
    .@@....@@.
    .@@.......
    .@@.......
    ..@@......
    ...@@@@...
    ......@@..
    .......@@.
    .......@@.
    .@@....@@.
    ..@@..@@..
    ...@@@@...
    ..........
    ....@@@...
    ....@@@...
    ...@@@....

u+0219:
scommaaccent:
    ..........
    ..........
    ..........
    ..........
    ..........
    ..........
    ..........
    ..........
    ..@@@@@@..
    .@@....@@.
    .@@.......
    ..@@@@@@..
    .......@@.
    .......@@.
    .@@....@@.
    ..@@@@@@..
    ..........
    ....@@@...
    ....@@@...
    ...@@@....

u+021a:
Tcommaaccent:
    ..........
    ..........
    ..........
    .@@@@@@@@.
    ....@@....
    ....@@....
    ....@@....
    ....@@....
    ....@@....
    ....@@....
    ....@@....
    ....@@....
    ....@@....
    ....@@....
    ....@@....
    ....@@....
    ..........
    ....@@@...
    ....@@@...
    ...@@@....

u+021b:
tcommaaccent:
    ..........
    ..........
    ..........
    ..........
    ..........
    ...@@.....
    ...@@.....
    ...@@.....
    .@@@@@@...
    ...@@.....
    ...@@.....
    ...@@.....
    ...@@.....
    ...@@.....
    ...@@..@@.
    ....@@@@..
    ..........
    ....@@@...
    ....@@@...
    ...@@@....

u+021c:
uni021C:
    ..........
    ..........
    ..........
    ...@@@@...
    ..@@..@@..
    ......@@..
    ......@@..
    .....@@...
    ....@@@...
    ...@@.@@..
    ..@@...@@.
    .......@@.
    ......@@..
    .....@@...
    ...@@@....
    .@@@......
    ..........
    ..........
    ..........
    ..........

u+021d:
uni021D:
    ..........
    ..........
    ..........
    ..........
    ..........
    ..........
    ..........
    ..........
    ...@@@@...
    ..@@..@@..
    ......@@..
    ......@@..
    .....@@...
    ....@@@...
    ...@@.@@..
    ..@@...@@.
    .......@@.
    ......@@..
    .....@@...
    ..@@@@....

u+021e:
uni021E:
    ..........
    ..@@..@@..
    ...@@@@...
    ....@@....
    .@@....@@.
    .@@....@@.
    .@@....@@.
    .@@....@@.
    .@@....@@.
    .@@@@@@@@.
    .@@....@@.
    .@@....@@.
    .@@....@@.
    .@@....@@.
    .@@....@@.
    .@@....@@.
    ..........
    ..........
    ..........
    ..........

u+021f:
uni021F:
    ..........
    ..@@..@@..
    ...@@@@...
    ....@@....
    .@@.......
    .@@.......
    .@@.......
    .@@.......
    .@@.@@@...
    .@@@..@@..
    .@@....@@.
    .@@....@@.
    .@@....@@.
    .@@....@@.
    .@@....@@.
    .@@....@@.
    ..........
    ..........
    ..........
    ..........

u+0220:
uni0220:
    ..........
    ..........
    ..........
    .@@.@@@...
    .@@@..@@..
    .@@....@@.
    .@@....@@.
    .@@....@@.
    .@@....@@.
    .@@....@@.
    .@@....@@.
    .@@....@@.
    .@@....@@.
    .@@....@@.
    .@@....@@.
    .@@....@@.
    .......@@.
    .......@@.
    .......@@.
    .......@@.

u+0221:
uni0221:
    ..........
    ..........
    ..........
    .....@@...
    .....@@...
    .....@@...
    .....@@...
    .....@@...
    ...@.@@...
    ..@@@@@...
    .@@..@@...
    .@@..@@...
    .@@..@@...
    .@@..@@@@.
    ..@@@@@.@.
    ...@@@@.@.
    ......@@..
    .....@....
    ..........
    ..........

u+0222:
uni0222:
    ..........
    ..........
    ..........
    .....@@...
    ......@@..
    ..@@...@@.
    .@@....@@.
    .@@....@@.
    ..@@..@@..
    ...@@@@...
    ..@@..@@..
    .@@....@@.
    .@@....@@.
    .@@....@@.
    ..@@..@@..
    ...@@@@...
    ..........
    ..........
    ..........
    ..........

u+0223:
uni0223:
    ..........
    ..........
    ..........
    ..........
    ..........
    ..........
    ..@@..@@..
    .@@....@@.
    .@@....@@.
    ..@@..@@..
    ...@@@@...
    ..@@..@@..
    .@@....@@.
    .@@....@@.
    ..@@..@@..
    ...@@@@...
    ..........
    ..........
    ..........
    ..........

u+0224:
uni0224:
    ..........
    ..........
    ..........
    .@@@@@@@@.
    .......@@.
    .......@@.
    ......@@..
    .....@@...
    .....@@...
    ....@@....
    ...@@.....
    ...@@.....
    ..@@......
    .@@.......
    .@@.......
    .@@@@@@@@.
    ........@@
    .......@@.
    .......@..
    ..........

u+0225:
uni0225:
    ..........
    ..........
    ..........
    ..........
    ..........
    ..........
    ..........
    ..........
    ..@@@@@@@.
    .......@@.
    ......@@..
    .....@@...
    ....@@....
    ...@@.....
    ..@@......
    ..@@@@@@@.
    ........@@
    .......@@.
    .......@..
    ..........

u+0226:
uni0226:
    ..........
    ....@@....
    ....@@....
    ..........
    ....@@....
    ...@@@@...
    ..@@..@@..
    ..@@..@@..
    .@@....@@.
    .@@....@@.
    .@@....@@.
    .@@@@@@@@.
    .@@....@@.
    .@@....@@.
    .@@....@@.
    .@@....@@.
    ..........
    ..........
    ..........
    ..........

u+0227:
uni0227:
    ..........
    ..........
    ..........
    ..........
    ..........
    ....@@....
    ....@@....
    ..........
    ...@@@@@..
    ..@@...@@.
    .......@@.
    ..@@@@@@@.
    .@@....@@.
    .@@....@@.
    .@@....@@.
    ..@@@@@.@.
    ..........
    ..........
    ..........
    ..........

u+0228:
uni0228:
    ..........
    ..........
    ..........
    .@@@@@@@@.
    .@@.......
    .@@.......
    .@@.......
    .@@.......
    .@@.......
    .@@@@@@...
    .@@.......
    .@@.......
    .@@.......
    .@@.......
    .@@.......
    .@@@@@@@@.
    ....@@....
    .....@@...
    ..@@.@@...
    ...@@@....

u+0229:
uni0229:
    ..........
    ..........
    ..........
    ..........
    ..........
    ..........
    ..........
    ..........
    ...@@@@...
    ..@@..@@..
    .@@....@@.
    .@@@@@@@@.
    .@@.......
    .@@.......
    ..@@...@@.
    ...@@@@@..
    ....@@....
    .....@@...
    ..@@.@@...
    ...@@@....

u+022a:
uni022A:
    .@@@@@@@@.
    ..........
    ..@@..@@..
    ..@@..@@..
    ..........
    ...@@@@...
    ..@@..@@..
    .@@....@@.
    .@@....@@.
    .@@....@@.
    .@@....@@.
    .@@....@@.
    .@@....@@.
    .@@....@@.
    ..@@..@@..
    ...@@@@...
    ..........
    ..........
    ..........
    ..........

u+022b:
uni022B:
    ..........
    ..........
    ..........
    .@@@@@@@@.
    ..........
    ..@@..@@..
    ..@@..@@..
    ..........
    ...@@@@...
    ..@@..@@..
    .@@....@@.
    .@@....@@.
    .@@....@@.
    .@@....@@.
    ..@@..@@..
    ...@@@@...
    ..........
    ..........
    ..........
    ..........

u+022c:
uni022C:
    .@@@@@@@@.
    ..........
    ...@@..@..
    ..@@@@@@..
    ..@..@@...
    ..........
    ...@@@@...
    ..@@..@@..
    .@@....@@.
    .@@....@@.
    .@@....@@.
    .@@....@@.
    .@@....@@.
    .@@....@@.
    ..@@..@@..
    ...@@@@...
    ..........
    ..........
    ..........
    ..........

u+022d:
uni022D:
    ..........
    ..........
    .@@@@@@@@.
    ..........
    ...@@..@..
    ..@@@@@@..
    ..@..@@...
    ..........
    ...@@@@...
    ..@@..@@..
    .@@....@@.
    .@@....@@.
    .@@....@@.
    .@@....@@.
    ..@@..@@..
    ...@@@@...
    ..........
    ..........
    ..........
    ..........

u+022e:
uni022E:
    ..........
    ....@@....
    ....@@....
    ..........
    ...@@@@...
    ..@@..@@..
    .@@....@@.
    .@@....@@.
    .@@....@@.
    .@@....@@.
    .@@....@@.
    .@@....@@.
    .@@....@@.
    .@@....@@.
    ..@@..@@..
    ...@@@@...
    ..........
    ..........
    ..........
    ..........

u+022f:
uni022F:
    ..........
    ..........
    ..........
    ..........
    ..........
    ....@@....
    ....@@....
    ..........
    ...@@@@...
    ..@@..@@..
    .@@....@@.
    .@@....@@.
    .@@....@@.
    .@@....@@.
    ..@@..@@..
    ...@@@@...
    ..........
    ..........
    ..........
    ..........

u+0230:
uni0230:
    .@@@@@@@@.
    ..........
    ....@@....
    ....@@....
    ..........
    ...@@@@...
    ..@@..@@..
    .@@....@@.
    .@@....@@.
    .@@....@@.
    .@@....@@.
    .@@....@@.
    .@@....@@.
    .@@....@@.
    ..@@..@@..
    ...@@@@...
    ..........
    ..........
    ..........
    ..........

u+0231:
uni0231:
    ..........
    ..........
    ..........
    .@@@@@@@@.
    ..........
    ....@@....
    ....@@....
    ..........
    ...@@@@...
    ..@@..@@..
    .@@....@@.
    .@@....@@.
    .@@....@@.
    .@@....@@.
    ..@@..@@..
    ...@@@@...
    ..........
    ..........
    ..........
    ..........

u+0232:
uni0232:
    ..........
    .@@@@@@@@.
    ..........
    .@@....@@.
    .@@....@@.
    ..@@..@@..
    ..@@..@@..
    ...@@@@...
    ...@@@@...
    ....@@....
    ....@@....
    ....@@....
    ....@@....
    ....@@....
    ....@@....
    ....@@....
    ..........
    ..........
    ..........
    ..........

u+0233:
uni0233:
    ..........
    ..........
    ..........
    ..........
    ..........
    ..........
    .@@@@@@@@.
    ..........
    .@@....@@.
    .@@....@@.
    .@@....@@.
    .@@....@@.
    .@@....@@.
    .@@....@@.
    ..@@..@@@.
    ...@@@.@@.
    .......@@.
    .@@....@@.
    ..@@..@@..
    ...@@@@...

u+0234:
uni0234:
    ..........
    ..........
    ..........
    .@@@@.....
    ...@@.....
    ...@@.....
    ...@@.....
    ...@@.....
    ...@@.....
    ...@@.....
    ...@@.....
    ...@@.....
    ...@@.....
    ...@@..@..
    ...@@.@.@.
    ....@@..@.
    .....@@@..
    ....@.....
    ..........
    ..........

u+0235:
uni0235:
    ..........
    ..........
    ..........
    ..........
    ..........
    ..........
    ..........
    ..........
    .@@.@@....
    .@@@.@@...
    .@@..@@...
    .@@..@@...
    .@@..@@...
    .@@..@@...
    .@@..@@@@.
    .@@..@@.@.
    .....@@.@.
    ......@@..
    .....@....
    ..........

u+0236:
uni0236:
    ..........
    ..........
    ..........
    ..........
    ..........
    ...@@.....
    ...@@.....
    ...@@.....
    .@@@@@@...
    ...@@.....
    ...@@.....
    ...@@.....
    ...@@.....
    ...@@..@..
    ...@@@@.@.
    ....@@..@.
    .....@@@..
    ....@.....
    ..........
    ..........

u+0237:
uni0237:
    ..........
    ..........
    ..........
    ..........
    ..........
    ..........
    ..........
    ..........
    .....@@@@.
    .......@@.
    .......@@.
    .......@@.
    .......@@.
    .......@@.
    .......@@.
    .......@@.
    ..@@...@@.
    ..@@...@@.
    ..@@...@@.
    ...@@@@@..

u+0238:
uni0238:
    ..........
    ..........
    ..........
    ....@@....
    ....@@....
    ....@@....
    ....@@....
    ....@@....
    ..@@@@@@..
    .@@.@@.@@.
    .@..@@..@.
    .@..@@..@.
    .@..@@..@.
    .@..@@..@.
    .@.@@@@.@.
    ..@.@@.@..
    ..........
    ..........
    ..........
    ..........

u+0239:
uni0239:
    ..........
    ..........
    ..........
    ..........
    ..........
    ..........
    ..........
    ..........
    ..@@@@@@..
    .@@.@@.@@.
    .@..@@..@.
    .@..@@..@.
    .@..@@..@.
    .@..@@..@.
    .@.@@@@.@.
    ..@.@@.@..
    ....@@....
    ....@@....
    ....@@....
    ....@@....

u+023a:
uni023A:
    ..........
    ..........
    ..........
    ..........
    ....@@...@
    ...@@@@.@@
    ..@@..@@@.
    ..@@..@@..
    .@@..@@@@.
    .@@.@@.@@.
    .@@@@..@@.
    .@@@@@@@@.
    .@@....@@.
    @@@....@@.
    @@@....@@.
    .@@....@@.
    ..........
    ..........
    ..........
    ..........

u+023b:
uni023B:
    ..........
    ..........
    ..........
    ...@@@@...
    ..@@..@@.@
    .@@....@@@
    .@@....@@.
    .@@...@@..
    .@@..@@...
    .@@.@@....
    .@@@@.....
    .@@@......
    .@@.......
    @@@....@@.
    @.@@..@@..
    ...@@@@...
    ..........
    ..........
    ..........
    ..........

u+023c:
uni023C:
    ..........
    ..........
    ..........
    ..........
    ..........
    ..........
    ..........
    ........@@
    ...@@@@@@.
    ..@@..@@@.
    .@@..@@...
    .@@.@@....
    .@@@@.....
    .@@@......
    .@@@...@@.
    @@.@@@@@..
    ..........
    ..........
    ..........
    ..........

u+023d:
uni023D:
    ..........
    ..........
    ..........
    .@@.......
    .@@.......
    .@@.......
    .@@.......
    .@@.......
    .@@.......
    @@@@@.....
    .@@.......
    .@@.......
    .@@.......
    .@@.......
    .@@.......
    .@@@@@@@@.
    ..........
    ..........
    ..........
    ..........

u+023e:
uni023E:
    ..........
    ..........
    ..........
    .@@@@@@@@.
    ....@@....
    ....@@..@.
    ....@@.@@.
    ....@@@@..
    ....@@@...
    ....@@....
    ...@@@....
    ..@@@@....
    .@@.@@....
    .@..@@....
    ....@@....
    ....@@....
    ..........
    ..........
    ..........
    ..........

u+023f:
uni023F:
    ..........
    ..........
    ..........
    ..........
    ..........
    ..........
    ..........
    ..........
    ..@@@@@@..
    .@@....@@.
    .@@.......
    ..@@@@@@..
    .......@@.
    .......@@.
    .@@....@@.
    ..@@@@@@..
    ..@@......
    ...@@@.@@.
    .....@@@..
    ..........

u+0240:
uni0240:
    ..........
    ..........
    ..........
    ..........
    ..........
    ..........
    ..........
    ..........
    ..@@@@@@@.
    .......@@.
    ......@@..
    .....@@...
    ....@@....
    ...@@.....
    ..@@......
    ..@@......
    ..@@......
    ...@@@.@@.
    .....@@@..
    ..........

u+0241:
uni0241:
    ..........
    ..........
    ..........
    ...@@@@...
    ..@@..@@..
    .@@....@@.
    .@@....@@.
    .......@@.
    ......@@..
    ....@@@...
    ....@@....
    ....@@....
    ....@@....
    ....@@....
    ....@@....
    ....@@....
    ..........
    ..........
    ..........
    ..........

u+0242:
uni0242:
    ..........
    ..........
    ..........
    ..........
    ..........
    ..........
    ..........
    ..........
    ...@@@@...
    ..@@..@@..
    .@@....@@.
    .@@....@@.
    ......@@..
    ....@@@...
    ....@@....
    ....@@....
    ..........
    ..........
    ..........
    ..........

u+0243:
uni0243:
    ..........
    ..........
    ..........
    .@@@@@....
    .@@..@@..@
    .@@...@@@@
    .@@...@@@.
    .@@...@@..
    .@@..@@...
    .@@@@@@...
    .@@@@.@@..
    .@@@...@@.
    .@@....@@.
    @@@....@@.
    @@@...@@..
    .@@@@@@...
    ..........
    ..........
    ..........
    ..........

u+0244:
uni0244:
    ..........
    ..........
    ..........
    .@@....@@.
    .@@....@@@
    .@@....@@@
    .@@....@@.
    .@@...@@@.
    .@@..@@@@.
    .@@.@@.@@.
    .@@@@..@@.
    .@@@...@@.
    .@@....@@.
    @@@....@@.
    @.@@..@@..
    ...@@@@...
    ..........
    ..........
    ..........
    ..........

u+0245:
uni0245:
    ..........
    ..........
    ..........
    ....@@....
    ....@@....
    ....@@....
    ...@@@@...
    ...@@@@...
    ...@@@@...
    ..@@..@@..
    ..@@..@@..
    ..@@..@@..
    .@@....@@.
    .@@....@@.
    .@@....@@.
    .@@....@@.
    ..........
    ..........
    ..........
    ..........

u+0246:
uni0246:
    ..........
    ..........
    ..........
    .@@@@@@@@.
    .@@......@
    .@@.....@@
    .@@....@@.
    .@@...@@..
    .@@..@@...
    .@@@@@@@..
    .@@@@.....
    .@@@......
    .@@.......
    @@@.......
    @@@.......
    .@@@@@@@@.
    ..........
    ..........
    ..........
    ..........

u+0247:
uni0247:
    ..........
    ..........
    ..........
    ..........
    ..........
    ..........
    ..........
    ..........
    ...@@@@@@.
    ..@@..@@..
    .@@..@@@@.
    .@@.@@.@@.
    .@@@@@@@@.
    .@@@......
    .@@@...@@.
    @@.@@@@@..
    ..........
    ..........
    ..........
    ..........

u+0248:
uni0248:
    ..........
    ..........
    ..........
    ....@@@@@@
    ......@@..
    ......@@..
    ......@@..
    ......@@..
    ......@@..
    ....@@@@@@
    ......@@..
    ......@@..
    .@@...@@..
    .@@...@@..
    ..@@.@@...
    ...@@@....
    ..........
    ..........
    ..........
    ..........

u+0249:
uni0249:
    ..........
    ..........
    ..........
    ..........
    ..........
    .......@@.
    .......@@.
    ..........
    .....@@@@.
    .......@@.
    .......@@.
    .....@@@@@
    .......@@.
    .......@@.
    .......@@.
    .......@@.
    ..@@...@@.
    ..@@...@@.
    ..@@...@@.
    ...@@@@@..

u+024a:
uni024A:
    ..........
    ..........
    ..........
    ...@@@@.@.
    ..@@..@@@.
    .@@....@@.
    .@@....@@.
    .@@....@@.
    .@@....@@.
    .@@....@@.
    .@@....@@.
    .@@....@@.
    .@@....@@.
    .@@....@@.
    ..@@..@@@.
    ...@@@@@@.
    .......@@.
    .......@@.
    .......@@.
    ........@@

u+024b:
uni024B:
    ..........
    ..........
    ..........
    ..........
    ..........
    ..........
    ..........
    ..........
    ...@@@.@@.
    ..@@..@@@.
    .@@....@@.
    .@@....@@.
    .@@....@@.
    .@@....@@.
    ..@@..@@@.
    ...@@@.@@.
    .......@@.
    .......@@.
    .......@@.
    ........@@

u+024c:
uni024C:
    ..........
    ..........
    ..........
    .@@@@@@...
    .@@...@@..
    .@@....@@.
    .@@....@@.
    .@@....@@.
    .@@....@@.
    .@@...@@..
    @@@@@@@...
    .@@..@@...
    .@@...@@..
    .@@...@@..
    .@@....@@.
    .@@....@@.
    ..........
    ..........
    ..........
    ..........

u+024d:
uni024D:
    ..........
    ..........
    ..........
    ..........
    ..........
    ..........
    ..........
    ..........
    .@@.@@@@..
    ..@@@..@@.
    ..@@......
    .@@@@@....
    ..@@......
    ..@@......
    ..@@......
    ..@@......
    ..........
    ..........
    ..........
    ..........

u+024e:
uni024E:
    ..........
    ..........
    ..........
    .@@....@@.
    .@@....@@.
    @@@@@@@@@@
    ..@@..@@..
    ...@@@@...
    ...@@@@...
    ....@@....
    ....@@....
    ....@@....
    ....@@....
    ....@@....
    ....@@....
    ....@@....
    ..........
    ..........
    ..........
    ..........

u+024f:
uni024F:
    ..........
    ..........
    ..........
    ..........
    ..........
    ..........
    ..........
    ..........
    .@@....@@.
    .@@....@@.
    .@@....@@.
    @@@@@@@@@@
    .@@....@@.
    .@@....@@.
    ..@@..@@@.
    ...@@@.@@.
    .......@@.
    .@@....@@.
    ..@@..@@..
    ...@@@@...

u+0250:
uni0250:
    ..........
    ..........
    ..........
    ..........
    ..........
    ..........
    ..........
    ..........
    .@.@@@@@..
    .@@....@@.
    .@@....@@.
    .@@....@@.
    .@@@@@@@..
    .@@.......
    .@@...@@..
    ..@@@@@...
    ..........
    ..........
    ..........
    ..........

u+0251:
uni0251:
    ..........
    ..........
    ..........
    ..........
    ..........
    ..........
    ..........
    ..........
    ...@@@@@..
    ..@@.@@@..
    .@@...@@..
    .@@...@@..
    .@@...@@..
    .@@...@@..
    ..@@.@@@..
    ...@@@.@@.
    ..........
    ..........
    ..........
    ..........

u+0252:
uni0252:
    ..........
    ..........
    ..........
    ..........
    ..........
    ..........
    ..........
    ..........
    .@@.@@@...
    ..@@@.@@..
    ..@@...@@.
    ..@@...@@.
    ..@@...@@.
    ..@@...@@.
    ..@@@.@@..
    ..@@@@@...
    ..........
    ..........
    ..........
    ..........

u+0253:
uni0253:
    ..........
    ..........
    ..........
    ...@@@@...
    ..@@......
    .@@.......
    .@@.......
    .@@.......
    .@@.@@@...
    .@@@..@@..
    .@@....@@.
    .@@....@@.
    .@@....@@.
    .@@....@@.
    .@@@..@@..
    .@@.@@@...
    ..........
    ..........
    ..........
    ..........

u+0254:
uni0254:
    ..........
    ..........
    ..........
    ..........
    ..........
    ..........
    ..........
    ..........
    ..@@@@@...
    .@@...@@..
    .......@@.
    .......@@.
    .......@@.
    .......@@.
    .@@...@@..
    ..@@@@@...
    ..........
    ..........
    ..........
    ..........

u+0255:
uni0255:
    ..........
    ..........
    ..........
    ..........
    ..........
    ..........
    ..........
    ..........
    ...@@@@@..
    ..@@...@@.
    .@@.......
    .@@.......
    .@@...@@..
    .@@..@.@@.
    ..@@.@.@@.
    ...@@@@@..
    ....@.....
    ....@.....
    ..........
    ..........

u+0256:
uni0256:
    ..........
    ..........
    ..........
    .......@@.
    .......@@.
    .......@@.
    .......@@.
    .......@@.
    ...@@@.@@.
    ..@@..@@@.
    .@@....@@.
    .@@....@@.
    .@@....@@.
    .@@....@@.
    ..@@..@@@.
    ...@@@.@@.
    .......@@.
    .......@@.
    ........@@
    ..........

u+0257:
uni0257:
    ..........
    ..........
    .......@@@
    ......@@..
    ......@@..
    ......@@..
    ......@@..
    ......@@..
    ...@@.@@..
    ..@@.@@@..
    .@@...@@..
    .@@...@@..
    .@@...@@..
    .@@...@@..
    ..@@.@@@..
    ...@@.@@..
    ..........
    ..........
    ..........
    ..........

u+0258:
uni0258:
    ..........
    ..........
    ..........
    ..........
    ..........
    ..........
    ..........
    ..........
    ...@@@@...
    ..@@..@@..
    .@@....@@.
    .@@@@@@@@.
    .......@@.
    .......@@.
    .@@...@@..
    ..@@@@@...
    ..........
    ..........
    ..........
    ..........

u+0259:
uni0259:
    ..........
    ..........
    ..........
    ..........
    ..........
    ..........
    ..........
    ..........
    ..@@@@@...
    .@@...@@..
    .......@@.
    .......@@.
    .@@@@@@@@.
    .@@....@@.
    ..@@..@@..
    ...@@@@...
    ..........
    ..........
    ..........
    ..........

u+025a:
uni025A:
    ..........
    ..........
    ..........
    ..........
    ..........
    ..........
    ..........
    ..........
    ..@@@@....
    .@@..@@.@@
    ......@@.@
    ....@@@@..
    .@@@..@@..
    .@@...@@..
    ..@@.@@...
    ...@@@....
    ..........
    ..........
    ..........
    ..........

u+025b:
uni025B:
    ..........
    ..........
    ..........
    ..........
    ..........
    ..........
    ..........
    ..........
    ..@@@@@@..
    .@@....@@.
    .@@.......
    ..@@@@....
    .@@.......
    .@@.......
    .@@....@@.
    ..@@@@@@..
    ..........
    ..........
    ..........
    ..........

u+025c:
uni025C:
    ..........
    ..........
    ..........
    ..........
    ..........
    ..........
    ..........
    ..........
    ..@@@@@@..
    .@@....@@.
    .......@@.
    ....@@@@..
    .......@@.
    .......@@.
    .@@....@@.
    ..@@@@@@..
    ..........
    ..........
    ..........
    ..........

u+025d:
uni025D:
    ..........
    ..........
    ..........
    ..........
    ..........
    ..........
    ..........
    ..........
    ..@@@@....
    .@@..@@@.@
    .....@@.@.
    ...@@@....
    .....@@...
    .....@@...
    .@@..@@...
    ..@@@@....
    ..........
    ..........
    ..........
    ..........

u+025e:
uni025E:
    ..........
    ..........
    ..........
    ..........
    ..........
    ..........
    ..........
    ..........
    ..@@@@@@..
    .@@....@@.
    .@@....@@.
    .@@..@@@..
    .@@....@@.
    .@@....@@.
    .@@....@@.
    ..@@@@@@..
    ..........
    ..........
    ..........
    ..........

u+025f:
uni025F:
    ..........
    ..........
    ..........
    ..........
    ..........
    ..........
    ..........
    ..........
    .....@@...
    .....@@...
    .....@@...
    .....@@...
    .....@@...
    .....@@...
    ...@@@@@@.
    .....@@...
    .....@@...
    .@@..@@...
    .@@..@@...
    ..@@@@....

u+0260:
uni0260:
    ..........
    ..........
    ..........
    ..........
    ..........
    ........@@
    .......@@.
    .......@@.
    ...@@@.@@.
    ..@@..@@@.
    .@@....@@.
    .@@....@@.
    .@@....@@.
    .@@....@@.
    ..@@..@@@.
    ...@@@.@@.
    .......@@.
    .@@....@@.
    ..@@..@@..
    ...@@@@...

u+0261:
uni0261:
    ..........
    ..........
    ..........
    ..........
    ..........
    ..........
    ..........
    ..........
    ...@@@.@@.
    ..@@..@@@.
    .@@....@@.
    .@@....@@.
    .@@....@@.
    .@@....@@.
    ..@@..@@@.
    ...@@@.@@.
    .......@@.
    .@@....@@.
    ..@@..@@..
    ...@@@@...

u+0262:
uni0262:
    ..........
    ..........
    ..........
    ..........
    ..........
    ..........
    ..........
    ..........
    ...@@@@...
    ..@@..@@..
    .@@....@@.
    .@@.......
    .@@..@@@@.
    .@@....@@.
    ..@@..@@@.
    ...@@@@.@.
    ..........
    ..........
    ..........
    ..........

u+0263:
uni0263:
    ..........
    ..........
    ..........
    ..........
    ..........
    ..........
    ..........
    ..........
    .@@....@@.
    .@@....@@.
    ..@@..@@..
    ..@@..@@..
    ...@@@@...
    ...@@@@...
    ....@@....
    ...@@@@...
    ..@@..@@..
    ..@@..@@..
    ...@@@@...
    ..........

u+0264:
uni0264:
    ..........
    ..........
    ..........
    ..........
    ..........
    ..........
    ..........
    ..........
    .@@...@@..
    ..@@.@@...
    ...@@@....
    ...@@@....
    ...@@@....
    ..@@.@@...
    ..@@.@@...
    ...@@@....
    ..........
    ..........
    ..........
    ..........

u+0265:
uni0265:
    ..........
    ..........
    ..........
    ..........
    ..........
    ..........
    ..........
    ..........
    .@@....@@.
    .@@....@@.
    .@@....@@.
    .@@....@@.
    .@@....@@.
    .@@....@@.
    ..@@..@@@.
    ...@@@.@@.
    .......@@.
    .......@@.
    .......@@.
    .......@@.

u+0266:
uni0266:
    ..........
    ..........
    ..........
    ...@@@@...
    ..@@..@@..
    .@@.......
    .@@.......
    .@@.......
    .@@.@@@...
    .@@@..@@..
    .@@....@@.
    .@@....@@.
    .@@....@@.
    .@@....@@.
    .@@....@@.
    .@@....@@.
    ..........
    ..........
    ..........
    ..........

u+0267:
uni0267:
    ..........
    ..........
    ..........
    ...@@@@...
    ..@@..@@..
    .@@.......
    .@@.......
    .@@.......
    .@@.@@@...
    .@@@..@@..
    .@@....@@.
    .@@....@@.
    .@@....@@.
    .@@....@@.
    .@@....@@.
    .@@....@@.
    .......@@.
    .......@@.
    .......@@.
    ......@@..

u+0268:
uni0268:
    ..........
    ..........
    ..........
    ..........
    ..........
    ....@@....
    ....@@....
    ..........
    ..@@@@....
    ....@@....
    ....@@....
    ..@@@@@@..
    ....@@....
    ....@@....
    ....@@....
    .@@@@@@@@.
    ..........
    ..........
    ..........
    ..........

u+0269:
uni0269:
    ..........
    ..........
    ..........
    ..........
    ..........
    ..........
    ..........
    ..........
    ...@@@....
    ....@@....
    ....@@....
    ....@@....
    ....@@....
    ....@@....
    ....@@....
    .....@@@..
    ..........
    ..........
    ..........
    ..........

u+026a:
uni026A:
    ..........
    ..........
    ..........
    ..........
    ..........
    ..........
    ..........
    ..........
    .@@@@@@@@.
    ....@@....
    ....@@....
    ....@@....
    ....@@....
    ....@@....
    ....@@....
    .@@@@@@@@.
    ..........
    ..........
    ..........
    ..........

u+026b:
uni026B:
    ..........
    ..........
    ..........
    ..@@@@....
    ....@@....
    ....@@....
    ....@@....
    ....@@....
    ..@@@@..@.
    .@@@@@@@@.
    .@..@@@@..
    ....@@....
    ....@@....
    ....@@....
    ....@@....
    .@@@@@@@@.
    ..........
    ..........
    ..........
    ..........

u+026c:
uni026C:
    ..........
    ..........
    ..........
    ..@@@@....
    ....@@....
    ....@@....
    ....@@....
    ....@@....
    ..@@@@....
    .@@.@@....
    ..@@@@@@@.
    ....@@....
    ....@@....
    ....@@....
    ....@@....
    .@@@@@@@@.
    ..........
    ..........
    ..........
    ..........

u+026d:
uni026D:
    ..........
    ..........
    ..........
    ..@@@@....
    ....@@....
    ....@@....
    ....@@....
    ....@@....
    ....@@....
    ....@@....
    ....@@....
    ....@@....
    ....@@....
    ....@@....
    ....@@....
    ....@@....
    ....@@....
    ....@@....
    ....@@....
    .....@@...

u+026e:
uni026E:
    ..........
    ..........
    ..........
    .@@@......
    ..@@......
    ..@@......
    ..@@......
    ..@@......
    ..@@@@@@@@
    ..@@....@@
    ..@@....@@
    ..@@...@@.
    ..@@..@@..
    ..@@...@@.
    ..@@....@@
    .@@@@...@@
    ........@@
    ..@@....@@
    ...@@..@@.
    ....@@@@..

u+026f:
uni026F:
    ..........
    ..........
    ..........
    ..........
    ..........
    ..........
    ..........
    ..........
    .@@.@@.@@.
    .@@.@@.@@.
    .@@.@@.@@.
    .@@.@@.@@.
    .@@.@@.@@.
    .@@.@@.@@.
    .@@@@@@@@.
    ..@@.@@.@.
    ..........
    ..........
    ..........
    ..........

u+0270:
uni0270:
    ..........
    ..........
    ..........
    ..........
    ..........
    ..........
    ..........
    ..........
    .@@.@@.@@.
    .@@.@@.@@.
    .@@.@@.@@.
    .@@.@@.@@.
    .@@.@@.@@.
    .@@.@@.@@.
    .@@@@@@@@.
    ..@@.@@@@.
    .......@@.
    .......@@.
    .......@@.
    .......@@.

u+0271:
uni0271:
    ..........
    ..........
    ..........
    ..........
    ..........
    ..........
    ..........
    ..........
    .@.@@.@@..
    .@@@@@@@@.
    .@@.@@.@@.
    .@@.@@.@@.
    .@@.@@.@@.
    .@@.@@.@@.
    .@@.@@.@@.
    .@@.@@.@@.
    .......@@.
    .......@@.
    .......@@.
    ......@@..

u+0272:
uni0272:
    ..........
    ..........
    ..........
    ..........
    ..........
    ..........
    ..........
    ..........
    .@@.@@@...
    .@@@..@@..
    .@@....@@.
    .@@....@@.
    .@@....@@.
    .@@....@@.
    .@@....@@.
    .@@....@@.
    .@@.......
    .@@.......
    .@@.......
    @@........

u+0273:
uni0273:
    ..........
    ..........
    ..........
    ..........
    ..........
    ..........
    ..........
    ..........
    .@@.@@@...
    .@@@..@@..
    .@@....@@.
    .@@....@@.
    .@@....@@.
    .@@....@@.
    .@@....@@.
    .@@....@@.
    .......@@.
    .......@@.
    .......@@.
    ........@@

u+0274:
uni0274:
    ..........
    ..........
    ..........
    ..........
    ..........
    ..........
    ..........
    ..........
    .@@....@@.
    .@@@...@@.
    .@@@@..@@.
    .@@.@@.@@.
    .@@.@@.@@.
    .@@..@@@@.
    .@@...@@@.
    .@@....@@.
    ..........
    ..........
    ..........
    ..........

u+0275:
uni0275:
    ..........
    ..........
    ..........
    ..........
    ..........
    ..........
    ..........
    ..........
    ...@@@@...
    ..@@..@@..
    .@@....@@.
    .@@@@@@@@.
    .@@....@@.
    .@@....@@.
    ..@@..@@..
    ...@@@@...
    ..........
    ..........
    ..........
    ..........

u+0276:
uni0276:
    ..........
    ..........
    ..........
    ..........
    ..........
    ..........
    ..........
    ..........
    ..@@@@@@@.
    .@@.@@....
    .@@.@@....
    .@@.@@@@..
    .@@.@@....
    .@@.@@....
    .@@.@@....
    ..@@@@@@@.
    ..........
    ..........
    ..........
    ..........

u+0277:
uni0277:
    ..........
    ..........
    ..........
    ..........
    ..........
    ..........
    ..........
    ..........
    ...@@@@...
    ..@@..@@..
    .@@....@@.
    .@@....@@.
    .@@.@@.@@.
    .@@.@@.@@.
    .@@.@@.@@.
    ..@@@@@@..
    ..........
    ..........
    ..........
    ..........

u+0278:
uni0278:
    ..........
    ..........
    ..........
    ..........
    ....@@....
    ....@@....
    ....@@....
    ....@@....
    ..@@@@@@..
    .@@.@@.@@.
    .@@.@@.@@.
    .@@.@@.@@.
    .@@.@@.@@.
    .@@.@@.@@.
    .@@.@@.@@.
    ..@@@@@@..
    ....@@....
    ....@@....
    ....@@....
    ....@@....

